<?xml version="1.0" encoding="utf-8"?>
<!-- Generator: Adobe Illustrator 14.0.0, SVG Export Plug-In . SVG Version: 6.00 Build 43363)  -->
<!DOCTYPE svg PUBLIC "-//W3C//DTD SVG 1.1//EN" "http://www.w3.org/Graphics/SVG/1.1/DTD/svg11.dtd">
<svg version="1.1" id="Layer_1" xmlns="http://www.w3.org/2000/svg" xmlns:xlink="http://www.w3.org/1999/xlink" x="0px" y="0px"
	 width="97.667px" height="38.667px" viewBox="0 0 97.667 38.667" enable-background="new 0 0 97.667 38.667" xml:space="preserve">
<g>
	<g>
		<path d="M20.174,36.98c-0.907-0.512-1.873-0.408-2.838,0.246c-0.965,0.655-2.521-0.103-2.505-0.663
			c0.012-0.418,1.051-1.155,1.832-1.358c0.54-0.141,0.485-0.406,0.368-0.752c-0.376-1.107-0.684-2.274-0.968-3.424
			c-0.432-1.753-0.77-3.512-1.167-5.258c-0.343-1.596-0.504-2.392-0.82-3.979c-0.03-0.198-0.166-0.29-0.289-0.299
			c-1.11-0.075-2.332-0.158-3.588-0.312c-0.274,1.142-0.415,1.713-0.697,2.857c-0.838,3.907-1.277,5.857-2.153,9.886
			c-0.244,0.965-0.171,1.01,0.705,1.385c0.562,0.24,1.114,0.613,1.594,0.979c0.183,0.14,0.257,0.698,0.235,0.771
			c-0.027,0.092-0.536,0.27-0.77,0.256c-0.421-0.024-0.904-0.147-1.267-0.312C6.725,36.5,5.626,36.24,4.352,37
			c-0.786,0.469-1.499,0.206-1.969-0.266c-0.357-0.358-0.271-0.774,0.166-1.092c0.433-0.314,0.973-0.596,1.429-0.768
			c0.291-0.109,0.467-0.325,0.51-0.56c0.392-2.118,1.051-4.495,1.579-6.643c0.32-1.304,0.663-2.631,0.875-3.901
			c0.085-0.51,0.229-0.953,0.299-1.375c0.023-0.139-0.084-0.348-0.224-0.541c-0.125-0.172-0.344-0.305-0.466-0.494
			c-0.501-0.781-0.239-1.254,0.647-1.517c0.43-0.128,0.719-0.495,0.804-0.931c0.902-4.612,2.069-9.271,3.06-14.104
			c0.072-0.351,0.118-0.731,0.123-1.067c0.002-0.144-0.19-0.263-0.306-0.405c-0.288-0.354-0.742-0.611-1.04-0.969
			c-0.12-0.144-0.176-0.564-0.034-0.72c0.142-0.155,0.368-0.259,0.666-0.259c0.213,0,0.53,0.095,0.822,0.258
			c0.386,0.216,0.885,0.264,1.34-0.004c0.61-0.358,1.479-0.109,1.871,0.508c0.222,0.35,0.148,0.708-0.207,0.964
			c-0.279,0.201-0.674,0.298-0.72,0.409c-0.472,1.135,0.736,4.897,1.084,7.265c0.407,2.766,0.907,5.699,1.213,8.334
			c0.043,0.37,0.212,0.572,0.524,0.599c0.275,0.023,0.639,0.128,0.925,0.348c0.264,0.203,0.632,0.726,0.566,0.946
			c-0.098,0.327-0.515,0.726-0.809,0.892c-0.104,0.059-0.267,0.148-0.575,0.196c0.218,0.976,0.33,1.464,0.56,2.442
			c0.459,1.946,0.772,3.854,1.235,5.707c0.386,1.548,1.02,3.093,1.4,4.571c0.059,0.229,0.259,0.321,0.438,0.401
			c0.304,0.137,0.797,0.396,1.179,0.555c0.539,0.224,0.98,1.048,0.85,1.252C21.962,37.356,20.761,37.312,20.174,36.98z
			 M13.689,19.76c-0.562-4.058-0.805-6.064-1.299-10.145c-0.102,0.25-0.154,0.4-0.15,0.35c-0.624,3.49-0.96,5.212-1.662,8.657
			c-0.228,0.984-0.065,1.015,0.746,1.085c0.122,0.011,0.218,0.049,0.351,0.049C12.489,19.758,12.891,19.758,13.689,19.76z"/>
		<path d="M36.766,28.133c0.148,2.399-0.194,4.613-1.299,6.75c-0.253,0.489-0.626,0.896-1.05,1.152
			c-1.577,0.954-3.441,1.093-5.15,0.998c-0.188-0.011-0.302,0.02-0.35,0.05c-0.465,0.301-1.315,0.156-2.05-0.198
			c-0.596-0.288-1.207-0.215-1.801,0.198c-0.659,0.458-1.458,0.358-2.2-0.149c-0.521-0.356-0.52-0.896,0-1.301
			c0.596-0.465,1.352-0.75,2.302-0.75c0.55,0,0.649-0.2,0.649-0.75c0-2.6,0.051-5.25,0.051-7.851c0-0.98,0-1.469,0-2.449
			c0-0.15-0.25-0.299-0.4-0.448c-0.35-0.349-0.75-0.503-1.101-0.853c-0.15-0.15-0.138-0.552,0-0.702
			c0.301-0.326,0.617-0.642,0.9-0.75c0.48-0.184,0.599-0.398,0.599-0.948c0-3.46,0-5.19,0-8.65c0-2.601,0.026-5.225,0.051-7.801
			c0.004-0.396-0.155-0.464-0.5-0.6c-0.53-0.209-1.172-0.398-1.601-0.65c-0.286-0.168-0.561-0.668-0.5-0.899
			c0.114-0.431,0.606-0.438,0.95-0.303c1.199,0.473,2.531,0.469,3.7,0.055c0.395-0.14,0.911,0.141,1.349,0.199
			c0.931,0.125,1.913,0.24,2.851,0.448c2.778,0.615,4.095,2.512,4.95,5.05c0.74,2.196,0.724,4.476,0.649,6.799
			c-0.037,1.139-0.018,2.214-0.25,3.353c-0.473,2.315-3.948,5-3.948,5C33.523,22.416,36.615,25.684,36.766,28.133z M28.566,12.481
			c0,1.561-0.001,2.34-0.001,3.9c0,1.72,0,2.582,0,4.302c0,0.35,0.016,0.61,0.45,0.55c1.412-0.198,2.822-0.601,3.951-1.602
			c1.049-0.931,1.584-2.117,1.7-3.548c0.172-2.127,0.228-4.373,0.149-6.503c-0.067-1.832-0.491-3.663-1.649-5.149
			c-0.427-0.548-1.016-0.894-1.601-1.053c-0.838-0.229-1.781-0.018-2.699,0.354c-0.138,0.056-0.299,0.353-0.301,0.551
			c-0.025,2.775-0.049,5.398-0.049,8.198C28.537,12.481,28.546,12.481,28.566,12.481z M28.566,29.33c0.02,0,0.03,0,0.05,0
			c0,1.551-0.025,2.976-0.049,4.5c-0.025,1.576,0.046,1.788,1.651,1.503c1.009-0.179,2.091-0.472,2.55-1.603
			c0.624-1.539,1.06-3.009,1.199-4.6c0.161-1.838-0.336-3.663-1.149-5.149c-0.165-0.302-0.455-0.523-0.701-0.699
			c-0.864-0.616-1.96-0.286-2.95-0.15c-0.395,0.054-0.601,0.298-0.601,0.749C28.566,26.061,28.566,27.15,28.566,29.33z"/>
		<path d="M40.865,21.481c0-0.4-0.212-0.745-0.55-0.997c-0.448-0.334-0.937-0.782-1.148-1.152c-0.063-0.11-0.039-0.3,0-0.348
			c0.364-0.449,0.668-1.183,1.4-1.353c0.24-0.056,0.385-0.216,0.399-0.45c0.094-1.56,0.238-3.366,0.45-5.002
			c0.328-2.533,0.509-5.052,1.451-7.449c0.803-2.043,2.274-3.627,5.299-3.602c2.925,0.024,4.902,1.478,5.75,4.4
			c0.57,1.965,0.897,4.104,0.95,6.303c0.047,1.946,0.077,3.872,0.149,5.652c0.01,0.239,0.252,0.611,0.452,0.795
			c0.928,0.854,0.936,1.259,0.351,2.002c-0.254,0.322-0.54,0.573-0.751,0.851c-0.111,0.146-0.195,0.354-0.2,0.599
			c-0.073,3.428-0.524,7.041-1.201,10.452c-0.236,1.191-0.475,2.45-1.4,3.4c-1.851,1.9-4.001,1.892-6.349,0.849
			c-2.145-0.953-3.147-2.752-3.899-4.749c-0.997-2.648-1.152-5.398-1.152-8.198C40.865,22.685,40.865,22.281,40.865,21.481z
			 M44.116,27.334c0.165,2.334,0.656,4.548,1.899,6.496c0.351,0.549,0.874,0.894,1.351,1.301c0.198,0.17,0.406,0.23,0.65,0.1
			c0.88-0.472,1.809-1.052,2.049-2.096c0.411-1.784,0.902-3.653,1.1-5.453c0.353-3.196,0.564-6.238,0.75-9.248
			c0.123-1.976-0.075-4.079-0.1-6.055c-0.024-1.925-0.186-3.92-0.551-5.846c-0.214-1.13-0.605-2.306-1.349-3.254
			c-0.351-0.447-0.862-0.653-1.5-0.496c-0.939,0.232-1.419,0.903-1.949,1.699c-1.008,1.514-1.203,3.148-1.45,4.797
			c-0.353,2.347-0.601,4.602-0.801,6.952c-0.15,1.751-0.275,3.473-0.3,5.499C43.896,23.36,43.979,25.396,44.116,27.334z"/>
		<path d="M71.065,24.334c0-0.439,0.002-0.662,0.002-1.102c0.1-0.801-0.103-1.479-0.651-1.951c-0.524-0.451-0.5-0.75,0.05-1.199
			c0.551-0.45,0.6-1.049,0.6-1.648c0-2.721,0-4.084,0-6.805c0-2.55-0.024-4.974,0-7.5c0.007-0.693-0.268-1.192-0.799-1.4
			c-0.14-0.055-0.359-0.198-0.551-0.447c-0.15-0.194-0.314-0.547-0.25-0.65c0.086-0.14,0.493-0.263,0.65-0.348
			c0.044-0.023,0.366-0.048,0.75,0.045c0.59,0.143,1.35,0.25,2.15,0c0.799-0.25,2.001,0.262,2.399,0.853
			c0.309,0.46,0.183,0.883-0.25,1c-0.884,0.239-0.998,0.804-0.949,1.55c0.07,1.083,0.051,2.301,0.051,3.451
			c0,3.76,0.001,5.643,0.001,9.402c0,0.4-0.027,0.82-0.051,1.148c-0.037,0.508,0.201,1.103,0.549,1.399
			c0.477,0.406,0.357,0.743,0,1.25c-0.313,0.444-0.456,0.908-0.499,1.452c-0.173,2.224-0.062,4.508-0.301,6.849
			c-0.157,1.542-0.547,3.061-1.101,4.45c-0.933,2.342-2.733,3.429-5.25,3.2c-1.435-0.13-2.809-0.446-4.051-1.198
			c-1.797-1.088-3.004-2.705-3.601-4.853c-0.652-2.347-0.474-4.727-0.449-7.103c0.006-0.594-0.027-1.171-0.051-1.748
			c-0.006-0.143-0.094-0.323-0.25-0.55c-0.303-0.442-0.677-0.964-0.951-1.397c-0.269-0.426-0.125-0.899,0.2-1.201
			c0.399-0.37,0.8-0.801,1-1.352c0.2-0.55,0.101-1,0.101-1.55c0-2.351,0.05-4.55,0.05-6.801c0-1.95-0.025-3.975-0.05-5.9
			c-0.002-0.197-0.224-0.401-0.35-0.55c-0.255-0.301-0.596-0.468-0.8-0.799c-0.274-0.443-0.15-0.671,0.351-0.801
			c0.142-0.037,0.306-0.035,0.399,0c0.514,0.191,1.109-0.018,1.5-0.303c0.215-0.156,0.518-0.155,0.8-0.048
			c0.48,0.183,1.058,0.247,1.5,0.55c0.679,0.465,0.66,1.121-0.051,1.5c-0.531,0.283-0.55,0.65-0.55,1.201
			c0,2.449,0.049,4.85,0.049,7.3c0,1.98,0,2.968,0,4.948c0.05,0.4,0.068,0.867,0.052,1.301c-0.024,0.626,0.1,1.149,0.549,1.6
			c0.15,0.15,0.192,0.701,0.05,0.949c-0.558,0.972-0.639,1.963-0.599,3.104c0.065,1.834-0.042,3.659,0.147,5.45
			c0.21,1.988,0.604,4.004,2.151,5.397c0.724,0.652,1.559,1.108,2.5,0.952c1.143-0.19,1.892-0.918,2.351-2.149
			c0.722-1.938,1.27-3.932,1.352-6.049c0.036-0.937,0.097-1.9,0.248-2.9C71.155,24.334,71.125,24.334,71.065,24.334z"/>
		<path d="M82.266,3.181c-0.75,0-1.351-0.1-2.101-0.1c-0.199,0-0.484,0.166-0.5,0.298c-0.111,0.947-0.613,1.41-1.599,1.152
			c-0.546-0.143-1.118-0.405-1.4-0.898c-0.109-0.19-0.116-0.412-0.151-0.602c-0.07-0.371-0.065-0.79-0.149-1.152
			c-0.099-0.426,0.173-0.775,0.551-0.799c0.141-0.009,0.463,0.014,0.75,0.101c1.036,0.313,2.4,0.25,3.65,0.25
			c3.4,0,6.676-0.077,10.051-0.103c0.942-0.007,1.808-0.034,2.75,0.103c0.74,0.107,1.174,0.636,1.1,1.4
			c-0.022,0.229,0.103,0.501,0.25,0.75c0.352,0.594,0.185,0.972-0.45,1.05C94,4.757,93.068,4.338,92.416,3.633
			c-0.139-0.15-0.353-0.352-0.5-0.354c-1.624-0.025-3.249,0-4.899,0c-0.049,0-0.049,0.002,0-0.049c0,2.181,0,3.272,0,5.453
			c0,3.08,0,4.618,0,7.698c0,1,0.026,2.074,0.051,3.05c0.006,0.243,0.249,0.556,0.399,0.75c0.193,0.249,0.526,0.458,0.65,0.7
			c0.162,0.316,0.253,0.612,0.001,0.948c-0.71,0.944-1.135,1.916-1.103,3.1c0.095,3.454,0.025,7.03,0,10.455
			c-0.002,0.347,0.174,0.648,0.5,0.75c0.22,0.068,0.438,0.202,0.55,0.348c0.213,0.277,0.25,0.603,0.401,0.953
			c-0.42,0.16-0.63,0.237-1.051,0.397c-0.1,0-0.329-0.031-0.549-0.099c-0.889-0.274-1.977-0.478-3.001-0.502
			c-0.44-0.011-1.003-0.388-1.4-0.701c-0.321-0.254-0.099-0.551,0.25-0.75c0.08-0.04,0.119-0.059,0.198-0.099
			c0.35-0.149,0.809-0.148,1.001-0.397c0.151-0.195,0-0.654,0-1.004c0-2.7,0-4.049,0-6.749c0-1.2,0.05-2.399,0.05-3.601
			c0-0.35-0.13-0.65-0.35-0.899c-0.355-0.401-0.7-0.775-1.051-1.15c-0.513-0.549-0.444-0.952,0.051-1.5
			c0.452-0.5,0.952-1.068,1.25-1.651c0.212-0.414,0.099-0.998,0.099-1.549c0-2.96,0-4.44,0-7.4c0-1.98,0-2.97,0-4.95
			c0-0.55,0.048-1,0.099-1.65C83.346,3.181,82.986,3.181,82.266,3.181z"/>
	</g>
</g>
</svg>
