<?xml version="1.0" encoding="utf-8"?>
<!-- Generator: Adobe Illustrator 14.0.0, SVG Export Plug-In . SVG Version: 6.00 Build 43363)  -->
<!DOCTYPE svg PUBLIC "-//W3C//DTD SVG 1.1//EN" "http://www.w3.org/Graphics/SVG/1.1/DTD/svg11.dtd">
<svg version="1.1" id="Layer_1" xmlns="http://www.w3.org/2000/svg" xmlns:xlink="http://www.w3.org/1999/xlink" x="0px" y="0px"
	 width="126.5px" height="38.334px" viewBox="0 0 126.5 38.334" enable-background="new 0 0 126.5 38.334" xml:space="preserve">
<g>
	<path d="M5.16,18.885c0,0.25-0.05,0.451-0.05,0.701c-0.05,0.6-0.1,1.148,0.7,1.35c0.15,0.049,0.3,0.35,0.45,0.549
		c0.4,0.701,0.25,1.102-0.5,1.25c-0.6,0.15-0.7,0.4-0.7,0.951c0,2.25,0.45,4.449,1.05,6.6c0.35,1.15,0.8,2.201,1.25,3.25
		c0.2,0.451,0.5,0.852,0.9,1.25c0.55,0.602,1.75,0.451,2.15-0.199c0.6-1,0.95-2.15,1-3.5c0-0.1-0.1-0.25-0.3-0.449
		c-0.25-0.352-0.55-0.5-0.75-0.852c-0.35-0.549,0.1-1.199,0.75-1.049c0.55,0.049,1,0.299,1.55,0.449c0.55,0.201,1.1,0.35,1.65,0.5
		c0.3,0.15,0.55,0.301,0.8,0.451c0.6,0.6,0.5,1-0.3,1.148c-0.35,0.051-0.5,0.25-0.5,0.65c0,1.451-0.45,2.75-1.2,3.9
		c-0.45,0.65-1,0.951-1.75,0.951c-1.2,0-2.4-0.051-3.55-0.301c-1.55-0.35-2.4-1.4-3.05-2.75c-1.6-3.4-2.4-6.75-2.6-10.4
		c0-0.201-0.3-0.4-0.5-0.551c-0.2-0.15-0.45-0.199-0.6-0.4c-0.4-0.4-0.65-0.799,0.1-1.15c1.15-0.398,1.05-1.25,1.1-2.199
		c0.15-2.15,0.35-4.201,0.55-6.25c0.15-1.35,0.25-2.5,0.5-3.852c0.45-2.148,1.15-4.199,2.4-5.949c0.45-0.6,1.15-1.15,1.9-1.35
		c2.15-0.551,4.351-0.4,6.201,1.148c0.75,0.65,1.1,1.551,1,2.701c0,0.199-0.05,0.449-0.05,0.699c0,0.451-0.15,1,0.6,1.15
		c0.25,0.15,0.45,0.35,0.6,0.65c0.15,0.25,0.15,0.6-0.25,0.65c-0.35,0.049-0.7,0.1-1.05,0.1c-0.55-0.051-0.9,0-1.25,0.551
		c-0.15,0.199-0.5,0.35-0.7,0.35c-0.5,0-0.95-0.1-1.35-0.301c-0.8-0.449-0.75-1.549,0.1-2.15c0.35-0.199,0.5-0.5,0.5-0.949
		c0-0.551,0.1-1.051,0.15-1.6c0.15-0.801-0.4-1.451-1.2-1.5c-1.35-0.15-2.4,0.5-3.1,2c-1.4,2.799-1.95,5.699-2.2,8.9
		c-0.15,1.6-0.35,3.25-0.55,4.85H5.16z"/>
	<path d="M17.859,21.086c0-0.4-0.2-0.75-0.55-1c-0.45-0.352-0.8-0.75-1.15-1.15c-0.05-0.15-0.05-0.301,0-0.35
		c0.35-0.551,0.65-1.15,1.4-1.352c0.25-0.049,0.4-0.199,0.4-0.449c0.2-1.65,0.25-3.35,0.45-5c0.35-2.551,0.5-5.051,1.45-7.451
		c0.8-2.051,2.25-3.65,5.301-3.6c2.95,0,4.85,1.449,5.75,4.4c0.55,2,0.9,4.1,0.95,6.301c0.05,1.949,0,3.799,0.15,5.65
		c0,0.25,0.25,0.6,0.45,0.799c1,0.85,1,1.25,0.35,2c-0.25,0.35-0.55,0.5-0.75,0.85c-0.15,0.15-0.2,0.352-0.2,0.602
		c-0.15,3.5-0.55,7-1.2,10.449c-0.25,1.201-0.45,2.451-1.4,3.4c-1.85,1.951-4,1.9-6.351,0.852c-2.15-0.951-3.15-2.752-3.9-4.752
		c-1-2.65-1.15-5.4-1.15-8.199V21.086z M21.109,26.936c0.15,2.35,0.65,4.551,1.9,6.5c0.35,0.551,0.8,0.9,1.35,1.301
		c0.2,0.199,0.4,0.25,0.65,0.1c0.95-0.449,1.8-1.051,2.05-2.1c0.4-1.801,0.9-3.65,1.1-5.451c0.35-3.199,0.6-6.199,0.75-9.25
		c0.15-2-0.05-4.051-0.1-6.051c0-1.949-0.15-3.9-0.55-5.85c-0.2-1.15-0.6-2.301-1.35-3.25c-0.35-0.451-0.85-0.65-1.5-0.5
		c-0.95,0.25-1.4,0.898-1.95,1.699c-1,1.551-1.2,3.15-1.45,4.801c-0.35,2.35-0.6,4.6-0.8,6.949c-0.15,1.752-0.25,3.451-0.3,5.502
		C20.909,22.986,20.959,24.986,21.109,26.936z"/>
	<path d="M49.009,28.385v-4.25c0-1.75,0.1-3.299,0.1-5.049v-5.451c0-1.75,0.05-3.4,0.05-5.15c0.05-1.75,0.1-3.551,0.1-5.301
		c0-0.199-0.25-0.449-0.4-0.6c-0.2-0.199-0.5-0.35-0.65-0.551c-0.4-0.449-0.3-0.75,0.35-0.898c0.6-0.15,1.15-0.201,1.7-0.352
		c0.85-0.199,1.65,0,2.4,0.65c0.55,0.551,0.45,0.951-0.3,1.201l-0.45,0.1c0.05,2.4,0.1,4.801,0.15,7.15l0.1,7.15
		c0,0.35-0.05,0.699,0,1.051c0.05,0.199,0.25,0.35,0.4,0.5c0.45,0.398,1,0.799,1.4,1.199c0.2,0.199,0.2,0.449,0,0.699
		c-0.15,0.352-0.3,0.451-0.45,0.801c-0.2,0.5-0.55,0.85-1.05,1c-0.2,0.051-0.3,0.199-0.3,0.4c0,4.4,0,8.551,0.05,12.801
		c0,0.35,0.15,0.6,0.3,0.85l0.4,0.451c0.35,0.398,0.2,0.799-0.35,0.85c-0.45,0.049-0.9-0.051-1.45-0.1
		c-0.55-0.051-1.05-0.15-1.6-0.15c-0.65,0-1.25-0.1-1.8-0.65c-0.35-0.4-0.25-0.699,0.2-0.949c0.4-0.15,0.4-0.352,0.25-0.701
		c-1.05-3-2.1-5.951-3.05-8.951c-1.05-3.4-1.95-6.85-3-10.25c-0.55-1.85-1.15-3.65-1.7-5.4c-0.05-0.25-0.15-0.449-0.25-0.551
		c-0.05,0-0.1,0-0.15,0.051v3c0,2.801,0.05,5.25,0.05,8.051c0.05,2.801,0.05,5.451,0.05,8.25v5.65c0,0.35,0.15,0.551,0.4,0.6
		c0.15,0.051,0.25,0.102,0.4,0.252c0.35,0.25,0.7,0.648,0.5,1.049c-0.15,0.25-0.65,0.4-1,0.35c-1.15-0.25-2.3-0.199-3.45-0.049
		c-0.75,0.1-1.35-0.201-1.75-0.85c-0.15-0.352-0.15-0.551,0.1-0.701c0.4-0.199,0.8-0.4,1.2-0.449c0.35-0.051,0.5-0.25,0.5-0.602
		c-0.05-1.85-0.05-3.699-0.05-5.549c0-2,0.05-4,0.1-5.951c0-0.6,0-1.051-0.55-1.5c-0.55-0.4-0.75-1-1.2-1.551
		c0.55-0.549,1.1-0.85,1.5-1.398c0.2-0.25,0.3-0.701,0.3-1.051c0-2.551,0-4.951-0.05-7.4c0-1.951,0.05-3.85,0.05-5.801v-0.1
		c0.2-0.951,0.1-1.6-1.05-1.801c-0.2-0.049-0.4-0.4-0.55-0.65c-0.35-0.449-0.05-0.85,0.5-0.85c0.95-0.049,1.8-0.1,2.75-0.049
		c0.75,0,1.4,0.148,1.95,0.699c0.4,0.449,0.3,0.9-0.3,1.301c3.25,8.35,5.5,17.051,8.451,25.602L49.009,28.385z"/>
	<path d="M61.608,2.783c-0.75,0-1.35-0.1-2.1-0.1c-0.2,0-0.5,0.15-0.5,0.301c-0.25,1.051-0.6,1.4-1.6,1.15
		c-0.55-0.15-1.15-0.301-1.4-0.9c-0.15-0.201-0.1-0.4-0.15-0.6c-0.05-0.4,0-0.75-0.15-1.15c-0.05-0.5,0.15-0.75,0.55-0.801
		c0.15,0,0.4,0.051,0.75,0.1c1.15,0.551,2.4,0.25,3.65,0.25c3.4,0,6.65-0.049,10.05-0.1c0.95,0,1.8-0.049,2.75,0.1
		c0.75,0.102,1.1,0.551,1.1,1.4c-0.05,0.25,0.1,0.5,0.25,0.75c0.35,0.602,0.2,0.951-0.45,1.051c-1.05,0.1-1.95-0.25-2.6-1
		c-0.15-0.15-0.35-0.35-0.5-0.35c-1.65-0.051-3.25,0-4.9,0c-0.05,0-0.05,0,0-0.051v5.451v7.699c0,1,0,2.051,0.05,3.051
		c0,0.25,0.25,0.551,0.4,0.75c0.2,0.25,0.5,0.449,0.65,0.699c0.15,0.352,0.25,0.602,0,0.951c-0.75,0.949-1.15,1.9-1.1,3.1
		c0.05,3.5,0.05,7,0,10.451c0,0.35,0.15,0.6,0.5,0.75c0.25,0.051,0.4,0.199,0.55,0.35c0.2,0.35,0.25,0.6,0.4,0.951l-1.05,0.398
		c-0.1,0-0.3-0.049-0.55-0.1c-0.95-0.4-1.95-0.449-3-0.5c-0.45,0-1-0.35-1.4-0.699c-0.35-0.25-0.1-0.551,0.25-0.75l0.2-0.102
		c0.35-0.148,0.8-0.148,1-0.398c0.15-0.201,0-0.65,0-1v-6.752c0-1.199,0.05-2.398,0.05-3.6c0-0.35-0.1-0.65-0.35-0.9
		c-0.35-0.449-0.7-0.75-1.05-1.15c-0.55-0.549-0.5-0.949,0.05-1.5c0.45-0.549,0.9-1.049,1.25-1.648c0.2-0.451,0.1-1,0.1-1.551v-7.4
		V4.434c0-0.549,0.05-1,0.1-1.65H61.608z"/>
	<path d="M90.858,36.586c-0.949-0.5-1.9-0.4-2.85,0.25s-1.949,0.35-2.551-0.65c0.4-0.699,1-1.15,1.801-1.35
		c0.551-0.15,0.5-0.4,0.35-0.75c-0.4-1.15-0.799-2.25-1.15-3.4c-0.549-1.75-1-3.5-1.549-5.25l-1.201-4
		c-0.05-0.201-0.2-0.301-0.35-0.301c-1.351-0.15-2.65-0.15-4.051-0.299l-0.45,2.9l-1.199,9.9c-0.15,0.949-0.101,1,0.85,1.35
		c0.6,0.25,1.15,0.6,1.7,0.949c0.2,0.15,0.149,0.5,0.3,0.75c-0.25,0.15-0.5,0.25-0.75,0.25c-0.45-0.049-0.9-0.148-1.3-0.299
		c-1.2-0.551-2.3-0.75-3.5,0c-0.75,0.449-1.4,0.199-2-0.25c-0.4-0.4-0.4-0.75,0.05-1.051c0.4-0.35,0.9-0.551,1.35-0.75
		c0.3-0.1,0.45-0.301,0.45-0.551c0.35-2.199,0.5-4.398,0.85-6.6c0.15-1.35,0.3-2.6,0.45-3.949c0-0.551,0.1-0.951,0.15-1.4
		c0-0.15-0.1-0.352-0.3-0.551c-0.15-0.199-0.4-0.301-0.55-0.5c-0.65-0.801-0.45-1.301,0.5-1.551c0.45-0.148,0.7-0.5,0.75-0.949
		c0.35-4.801,1.15-9.4,1.95-14.201c0.051-0.35,0.101-0.699,0.051-1.051c0-0.148-0.25-0.25-0.4-0.398c-0.4-0.352-0.9-0.602-1.3-0.951
		c-0.15-0.15-0.25-0.549-0.1-0.699c0.15-0.15,0.4-0.25,0.75-0.25c0.25,0,0.601,0.1,1,0.25c0.5,0.25,1.051,0.25,1.65,0
		c0.75-0.4,1.9-0.15,2.45,0.5c0.35,0.35,0.25,0.699-0.2,0.949c-0.35,0.201-0.649,0.25-0.899,0.4c0.649,2.451,1.35,4.85,1.949,7.25
		c0.751,2.801,1.3,5.602,2.05,8.4c0.051,0.4,0.25,0.602,0.65,0.602c0.35,0.049,0.75,0.1,1.1,0.35c0.35,0.199,0.75,0.699,0.701,0.949
		c-0.15,0.35-0.551,0.65-0.9,0.9c-0.15,0.051-0.301,0.15-0.65,0.199l0.75,2.451c0.6,1.949,1,3.85,1.551,5.701
		c0.449,1.549,1,3,1.549,4.549c0.051,0.25,0.201,0.35,0.451,0.4c0.35,0.25,0.799,0.4,1.199,0.551c0.551,0.25,0.85,0.699,0.85,1.25
		C92.108,36.986,91.46,36.936,90.858,36.586z M83.109,19.385l-2.45-10.25c-0.101,0.25-0.15,0.4-0.15,0.35l-1.05,8.75
		c-0.15,1-0.05,0.951,0.95,1.102c0.149,0,0.25,0.049,0.399,0.049H83.109z"/>
	<path d="M94.958,18.885c0,0.25-0.049,0.451-0.049,0.701c-0.051,0.6-0.1,1.148,0.699,1.35c0.15,0.049,0.301,0.35,0.451,0.549
		c0.398,0.701,0.25,1.102-0.5,1.25c-0.602,0.15-0.701,0.4-0.701,0.951c0,2.25,0.451,4.449,1.051,6.6
		c0.35,1.15,0.799,2.201,1.25,3.25c0.199,0.451,0.5,0.852,0.9,1.25c0.549,0.602,1.75,0.451,2.15-0.199c0.6-1,0.949-2.15,1-3.5
		c0-0.1-0.102-0.25-0.301-0.449c-0.25-0.352-0.551-0.5-0.75-0.852c-0.35-0.549,0.1-1.199,0.75-1.049
		c0.551,0.049,1,0.299,1.551,0.449c0.549,0.201,1.1,0.35,1.648,0.5c0.301,0.15,0.551,0.301,0.801,0.451c0.6,0.6,0.5,1-0.301,1.148
		c-0.35,0.051-0.5,0.25-0.5,0.65c0,1.451-0.449,2.75-1.199,3.9c-0.449,0.65-1,0.951-1.75,0.951c-1.199,0-2.4-0.051-3.551-0.301
		c-1.549-0.35-2.4-1.4-3.049-2.75c-1.602-3.4-2.4-6.75-2.602-10.4c0-0.201-0.299-0.4-0.5-0.551c-0.199-0.15-0.449-0.199-0.6-0.4
		c-0.4-0.4-0.65-0.799,0.1-1.15c1.15-0.398,1.051-1.25,1.1-2.199c0.15-2.15,0.352-4.201,0.551-6.25c0.15-1.35,0.25-2.5,0.5-3.852
		c0.451-2.148,1.15-4.199,2.4-5.949c0.449-0.6,1.15-1.15,1.9-1.35c2.15-0.551,4.35-0.4,6.199,1.148c0.75,0.65,1.102,1.551,1,2.701
		c0,0.199-0.049,0.449-0.049,0.699c0,0.451-0.15,1,0.6,1.15c0.25,0.15,0.451,0.35,0.6,0.65c0.15,0.25,0.15,0.6-0.25,0.65
		c-0.35,0.049-0.699,0.1-1.049,0.1c-0.551-0.051-0.9,0-1.25,0.551c-0.15,0.199-0.5,0.35-0.701,0.35c-0.5,0-0.949-0.1-1.35-0.301
		c-0.801-0.449-0.75-1.549,0.1-2.15c0.35-0.199,0.5-0.5,0.5-0.949c0-0.551,0.1-1.051,0.15-1.6c0.15-0.801-0.4-1.451-1.199-1.5
		c-1.352-0.15-2.4,0.5-3.102,2c-1.4,2.799-1.949,5.699-2.199,8.9c-0.15,1.6-0.35,3.25-0.551,4.85H94.958z"/>
	<path d="M111.858,2.783c-0.75,0-1.35-0.1-2.1-0.1c-0.201,0-0.5,0.15-0.5,0.301c-0.25,1.051-0.602,1.4-1.602,1.15
		c-0.549-0.15-1.15-0.301-1.4-0.9c-0.148-0.201-0.1-0.4-0.148-0.6c-0.051-0.4,0-0.75-0.15-1.15c-0.051-0.5,0.15-0.75,0.549-0.801
		c0.15,0,0.4,0.051,0.75,0.1c1.15,0.551,2.4,0.25,3.65,0.25c3.4,0,6.65-0.049,10.051-0.1c0.951,0,1.801-0.049,2.75,0.1
		c0.75,0.102,1.102,0.551,1.102,1.4c-0.051,0.25,0.1,0.5,0.25,0.75c0.35,0.602,0.199,0.951-0.451,1.051c-1.049,0.1-1.949-0.25-2.6-1
		c-0.15-0.15-0.35-0.35-0.5-0.35c-1.65-0.051-3.25,0-4.9,0c-0.051,0-0.051,0,0-0.051v5.451v7.699c0,1,0,2.051,0.051,3.051
		c0,0.25,0.25,0.551,0.398,0.75c0.201,0.25,0.5,0.449,0.65,0.699c0.15,0.352,0.25,0.602,0,0.951c-0.75,0.949-1.15,1.9-1.1,3.1
		c0.051,3.5,0.051,7,0,10.451c0,0.35,0.15,0.6,0.5,0.75c0.25,0.051,0.4,0.199,0.551,0.35c0.199,0.35,0.25,0.6,0.398,0.951
		l-1.049,0.398c-0.1,0-0.301-0.049-0.551-0.1c-0.949-0.4-1.949-0.449-3-0.5c-0.449,0-1-0.35-1.4-0.699
		c-0.35-0.25-0.1-0.551,0.25-0.75l0.201-0.102c0.35-0.148,0.799-0.148,1-0.398c0.148-0.201,0-0.65,0-1v-6.752
		c0-1.199,0.049-2.398,0.049-3.6c0-0.35-0.1-0.65-0.35-0.9c-0.35-0.449-0.699-0.75-1.051-1.15c-0.549-0.549-0.5-0.949,0.051-1.5
		c0.449-0.549,0.9-1.049,1.25-1.648c0.199-0.451,0.1-1,0.1-1.551v-7.4V4.434c0-0.549,0.051-1,0.1-1.65H111.858z"/>
</g>
</svg>
