<?xml version="1.0" encoding="utf-8"?>
<!-- Generator: Adobe Illustrator 14.0.0, SVG Export Plug-In . SVG Version: 6.00 Build 43363)  -->
<!DOCTYPE svg PUBLIC "-//W3C//DTD SVG 1.1//EN" "http://www.w3.org/Graphics/SVG/1.1/DTD/svg11.dtd">
<svg version="1.1" id="Layer_1" xmlns="http://www.w3.org/2000/svg" xmlns:xlink="http://www.w3.org/1999/xlink" x="0px" y="0px"
	 width="129.833px" height="37.834px" viewBox="0 0 129.833 37.834" enable-background="new 0 0 129.833 37.834"
	 xml:space="preserve">
<g>
	<path d="M4.383,29.069c0-2.25,0-4.5,0.05-6.75c0-0.45-0.05-0.851-0.5-1.101c-0.2-0.199-0.3-0.35-0.35-0.4
		c-0.75-0.949-0.6-1.449,0.35-2.049c0.4-0.25,0.45-0.5,0.45-0.951c0.05-3.199,0.1-6.1,0.1-9.301c0-1.549,0-2.949,0.05-4.5
		c0-0.449-0.05-0.6-0.6-0.649c-0.55-0.05-1.1-0.25-1.7-0.4c-0.15-0.05-0.25,0-0.3-0.149l-0.55-0.9c0.35-0.15,0.55-0.301,0.9-0.301
		h4.75c1.75,0,3.35,0.15,4.8,1.101c2.35,1.55,4.05,3.501,5.4,5.95c1.35,2.4,1.65,5,1.7,7.65c0,2.15,0.1,4.25-0.3,6.4
		c-0.4,2-0.7,4-1.25,5.951c-0.45,1.75-1.3,3.3-2.85,4.449c-0.8,0.601-1.5,1.351-2.25,2.001c-1.2,1-2.55,1.399-4.1,1.55
		c-0.15,0-0.25,0-0.3,0.051c-1.15,0.449-2.3,0.25-3.45-0.101c-0.35-0.149-0.75-0.101-1.2,0.05c-0.65,0.25-1.2,0.2-1.75-0.15
		c-0.6-0.35-0.65-0.75-0.1-1.3c0.75-0.55,1.55-0.5,2.35-0.45c0.35,0,0.55,0,0.65,0.051V29.069z M7.233,31.42v3.4
		c0.55-0.15,1.05-0.25,1.45-0.451c1.2-0.75,2-1.699,3.15-2.649c1.75-1.55,2.55-3.4,3-5.45c0.65-3,1.25-5.951,1.1-9
		c-0.05-1.751,0-3.4-0.2-5.051c-0.35-2.65-1.75-4.851-3.5-6.801c-1.2-1.4-2.55-2.35-4.5-2.2c-0.55,0.05-0.65,0.15-0.65,0.7
		l0.15,13.251c0,0.95-0.15,1.899,0.7,2.649c0.15,0.15,0.2,0.451,0.25,0.65c0.15,0.6,0,1-0.5,1.25c-0.4,0.2-0.45,0.5-0.45,0.851
		V31.42z"/>
	<path d="M22.933,24.219c0-0.85,0-1.75,0.05-2.6c0.05-0.45-0.2-0.75-0.65-0.9c-0.8-0.25-1.2-0.85-0.95-1.5
		c0.15-0.35,0.55-0.6,0.9-0.75c0.45-0.15,0.7-0.5,0.7-1.05c-0.15-2.351-0.05-4.65,0-7.001c0.05-2.15,0.05-4.3,0.2-6.449
		c0.05-0.551,0-0.851-0.65-1.001c-0.75-0.149-1.5-0.25-1.95-1c-0.15-0.149-0.15-0.399-0.1-0.649c0.05-0.101,0.25-0.25,0.6-0.4
		c0.2-0.051,0.4-0.051,0.6,0c2.6,0.75,5.25,0.35,7.851,0.4c1,0,2-0.15,3,0c0.95,0.149,1.85,0.35,2.8,0.549
		c0.4,0.15,0.6,0.801,0.4,1.251c-0.15,0.35-0.15,0.7-0.2,1.05c-0.05,0.25,0.1,0.7-0.05,0.75c-0.35,0.15-0.65,0.15-0.95,0.051
		c-0.95-0.25-1.2-0.951-1.25-1.9h-4.55c-0.55-0.051-1.15-0.051-1.75-0.051c-0.85,0-1.15,0.25-1.15,1.101
		c0.05,3.8,0.05,7.501,0.1,11.301v2.851c-0.05,0.449,0.1,0.6,0.5,0.549h2.6c0.25,0,0.4-0.1,0.5-0.25c0.15-0.5,0.45-0.649,0.85-0.5
		c0.6,0.15,0.95,0.5,1,1.051c0.05,0.35,0.05,0.6,0.05,0.949c0.05,0.551-0.15,0.75-0.7,0.701c-1.45-0.15-2.9-0.101-4.3-0.25
		c-0.45-0.051-0.5,0.149-0.5,0.5c0,2.15,0.05,4.199,0.05,6.35s-0.05,4.25-0.05,6.4c0,0.25,0.05,0.4,0.1,0.75h4.65
		c0.55,0,1,0,1.55-0.05c0.25,0,0.35-0.101,0.4-0.351c0.15-0.399,0.2-0.799,0.35-1.149c0.15-0.45,0.5-0.649,1-0.55
		c0.55,0.15,1,0.25,1.15,0.85c0,0.2-0.05,0.301-0.1,0.35c-0.55,0.551-0.4,1.15-0.25,1.751c0.15,0.55-0.05,0.851-0.65,0.851
		c-2.55,0-5.1-0.051-7.65-0.051c-1.35,0-2.6,0.1-3.95-0.05c-0.55,0-1-0.25-1.45-0.5c-0.55-0.4-0.5-0.75,0.15-1
		c0.55-0.2,1.1-0.251,1.7-0.45V24.219z"/>
	<path d="M41.133,33.97c0.5,0.55,1.05,0.95,1.65,1.2c0.7,0.35,1.25,0.15,1.6-0.65c0.3-0.6,0.5-1.199,0.6-1.8
		c0.45-2.55,0.15-5.101-0.3-7.65c0-0.2-0.1-0.351-0.1-0.55c-0.2-1.4-0.6-2.551-1.85-3.301c-0.2-0.1-0.45-0.35-0.7-0.75
		c-0.2-0.25-0.4-0.5-0.05-0.85c0.95-1.051,0.65-2.1,0.1-3.25c-0.65-1.451-1.3-2.9-1.9-4.451c-0.6-1.449-0.9-2.949-0.9-4.5
		c0-1.699,0.6-3.1,1.85-4.25c1.2-1.15,2.55-2.1,4.3-2.15c1.95-0.15,4.05,1.75,4.2,3.551c0.05,0.449,0.2,0.9,0.2,1.35
		c0,0.551,0.35,0.4,0.7,0.551c0.6,0.199,1.05,0.6,1.3,1.199c0.2,0.551,0,0.801-0.55,0.801c-0.45,0.049-0.9,0-1.3-0.15
		c-0.45-0.15-0.85-0.1-1.2,0.25c-0.6,0.65-1.9,0.199-2.45-0.4c-0.4-0.449-0.3-1.15,0.45-1.55c0.6-0.351,0.55-0.7,0.35-1.149
		c-0.4-0.951-1.05-1.701-2-2.251c-0.65-0.35-0.95-0.35-1.5,0.2c-1.05,1.15-1.35,2.4-1.2,3.801c0.15,1.949,0.85,3.75,1.6,5.5
		c0.75,1.65,1.2,3.3,2,4.95c0.2,0.45,0.6,0.851,0.95,1.25c0.25,0.351,0.5,0.55,0.7,0.8c0.25,0.5,0.25,0.95-0.1,1.4
		c-0.2,0.199-0.25,0.5-0.2,0.95c0.55,2.149,0.85,4.3,1,6.5c0.15,1.751-0.2,3.4-0.75,5.001c-0.9,2.75-5.3,4.949-8.101,2.8
		c-0.95-0.75-1.45-1.601-2-2.601c-1.05-1.85-1.65-3.85-1.7-6c0-0.15-0.2-0.35-0.35-0.5c-0.25-0.25-0.6-0.4-0.85-0.75
		c-0.15-0.15-0.15-0.4-0.1-0.7c0.1-0.149,0.3-0.25,0.65-0.3c0.25,0,0.55,0.05,0.8,0.15c0.3,0.149,0.55,0.049,0.75-0.25
		c0.55-0.75,1.25-0.9,2.2-0.351c0.65,0.351,1.05,1.101,0.7,1.851c-0.25,0.449-0.7,0.649-1.25,1.199
		C38.683,30.27,39.583,32.22,41.133,33.97z"/>
	<path d="M57.532,3.468v11.751v2.801c0,0.35,0.05,0.649,0.4,0.799c0.05,0.051,0.2,0.15,0.4,0.351c0.65,0.649,0.55,1.149-0.2,1.5
		c-0.55,0.25-0.6,0.55-0.6,1c0.05,4.4,0,8.601,0.05,13.001c0,0.2,0.2,0.45,0.35,0.6c0.25,0.351,0.6,0.5,0.8,0.851
		c0.2,0.351,0.25,0.7-0.3,0.75c-0.4,0-0.75,0.05-1.1,0c-0.85-0.149-1.7-0.2-2.55-0.351c-0.55-0.149-1.1-0.299-1.65-0.649
		c-0.35-0.25-0.25-0.7,0.2-0.851c0.35-0.149,0.65-0.149,1.2-0.3v-3.25v-8.601c0-0.75,0-1.4-0.05-2.15c0-0.199-0.2-0.4-0.35-0.55
		c-0.2-0.25-0.5-0.399-0.75-0.649c-0.45-0.5-0.4-0.851,0.15-1.051c1-0.449,1.1-1.15,1.05-2.1c-0.15-2.15-0.05-4.351-0.05-6.501
		c0-2,0-4,0.05-6.05c0-0.4-0.05-0.601-0.5-0.75l-0.05-0.051c-0.4-0.25-0.9-0.5-0.75-1.05s0.7-0.351,1.1-0.351
		c0.65-0.049,1.3-0.049,1.95-0.199c0.95-0.2,2.1,0.199,2.65,0.949c0.25,0.351,0.2,0.601-0.2,0.701L57.532,3.468z"/>
	<path d="M65.482,25.119c0.4,2.15,0.7,4.2,1.3,6.351c0.35,1.149,1.15,2.101,1.8,3.101c0.25,0.449,0.55,0.449,0.95,0
		c0.95-1,1.35-2.201,1.75-3.4c0.55-1.45,0.7-3,0.55-4.65c0-0.45-0.05-0.95-0.2-1.45c0-0.149-0.1-0.25-0.3-0.25
		c-0.55-0.149-1-0.149-1.55-0.2c0,0.65-0.2,1.2-1,1.051c-0.8-0.15-1.5-0.5-1.5-1.301c-0.05-0.35-0.1-0.65-0.25-1
		c-0.35-0.8,0.15-1.2,0.9-1.05l2,0.399c0.65,0.051,1.15,0.051,1.5-0.1c1-0.4,2-0.55,2.95,0c0.45,0.2,0.85,0.551,0.85,1.1
		c-0.05,1.951,0,3.75-0.15,5.701c-0.15,2.35-0.95,4.5-2.4,6.35c-1,1.351-2.35,1.351-3.8,0.951c-2-0.551-3.3-1.701-4.3-3.501
		c-1.45-2.55-1.8-5.251-2.2-8.05c-0.15-1.201-0.2-2.451-0.35-3.65c0-0.101-0.1-0.25-0.3-0.451c-0.25-0.25-0.6-0.35-0.75-0.699
		c-0.3-0.65-0.1-1.051,0.55-1.2c0.35-0.101,0.55-0.351,0.55-0.7c0.05-1.85,0.15-3.7,0.35-5.5c0.2-1.85,0.55-3.7,0.9-5.551
		c0.15-0.65,0.15-1.3,0.2-1.949c0.15-1.551,0.8-2.801,1.9-3.801c1-1,2.2-0.85,3.4-0.6c2.75,0.649,3.5,3.1,3.5,5.35
		c0,0.25,0.1,0.5,0.35,0.7c0.4,0.351,0.75,0.649,1.1,1.05c0.35,0.45,0.2,0.9-0.35,0.95c-0.55,0.05-1.15-0.149-1.7-0.2
		c-0.35,0-0.6-0.05-0.85,0.101c-0.75,0.35-1.7,0.35-2.3-0.2c-0.45-0.35-0.5-0.801-0.15-1.301c0.2-0.25,0.4-0.449,0.65-0.6
		c0.8-0.25,0.9-0.75,0.7-1.4c-0.35-0.799-0.5-1.6-0.85-2.399c-0.15-0.45-0.45-0.5-0.8-0.15c-0.9,0.9-1.4,1.95-1.55,3.2l-1.05,8
		c-0.2,1.551-0.15,2.9-0.3,4.451c0,0.35-0.05,0.55,0.5,0.699c0.4,0.051,1.05,0.951,1,1.351c0,0.2-0.15,0.399-0.4,0.55
		c-0.35,0.15-0.6,0.1-1.15,0.25C65.332,22.719,65.282,23.92,65.482,25.119z"/>
	<path d="M89.881,28.569v-4.25c0-1.75,0.1-3.3,0.1-5.05v-5.451c0-1.75,0.051-3.4,0.051-5.15c0.049-1.75,0.1-3.55,0.1-5.3
		c0-0.2-0.25-0.45-0.4-0.601c-0.199-0.199-0.5-0.35-0.65-0.55c-0.398-0.45-0.299-0.75,0.352-0.899c0.6-0.15,1.15-0.201,1.699-0.351
		c0.85-0.2,1.65,0,2.4,0.649c0.551,0.551,0.449,0.951-0.301,1.201l-0.449,0.1c0.051,2.4,0.1,4.801,0.15,7.15l0.1,7.15
		c0,0.35-0.051,0.7,0,1.051c0.051,0.199,0.25,0.35,0.4,0.5c0.449,0.399,1,0.799,1.4,1.199c0.199,0.2,0.199,0.45,0,0.7
		c-0.15,0.351-0.301,0.45-0.451,0.8c-0.199,0.5-0.549,0.851-1.049,1c-0.201,0.051-0.301,0.2-0.301,0.4c0,4.4,0,8.551,0.051,12.801
		c0,0.35,0.148,0.6,0.299,0.85l0.4,0.451c0.35,0.399,0.199,0.799-0.35,0.85c-0.451,0.05-0.9-0.051-1.451-0.1
		c-0.549-0.051-1.049-0.15-1.6-0.15c-0.65,0-1.25-0.1-1.801-0.65c-0.35-0.4-0.25-0.699,0.201-0.949c0.4-0.15,0.4-0.351,0.25-0.701
		c-1.051-3-2.1-5.95-3.05-8.95c-1.05-3.4-1.95-6.851-3-10.251c-0.551-1.85-1.15-3.65-1.7-5.4c-0.05-0.25-0.15-0.449-0.25-0.55
		c-0.05,0-0.101,0-0.15,0.05v3c0,2.801,0.05,5.251,0.05,8.051c0.051,2.801,0.051,5.451,0.051,8.251v5.65
		c0,0.35,0.149,0.55,0.399,0.6c0.15,0.05,0.25,0.101,0.4,0.251c0.35,0.25,0.7,0.649,0.5,1.049c-0.15,0.25-0.65,0.4-1,0.351
		c-1.15-0.25-2.3-0.2-3.451-0.05c-0.75,0.1-1.35-0.2-1.75-0.85c-0.15-0.351-0.15-0.551,0.1-0.701c0.4-0.199,0.8-0.399,1.2-0.449
		c0.35-0.051,0.5-0.25,0.5-0.601c-0.05-1.851-0.05-3.7-0.05-5.55c0-2,0.05-4,0.1-5.951c0-0.6,0-1.05-0.55-1.5
		c-0.55-0.4-0.75-1-1.2-1.55c0.55-0.55,1.1-0.851,1.5-1.399c0.2-0.25,0.3-0.701,0.3-1.051c0-2.551,0-4.95-0.05-7.4
		c0-1.95,0.05-3.85,0.05-5.801v-0.1c0.2-0.95,0.1-1.6-1.05-1.8c-0.2-0.05-0.4-0.4-0.55-0.65c-0.35-0.45-0.05-0.851,0.5-0.851
		c0.95-0.049,1.8-0.1,2.75-0.049c0.75,0,1.4,0.149,1.95,0.699c0.4,0.45,0.3,0.9-0.3,1.301c3.25,8.35,5.5,17.051,8.45,25.602
		L89.881,28.569z"/>
	<path d="M99.03,24.219c0-0.85,0-1.75,0.049-2.6c0.051-0.45-0.199-0.75-0.648-0.9c-0.801-0.25-1.201-0.85-0.951-1.5
		c0.15-0.35,0.551-0.6,0.9-0.75c0.449-0.15,0.699-0.5,0.699-1.05c-0.148-2.351-0.049-4.65,0-7.001c0.051-2.15,0.051-4.3,0.201-6.449
		c0.049-0.551,0-0.851-0.65-1.001c-0.75-0.149-1.5-0.25-1.949-1c-0.15-0.149-0.15-0.399-0.102-0.649
		c0.051-0.101,0.25-0.25,0.602-0.4c0.199-0.051,0.398-0.051,0.6,0c2.6,0.75,5.25,0.35,7.849,0.4c1,0,2-0.15,3,0
		c0.951,0.149,1.852,0.35,2.801,0.549c0.4,0.15,0.6,0.801,0.4,1.251c-0.15,0.35-0.15,0.7-0.201,1.05
		c-0.049,0.25,0.102,0.7-0.049,0.75c-0.35,0.15-0.65,0.15-0.951,0.051c-0.949-0.25-1.199-0.951-1.25-1.9h-4.549
		c-0.551-0.051-1.15-0.051-1.75-0.051c-0.852,0-1.15,0.25-1.15,1.101c0.049,3.8,0.049,7.501,0.1,11.301v2.851
		c-0.051,0.449,0.1,0.6,0.5,0.549h2.6c0.25,0,0.4-0.1,0.5-0.25c0.15-0.5,0.451-0.649,0.85-0.5c0.602,0.15,0.951,0.5,1,1.051
		c0.051,0.35,0.051,0.6,0.051,0.949c0.051,0.551-0.15,0.75-0.699,0.701c-1.451-0.15-2.9-0.101-4.301-0.25
		c-0.449-0.051-0.5,0.149-0.5,0.5c0,2.15,0.051,4.199,0.051,6.35s-0.051,4.25-0.051,6.4c0,0.25,0.051,0.4,0.1,0.75h4.65
		c0.551,0,1,0,1.551-0.05c0.25,0,0.35-0.101,0.4-0.351c0.148-0.399,0.199-0.799,0.35-1.149c0.15-0.45,0.5-0.649,1-0.55
		c0.549,0.15,1,0.25,1.15,0.85c0,0.2-0.051,0.301-0.102,0.35c-0.549,0.551-0.398,1.15-0.25,1.751c0.15,0.55-0.049,0.851-0.648,0.851
		c-2.551,0-5.102-0.051-7.65-0.051c-1.352,0-2.601,0.1-3.951-0.05c-0.551,0-1-0.25-1.449-0.5c-0.551-0.4-0.5-0.75,0.148-1
		c0.551-0.2,1.102-0.251,1.701-0.45V24.219z"/>
	<path d="M113.979,21.119c0.301-0.15,0.451-0.35,0.451-0.6c0-1.351,0.049-2.551,0.049-3.9v-5.701v-6.8V3.969
		c0.201-0.751-0.049-1.051-0.801-1.251c-0.35-0.149-0.648-0.399-0.898-0.75c-0.201-0.351,0-0.8,0.449-0.8
		c1.451-0.15,2.85,0,4.301-0.15c1.35-0.15,2.6,0.301,3.801,0.85c1.25,0.601,2.398,1.201,3.35,2.352c1.35,1.75,2.15,3.75,2,6
		c-0.15,1.8-0.201,3.65-0.4,5.45c-0.25,2.601-1.15,4.899-3.301,6.55c-0.35,0.25-0.299,0.4-0.148,0.75l2.199,7.251
		c0.4,1.351,0.9,2.649,1.301,4c0.199,0.75,0.449,1.15,1.199,1.3c0.15,0,0.1,0.101,0.25,0.15c0.551,0.35,0.9,1.15,0.65,1.301
		c-0.4,0.25-0.85,0.299-1.301,0.25c-0.85-0.15-1.5-0.201-1.949-0.051c-0.65,0.2-1.25,0-1.9-0.55c-0.449-0.45-0.449-0.7,0.1-1.05
		c0.25-0.15,0.35-0.4,0.25-0.7c-0.549-1.601-1-3.2-1.549-4.751c-0.75-2.15-1.25-4.15-1.852-6.3c-0.1-0.351-0.299-0.5-0.6-0.5
		c-0.6,0.05-1.15,0-1.75,0.05c-0.15,0-0.301,0.301-0.301,0.45v4.4v6.5c0,0.55,0,0.851,0.551,1.05c0.65,0.25,1.1,1,0.949,1.4
		c-0.148,0.35-0.898,0.45-1.549,0.301c-0.25-0.15-0.551-0.15-0.801-0.301c-0.65-0.3-1.299-0.4-1.949-0.3
		c-0.852,0.101-1.5-0.101-1.951-0.601c-0.25-0.449-0.199-0.75,0.15-0.899c0.301-0.15,0.65-0.25,1-0.3
		c0.35-0.15,0.451-0.15,0.451-0.551v-4.05c0-2.05,0.049-4.101,0.049-6.251c0-0.449,0-0.85-0.551-1.199
		c-0.449-0.2-0.648-0.601-1.199-1.15C113.279,21.52,113.629,21.27,113.979,21.119z M117.529,12.418h0.049v8.4
		c0,0.451,0.051,0.551,0.602,0.551c1.35,0.05,2.199-0.7,3-1.65c1.049-1.25,1.549-2.8,1.799-4.4c0.352-2.25,0.65-4.55,0.451-6.9
		c-0.201-2.6-1.4-4.55-3.951-5.5c-0.6-0.2-1.299-0.1-1.9-0.1c-0.049,0.449-0.049,0.85-0.049,1.3V12.418z"/>
</g>
</svg>
