<?xml version="1.0" encoding="utf-8"?>
<!-- Generator: Adobe Illustrator 14.0.0, SVG Export Plug-In . SVG Version: 6.00 Build 43363)  -->
<!DOCTYPE svg PUBLIC "-//W3C//DTD SVG 1.1//EN" "http://www.w3.org/Graphics/SVG/1.1/DTD/svg11.dtd">
<svg version="1.1" id="Layer_1" xmlns="http://www.w3.org/2000/svg" xmlns:xlink="http://www.w3.org/1999/xlink" x="0px" y="0px"
	 width="157.167px" height="38.667px" viewBox="0 0 157.167 38.667" enable-background="new 0 0 157.167 38.667"
	 xml:space="preserve">
<g>
	<path d="M4.493,29.198c0-2.25,0-4.5,0.05-6.75c0-0.45-0.05-0.851-0.5-1.101c-0.2-0.199-0.3-0.35-0.35-0.4
		c-0.75-0.949-0.6-1.449,0.35-2.049c0.4-0.25,0.45-0.5,0.45-0.951c0.05-3.199,0.1-6.1,0.1-9.301c0-1.549,0-2.949,0.05-4.5
		c0-0.449-0.05-0.6-0.6-0.649c-0.55-0.05-1.1-0.25-1.7-0.4c-0.15-0.05-0.25,0-0.3-0.149l-0.55-0.9c0.35-0.15,0.55-0.301,0.9-0.301
		h4.75c1.75,0,3.35,0.15,4.8,1.101c2.35,1.55,4.05,3.501,5.4,5.95c1.35,2.4,1.65,5,1.7,7.65c0,2.15,0.1,4.25-0.3,6.4
		c-0.4,2-0.7,4-1.25,5.951c-0.45,1.75-1.3,3.3-2.85,4.449c-0.8,0.601-1.5,1.351-2.25,2.001c-1.2,1-2.55,1.399-4.1,1.55
		c-0.15,0-0.25,0-0.3,0.051c-1.15,0.449-2.3,0.25-3.45-0.101c-0.35-0.149-0.75-0.101-1.2,0.05c-0.65,0.25-1.2,0.2-1.75-0.15
		c-0.6-0.35-0.65-0.75-0.1-1.3c0.75-0.55,1.55-0.5,2.35-0.45c0.35,0,0.55,0,0.65,0.051V29.198z M7.343,31.549v3.4
		c0.55-0.15,1.05-0.25,1.45-0.451c1.2-0.75,2-1.699,3.15-2.649c1.75-1.55,2.55-3.4,3-5.45c0.65-3,1.25-5.951,1.1-9
		c-0.05-1.751,0-3.4-0.2-5.051c-0.35-2.65-1.75-4.851-3.5-6.801c-1.2-1.4-2.55-2.35-4.5-2.2c-0.55,0.05-0.65,0.15-0.65,0.7
		l0.15,13.251c0,0.95-0.15,1.899,0.7,2.649c0.15,0.15,0.2,0.451,0.25,0.65c0.15,0.6,0,1-0.5,1.25c-0.4,0.2-0.45,0.5-0.45,0.851
		V31.549z"/>
	<path d="M23.042,24.348c0-0.85,0-1.75,0.05-2.6c0.05-0.45-0.2-0.75-0.65-0.9c-0.8-0.25-1.2-0.85-0.95-1.5
		c0.15-0.35,0.55-0.6,0.9-0.75c0.45-0.15,0.7-0.5,0.7-1.05c-0.15-2.351-0.05-4.65,0-7.001c0.05-2.15,0.05-4.3,0.2-6.449
		c0.05-0.551,0-0.851-0.65-1.001c-0.75-0.149-1.5-0.25-1.95-1c-0.15-0.149-0.15-0.399-0.1-0.649c0.05-0.101,0.25-0.25,0.6-0.4
		c0.2-0.051,0.4-0.051,0.6,0c2.6,0.75,5.25,0.35,7.851,0.4c1,0,2-0.15,3,0c0.95,0.149,1.85,0.35,2.8,0.549
		c0.4,0.15,0.6,0.801,0.4,1.251c-0.15,0.35-0.15,0.7-0.2,1.05c-0.05,0.25,0.1,0.7-0.05,0.75c-0.35,0.15-0.65,0.15-0.95,0.051
		c-0.95-0.25-1.2-0.951-1.25-1.9h-4.55c-0.55-0.051-1.15-0.051-1.75-0.051c-0.85,0-1.15,0.25-1.15,1.101
		c0.05,3.8,0.05,7.501,0.1,11.301v2.851c-0.05,0.449,0.1,0.6,0.5,0.549h2.6c0.25,0,0.4-0.1,0.5-0.25c0.15-0.5,0.45-0.649,0.85-0.5
		c0.6,0.15,0.95,0.5,1,1.051c0.05,0.35,0.05,0.6,0.05,0.949c0.05,0.551-0.15,0.75-0.7,0.701c-1.45-0.15-2.9-0.101-4.3-0.25
		c-0.45-0.051-0.5,0.149-0.5,0.5c0,2.15,0.05,4.199,0.05,6.35s-0.05,4.25-0.05,6.4c0,0.25,0.05,0.4,0.1,0.75h4.65
		c0.55,0,1,0,1.55-0.05c0.25,0,0.35-0.101,0.4-0.351c0.15-0.399,0.2-0.799,0.35-1.149c0.15-0.45,0.5-0.649,1-0.55
		c0.55,0.15,1,0.25,1.15,0.85c0,0.2-0.05,0.301-0.1,0.35c-0.55,0.551-0.4,1.15-0.25,1.751c0.15,0.55-0.05,0.851-0.65,0.851
		c-2.55,0-5.1-0.051-7.65-0.051c-1.35,0-2.6,0.1-3.95-0.05c-0.55,0-1-0.25-1.45-0.5c-0.55-0.4-0.5-0.75,0.15-1
		c0.55-0.2,1.1-0.251,1.7-0.45V24.348z"/>
	<path d="M50.393,35.499c0.45,0.35,1,0.55,1.35,0.95c0.55,0.55,0.3,0.9-0.35,1.05c-0.35,0.05-0.65,0.101-1-0.05
		c-1-0.45-2.05-0.051-3.05-0.2c-0.55-0.05-1-0.101-1.55-0.3c-0.2-0.15-0.4-0.4-0.55-0.75c-0.05-0.15,0.3-0.351,0.5-0.5
		c0.15-0.15,0.3-0.101,0.45-0.15c0.35,0,0.45-0.15,0.3-0.5c-0.8-3-1.65-5.7-2.4-8.701c-1-4.199-1.85-8.15-2.85-12.35
		c-0.55-2.15-0.8-4.251-1.35-6.4c-0.35-1.25-0.55-2.5-0.9-3.701c0-0.199-0.25-0.3-0.45-0.449c-0.65-0.2-1.35-0.301-1.75-0.951
		c-0.25-0.549-0.15-0.799,0.25-0.799c1,0.049,1.85-0.5,2.8-0.451c0.75,0,1.55,0.101,2,0.9c0.2,0.35,0.15,0.601-0.1,0.75
		c-0.25,0.15-0.35,0.45-0.25,0.801c0.55,1.75,1,3.449,1.4,5.199c0.55,2.15,0.8,4.352,1.35,6.551c0.95,3.801,1.5,7.65,2.75,11.4
		l0.15,0.451h0.15c0.35-1.25,0.45-2.451,0.8-3.701l2.3-10.2c0.4-1.75,0.75-3.55,1.3-5.3l1.05-3.851c0.15-0.4,0-0.55-0.4-0.75
		c-0.45-0.25-0.85-0.5-1.15-0.8c-0.15-0.15-0.2-0.351-0.15-0.551c0.15-0.15,0.35-0.25,0.6-0.25c0.35,0,0.75,0.1,1.1,0.15
		c0.4,0,0.8,0,1.15-0.15c0.95-0.4,2.3-0.1,2.9,0.65c0.25,0.25,0.2,0.5-0.1,0.75l-0.65,0.4c-0.2,0.149-0.45,0.35-0.5,0.55l-2.5,11.2
		c-0.75,3.25-1.25,6.551-2,9.801c-0.35,1.35-0.55,2.65-0.8,4c-0.25,1.601-0.4,3.201-0.65,4.851c-0.05,0.351-0.1,0.65-0.25,1.05
		C49.693,35.299,50.043,35.349,50.393,35.499z"/>
	<path d="M60.592,24.348c0-0.85,0-1.75,0.05-2.6c0.05-0.45-0.2-0.75-0.65-0.9c-0.8-0.25-1.2-0.85-0.95-1.5
		c0.15-0.35,0.55-0.6,0.9-0.75c0.45-0.15,0.7-0.5,0.7-1.05c-0.15-2.351-0.05-4.65,0-7.001c0.05-2.15,0.05-4.3,0.2-6.449
		c0.05-0.551,0-0.851-0.65-1.001c-0.75-0.149-1.5-0.25-1.95-1c-0.15-0.149-0.15-0.399-0.1-0.649c0.05-0.101,0.25-0.25,0.6-0.4
		c0.2-0.051,0.4-0.051,0.6,0c2.6,0.75,5.25,0.35,7.851,0.4c1,0,2-0.15,3,0c0.95,0.149,1.85,0.35,2.8,0.549
		c0.4,0.15,0.6,0.801,0.4,1.251c-0.15,0.35-0.15,0.7-0.2,1.05c-0.05,0.25,0.1,0.7-0.05,0.75c-0.35,0.15-0.65,0.15-0.95,0.051
		c-0.95-0.25-1.2-0.951-1.25-1.9h-4.55c-0.55-0.051-1.15-0.051-1.75-0.051c-0.85,0-1.15,0.25-1.15,1.101
		c0.05,3.8,0.05,7.501,0.1,11.301v2.851c-0.05,0.449,0.1,0.6,0.5,0.549h2.6c0.25,0,0.4-0.1,0.5-0.25c0.15-0.5,0.45-0.649,0.85-0.5
		c0.6,0.15,0.95,0.5,1,1.051c0.05,0.35,0.05,0.6,0.05,0.949c0.05,0.551-0.15,0.75-0.7,0.701c-1.45-0.15-2.9-0.101-4.3-0.25
		c-0.45-0.051-0.5,0.149-0.5,0.5c0,2.15,0.05,4.199,0.05,6.35s-0.05,4.25-0.05,6.4c0,0.25,0.05,0.4,0.1,0.75h4.65
		c0.55,0,1,0,1.55-0.05c0.25,0,0.35-0.101,0.4-0.351c0.15-0.399,0.2-0.799,0.35-1.149c0.15-0.45,0.5-0.649,1-0.55
		c0.55,0.15,1,0.25,1.15,0.85c0,0.2-0.05,0.301-0.1,0.35c-0.55,0.551-0.4,1.15-0.25,1.751c0.15,0.55-0.05,0.851-0.65,0.851
		c-2.55,0-5.1-0.051-7.65-0.051c-1.35,0-2.6,0.1-3.95-0.05c-0.55,0-1-0.25-1.45-0.5c-0.55-0.4-0.5-0.75,0.15-1
		c0.55-0.2,1.1-0.251,1.7-0.45V24.348z"/>
	<path d="M79.992,34.949h8.3c0.2-0.65,0.45-1.15,0.7-1.601c0.15-0.25,0.35-0.399,0.6-0.399c0.55,0.049,1.05,0.199,1.45,0.35
		c0.45,0.15,0.65,0.5,0.55,1.05c-0.1,0.601,0.05,1.25,0.4,1.9c0.3,0.45,0.2,0.7-0.3,0.8c-0.45,0.15-0.8,0.15-1.05,0
		c-0.95-0.4-1.85-0.25-2.8-0.25c-2.85-0.05-5.65,0-8.5-0.05c-1.2-0.05-2.35-0.45-3.6-0.05c-0.35,0.15-0.85-0.2-1.25-0.4
		c-0.4-0.25-0.45-0.85,0.1-1.2c0.65-0.35,1.3-0.45,2.05-0.8v-4.65v-7.9v-9.65c0-2.801,0.1-5.65,0.1-8.451c0-0.1-0.1-0.25-0.3-0.449
		c-0.35-0.25-0.65-0.4-0.9-0.65c-0.35-0.35-0.2-0.75,0.25-0.801c1.2-0.149,2.4-0.35,3.601-0.399c0.75,0,1.4,0.3,1.9,0.899
		c0.15,0.301,0.1,0.551-0.15,0.751c-0.15,0.05-0.3,0.149-0.45,0.149c-0.75,0.051-0.8,0.45-0.8,1.201l0.1,11.95
		c0.05,3,0.05,6,0.05,9.001c0,3-0.05,6-0.05,9V34.949z"/>
	<path d="M91.542,21.398c0-0.4-0.2-0.75-0.55-1c-0.45-0.351-0.8-0.75-1.15-1.15c-0.05-0.15-0.05-0.301,0-0.35
		c0.35-0.551,0.65-1.15,1.4-1.351c0.25-0.05,0.4-0.2,0.4-0.45c0.2-1.65,0.25-3.35,0.45-5c0.35-2.551,0.5-5.051,1.45-7.451
		c0.8-2.05,2.25-3.65,5.3-3.6c2.951,0,4.851,1.449,5.751,4.4c0.549,2,0.898,4.1,0.949,6.301c0.051,1.949,0,3.8,0.15,5.65
		c0,0.25,0.25,0.6,0.449,0.799c1,0.851,1,1.25,0.35,2c-0.25,0.351-0.549,0.5-0.75,0.851c-0.148,0.149-0.199,0.351-0.199,0.601
		c-0.15,3.5-0.551,7-1.199,10.45c-0.25,1.2-0.451,2.45-1.4,3.4c-1.852,1.95-4,1.899-6.351,0.851c-2.15-0.951-3.15-2.751-3.9-4.751
		c-1-2.65-1.15-5.4-1.15-8.2V21.398z M94.792,27.248c0.149,2.351,0.649,4.551,1.9,6.5c0.35,0.551,0.8,0.9,1.35,1.301
		c0.2,0.2,0.4,0.25,0.65,0.1c0.95-0.449,1.8-1.05,2.05-2.1c0.4-1.801,0.9-3.65,1.099-5.451c0.352-3.199,0.602-6.199,0.75-9.25
		c0.15-2-0.049-4.051-0.1-6.051c0-1.949-0.15-3.9-0.549-5.85c-0.201-1.15-0.602-2.301-1.351-3.25c-0.35-0.45-0.85-0.65-1.5-0.5
		c-0.95,0.25-1.399,0.899-1.95,1.699c-1,1.551-1.2,3.15-1.45,4.801c-0.35,2.35-0.6,4.6-0.8,6.95c-0.149,1.751-0.25,3.45-0.3,5.501
		C94.592,23.299,94.642,25.299,94.792,27.248z"/>
	<path d="M113.691,26.698c0,2.15-0.049,4.3-0.049,6.45c0,0.801,0,1.601,0.049,2.4c0.051,0.15,0.201,0.3,0.352,0.45
		c0.049,0.05,0.25,0.05,0.299,0.101c0.35,0.35,0.951,0.649,0.701,1.199c-0.15,0.25-0.801,0.35-1.201,0.35
		c-0.9,0-1.801-0.049-2.699-0.149c-0.602,0-1.201-0.101-1.602-0.649c-0.398-0.551-0.398-0.75,0.201-0.9
		c0.85-0.2,0.85-0.7,0.85-1.451v-6.699c0-1.451-0.051-2.9,0-4.451c0.051-0.8-0.25-1.199-0.801-1.75l-0.449-0.5
		c-0.35-0.55-0.199-0.9,0.449-1.05c0.852-0.2,0.801-0.2,0.801-1.05c0-2.2,0.051-4.4,0.051-6.601v-6.7V3.896
		c0.049-0.35-0.102-0.55-0.451-0.649c-0.449-0.15-0.799-0.351-1.15-0.601c-0.398-0.4-0.299-0.8,0.25-0.949
		c3.65-0.801,7.301-0.801,10.752,1c2.549,1.35,3.85,3.449,4.199,6.25c0.25,2.15,0.25,4.2-0.199,6.35
		c-0.6,2.852-2.201,4.801-4.801,5.951c-1.75,0.75-3.5,1.25-5.551,0.9V26.698z M113.541,3.497l0.15,11.601c0,1.55,0.051,3.15,0,4.75
		c0,0.45,0.201,0.6,0.551,0.45c1-0.351,2.051-0.601,3-1c2.051-0.95,3.1-2.7,3.551-4.851c0.449-2.05,0.449-4.1,0.299-6.1
		c-0.148-1.601-0.699-3-1.949-4c-1.6-1.351-3.451-1.551-5.602-1.301V3.497z"/>
	<path d="M126.592,24.348c0-0.85,0-1.75,0.049-2.6c0.051-0.45-0.199-0.75-0.648-0.9c-0.801-0.25-1.201-0.85-0.951-1.5
		c0.15-0.35,0.551-0.6,0.9-0.75c0.449-0.15,0.699-0.5,0.699-1.05c-0.148-2.351-0.049-4.65,0-7.001c0.051-2.15,0.051-4.3,0.201-6.449
		c0.049-0.551,0-0.851-0.65-1.001c-0.75-0.149-1.5-0.25-1.949-1c-0.15-0.149-0.15-0.399-0.102-0.649
		c0.051-0.101,0.25-0.25,0.602-0.4c0.199-0.051,0.398-0.051,0.6,0c2.6,0.75,5.25,0.35,7.85,0.4c1,0,2-0.15,3,0
		c0.951,0.149,1.852,0.35,2.801,0.549c0.4,0.15,0.6,0.801,0.4,1.251c-0.15,0.35-0.15,0.7-0.201,1.05
		c-0.049,0.25,0.102,0.7-0.049,0.75c-0.35,0.15-0.65,0.15-0.951,0.051c-0.949-0.25-1.199-0.951-1.25-1.9h-4.549
		c-0.551-0.051-1.15-0.051-1.75-0.051c-0.852,0-1.15,0.25-1.15,1.101c0.049,3.8,0.049,7.501,0.1,11.301v2.851
		c-0.051,0.449,0.1,0.6,0.5,0.549h2.6c0.25,0,0.4-0.1,0.5-0.25c0.15-0.5,0.451-0.649,0.85-0.5c0.602,0.15,0.951,0.5,1,1.051
		c0.051,0.35,0.051,0.6,0.051,0.949c0.051,0.551-0.15,0.75-0.699,0.701c-1.451-0.15-2.9-0.101-4.301-0.25
		c-0.449-0.051-0.5,0.149-0.5,0.5c0,2.15,0.051,4.199,0.051,6.35s-0.051,4.25-0.051,6.4c0,0.25,0.051,0.4,0.1,0.75h4.65
		c0.551,0,1,0,1.551-0.05c0.25,0,0.35-0.101,0.4-0.351c0.148-0.399,0.199-0.799,0.35-1.149c0.15-0.45,0.5-0.649,1-0.55
		c0.549,0.15,1,0.25,1.15,0.85c0,0.2-0.051,0.301-0.102,0.35c-0.549,0.551-0.398,1.15-0.25,1.751c0.15,0.55-0.049,0.851-0.648,0.851
		c-2.551,0-5.102-0.051-7.65-0.051c-1.352,0-2.602,0.1-3.951-0.05c-0.551,0-1-0.25-1.449-0.5c-0.551-0.4-0.5-0.75,0.148-1
		c0.551-0.2,1.102-0.251,1.701-0.45V24.348z"/>
	<path d="M141.541,21.248c0.301-0.15,0.451-0.35,0.451-0.6c0-1.351,0.049-2.551,0.049-3.9v-5.701v-6.8V4.098
		c0.201-0.751-0.049-1.051-0.801-1.251c-0.35-0.149-0.648-0.399-0.898-0.75c-0.201-0.351,0-0.8,0.449-0.8
		c1.451-0.15,2.85,0,4.301-0.15c1.35-0.15,2.6,0.301,3.801,0.85c1.25,0.601,2.398,1.201,3.35,2.352c1.35,1.75,2.15,3.75,2,6
		c-0.15,1.8-0.201,3.65-0.4,5.45c-0.25,2.601-1.15,4.899-3.301,6.55c-0.35,0.25-0.299,0.4-0.148,0.75l2.199,7.251
		c0.4,1.351,0.9,2.649,1.301,4c0.199,0.75,0.449,1.15,1.199,1.3c0.15,0,0.1,0.101,0.25,0.15c0.551,0.35,0.9,1.15,0.65,1.301
		c-0.4,0.25-0.85,0.299-1.301,0.25c-0.85-0.15-1.5-0.201-1.949-0.051c-0.65,0.2-1.25,0-1.9-0.55c-0.449-0.45-0.449-0.7,0.1-1.05
		c0.25-0.15,0.35-0.4,0.25-0.7c-0.549-1.601-1-3.2-1.549-4.751c-0.75-2.15-1.25-4.15-1.852-6.3c-0.1-0.351-0.299-0.5-0.6-0.5
		c-0.6,0.05-1.15,0-1.75,0.05c-0.15,0-0.301,0.301-0.301,0.45v4.4v6.5c0,0.55,0,0.851,0.551,1.05c0.65,0.25,1.1,1,0.949,1.4
		c-0.148,0.35-0.898,0.45-1.549,0.301c-0.25-0.15-0.551-0.15-0.801-0.301c-0.65-0.3-1.299-0.4-1.949-0.3
		c-0.852,0.101-1.5-0.101-1.951-0.601c-0.25-0.449-0.199-0.75,0.15-0.899c0.301-0.15,0.65-0.25,1-0.3
		c0.35-0.15,0.451-0.15,0.451-0.551v-4.05c0-2.05,0.049-4.101,0.049-6.251c0-0.449,0-0.85-0.551-1.199
		c-0.449-0.2-0.648-0.601-1.199-1.15C140.842,21.648,141.191,21.398,141.541,21.248z M145.092,12.547h0.049v8.4
		c0,0.451,0.051,0.551,0.602,0.551c1.35,0.05,2.199-0.7,3-1.65c1.049-1.25,1.549-2.8,1.799-4.4c0.352-2.25,0.65-4.55,0.451-6.9
		c-0.201-2.6-1.4-4.55-3.951-5.5c-0.6-0.2-1.299-0.1-1.9-0.1c-0.049,0.449-0.049,0.85-0.049,1.3V12.547z"/>
</g>
</svg>
