<?xml version="1.0" encoding="utf-8"?>
<!-- Generator: Adobe Illustrator 14.0.0, SVG Export Plug-In . SVG Version: 6.00 Build 43363)  -->
<!DOCTYPE svg PUBLIC "-//W3C//DTD SVG 1.1//EN" "http://www.w3.org/Graphics/SVG/1.1/DTD/svg11.dtd">
<svg version="1.1" id="Layer_1" xmlns="http://www.w3.org/2000/svg" xmlns:xlink="http://www.w3.org/1999/xlink" x="0px" y="0px"
	 width="245.5px" height="44.5px" viewBox="0 315.5 245.5 44.5" enable-background="new 0 315.5 245.5 44.5" xml:space="preserve">
<g>
	<g>
		<path d="M48.899,346.9c0.241,1.332,0.431,2.609,0.792,3.957c0.223,0.711,0.707,1.312,1.102,1.949
			c0.15,0.27,0.333,0.27,0.576-0.016c0.571-0.66,0.812-1.457,1.052-2.248c0.328-0.977,0.416-2.004,0.315-3.076
			c0-0.301-0.03-0.627-0.125-0.941c0-0.1-0.06-0.166-0.18-0.149c-0.336-0.062-0.604-0.035-0.937-0.041
			c0.005,0.426-0.12,0.787-0.601,0.731c-0.486-0.055-0.904-0.235-0.904-0.742c-0.035-0.225-0.065-0.405-0.158-0.621
			c-0.21-0.489,0.093-0.78,0.539-0.735c0.406,0.035,0.807,0.076,1.21,0.125c0.391-0.01,0.694-0.045,0.907-0.16
			c0.601-0.329,1.205-0.5,1.778-0.194c0.278,0.1,0.516,0.315,0.516,0.688c-0.018,1.316,0.015,2.52-0.067,3.836
			c-0.08,1.584-0.556,3.035-1.43,4.273c-0.601,0.906-1.423,0.902-2.302,0.646c-1.22-0.346-2.006-1.062-2.615-2.159
			c-0.884-1.566-1.095-3.205-1.338-4.908c-0.087-0.728-0.118-1.498-0.213-2.219c0-0.058-0.06-0.15-0.18-0.263
			c-0.145-0.125-0.36-0.153-0.451-0.358c-0.18-0.367-0.055-0.627,0.333-0.781c0.208-0.086,0.328-0.256,0.328-0.473
			c0.03-1.142,0.09-2.289,0.208-3.416c0.118-1.162,0.328-2.345,0.536-3.535c0.09-0.422,0.09-0.832,0.118-1.242
			c0.085-0.979,0.473-1.859,1.127-2.666c0.596-0.791,1.312-0.9,2.029-0.926c1.643-0.031,2.104,1.477,2.109,2.965
			c0,0.16,0.065,0.315,0.215,0.416c0.24,0.18,0.451,0.33,0.661,0.551c0.21,0.256,0.13,0.576-0.21,0.682
			c-0.326,0.096-0.688,0.035-1.014,0.07c-0.213,0.045-0.361,0.039-0.514,0.18c-0.451,0.316-1.022,0.42-1.375,0.15
			c-0.275-0.16-0.303-0.445-0.098-0.812c0.12-0.189,0.243-0.34,0.391-0.479c0.479-0.261,0.536-0.601,0.421-0.996
			c-0.22-0.468-0.308-0.964-0.521-1.423c-0.09-0.271-0.275-0.262-0.481,0.023c-0.531,0.713-0.832,1.453-0.917,2.266
			c-0.203,1.748-0.411,3.466-0.616,5.189c-0.12,0.986-0.09,1.832-0.175,2.814c0,0.225-0.025,0.352,0.303,0.406
			c0.24,0,0.631,0.51,0.604,0.771c0,0.114-0.09,0.26-0.238,0.375c-0.208,0.121-0.363,0.11-0.694,0.246
			C48.804,345.398,48.774,346.16,48.899,346.9z"/>
		<path d="M56.039,343.529c0.18-0.109,0.271-0.26,0.271-0.437c-0.005-0.916,0.015-1.737,0.01-2.664
			c-0.008-1.299-0.015-2.586-0.025-3.883c-0.005-1.549-0.02-3.103-0.03-4.64c0-0.034,0-0.063,0-0.096
			c0.115-0.545-0.035-0.711-0.486-0.74c-0.21-0.051-0.396-0.182-0.546-0.381c-0.12-0.201,0-0.537,0.271-0.602
			c0.867-0.33,1.708-0.432,2.575-0.742c0.812-0.301,1.565-0.16,2.285,0.057c0.756,0.254,1.458,0.535,2.036,1.252
			c0.821,1.093,1.32,2.476,1.245,4.123c-0.08,1.336-0.1,2.674-0.208,4.002c-0.132,1.908-0.664,3.646-1.954,4.949
			c-0.213,0.205-0.178,0.305-0.087,0.545c0.461,1.689,0.917,3.396,1.377,5.119c0.25,0.963,0.561,1.904,0.816,2.871
			c0.125,0.557,0.281,0.826,0.736,0.938c0.09,0,0.06,0.074,0.15,0.109c0.338,0.256,0.556,0.842,0.403,0.957
			c-0.238,0.18-0.514,0.221-0.789,0.186c-0.511-0.11-0.912-0.146-1.18-0.034c-0.396,0.142-0.756,0.004-1.157-0.396
			c-0.273-0.314-0.278-0.49,0.053-0.757c0.15-0.104,0.21-0.271,0.146-0.489c-0.346-1.144-0.621-2.275-0.964-3.367
			c-0.468-1.512-0.784-2.904-1.16-4.389c-0.065-0.234-0.183-0.324-0.363-0.314c-0.363,0.061-0.699,0.061-1.06,0.129
			c-0.09,0.012-0.178,0.221-0.178,0.332c0.005,1.016,0.013,2.039,0.022,3.061c0.01,1.502,0.02,3.006,0.035,4.514
			c0.002,0.375,0.002,0.587,0.341,0.716c0.391,0.176,0.668,0.696,0.581,0.981c-0.09,0.24-0.543,0.312-0.939,0.205
			c-0.153-0.104-0.333-0.104-0.488-0.199c-0.391-0.211-0.787-0.28-1.182-0.207c-0.516,0.076-0.907-0.067-1.19-0.395
			c-0.153-0.301-0.118-0.506,0.093-0.611c0.18-0.108,0.396-0.18,0.604-0.211c0.21-0.108,0.273-0.108,0.273-0.385
			c-0.005-0.922-0.012-1.844-0.02-2.76c-0.01-1.398,0.01-2.797,0.003-4.264c-0.003-0.301-0.008-0.576-0.338-0.787
			c-0.275-0.1-0.398-0.365-0.729-0.705C55.618,343.85,55.833,343.664,56.039,343.529z M58.134,337.258c0.013,0,0.021,0,0.03,0
			c0.018,1.939,0.03,3.877,0.042,5.826c0,0.314,0.033,0.381,0.371,0.346c0.812-0.051,1.323-0.637,1.804-1.363
			c0.626-0.957,0.914-2.098,1.057-3.266c0.195-1.633,0.366-3.32,0.23-4.984c-0.135-1.844-0.869-3.096-2.412-3.416
			c-0.358-0.061-0.784,0.105-1.139,0.189c-0.03,0.316-0.025,0.598-0.02,0.912C58.103,333.416,58.123,335.334,58.134,337.258z"/>
		<path d="M77.02,354.055c-0.581-0.396-1.157-0.311-1.731,0.205c-0.571,0.5-1.182,0.275-1.553-0.512
			c0.235-0.545,0.596-0.902,1.082-1.066c0.331-0.115,0.3-0.32,0.203-0.586c-0.248-0.912-0.503-1.773-0.719-2.67
			c-0.351-1.367-0.641-2.721-0.987-4.068c-0.25-1.021-0.501-2.039-0.759-3.061c-0.035-0.154-0.12-0.225-0.215-0.215
			c-0.819-0.051-1.605,0.02-2.457-0.016c-0.078,0.741-0.166,1.481-0.246,2.229c-0.22,2.535-0.441,5.055-0.656,7.561
			c-0.085,0.721-0.055,0.756,0.528,1.017c0.363,0.182,0.702,0.446,1.04,0.723c0.115,0.109,0.085,0.375,0.186,0.562
			c-0.155,0.119-0.306,0.199-0.456,0.199c-0.268-0.039-0.541-0.115-0.792-0.23c-0.731-0.41-1.397-0.545-2.121,0.012
			c-0.454,0.346-0.849,0.16-1.215-0.176c-0.246-0.291-0.25-0.551,0.025-0.781c0.235-0.256,0.539-0.412,0.807-0.566
			c0.183-0.08,0.275-0.229,0.273-0.416c0.198-1.647,0.273-3.307,0.466-4.969c0.083-1.018,0.163-1.969,0.243-2.996
			c0-0.406,0.055-0.727,0.083-1.057c0-0.121-0.062-0.266-0.186-0.406c-0.092-0.135-0.248-0.209-0.333-0.34
			c-0.403-0.561-0.283-0.941,0.286-1.197c0.275-0.141,0.426-0.41,0.451-0.768c0.175-3.625,0.626-7.172,1.072-10.914
			c0.027-0.275,0.055-0.551,0.025-0.807c0-0.115-0.155-0.166-0.25-0.26c-0.246-0.228-0.548-0.353-0.787-0.572
			c-0.095-0.1-0.155-0.391-0.07-0.516c0.09-0.136,0.24-0.234,0.451-0.281c0.155-0.033,0.366,0,0.606,0.07
			c0.311,0.137,0.636,0.065,1.002-0.189c0.448-0.396,1.142-0.34,1.485,0.1c0.213,0.24,0.153,0.516-0.115,0.752
			c-0.215,0.201-0.391,0.27-0.539,0.41c0.408,1.828,0.849,3.611,1.227,5.426c0.483,2.113,0.837,4.262,1.312,6.412
			c0.035,0.311,0.161,0.445,0.401,0.42c0.215,0.025,0.456,0.045,0.674,0.227c0.208,0.136,0.453,0.511,0.426,0.712
			c-0.085,0.278-0.328,0.545-0.534,0.762c-0.095,0.039-0.185,0.125-0.391,0.185c0.155,0.633,0.311,1.264,0.471,1.895
			c0.381,1.512,0.636,3.006,0.987,4.453c0.283,1.223,0.629,2.365,0.977,3.596c0.03,0.201,0.125,0.271,0.275,0.311
			c0.22,0.201,0.491,0.322,0.734,0.427c0.338,0.2,0.521,0.571,0.523,1.008C77.778,354.365,77.387,354.33,77.02,354.055z
			 M72.175,340.734c-0.521-2.604-1.039-5.17-1.563-7.725c-0.058,0.205-0.087,0.32-0.087,0.285c-0.19,2.27-0.378,4.529-0.566,6.773
			c-0.085,0.771-0.025,0.727,0.583,0.787c0.085-0.017,0.143,0.014,0.24,0.01C71.249,340.824,71.711,340.785,72.175,340.734z"/>
		<path d="M81.943,345.664c0.022,1.768,0.005,3.525,0.025,5.289c0.008,0.646,0.013,1.307,0.048,1.969
			c0.032,0.115,0.12,0.24,0.21,0.361c0.03,0.045,0.155,0.045,0.188,0.09c0.216,0.285,0.579,0.516,0.431,0.98
			c-0.088,0.2-0.483,0.286-0.724,0.286c-0.541,0.005-1.092-0.041-1.638-0.114c-0.366,0-0.736-0.08-0.977-0.527
			c-0.24-0.445-0.248-0.6,0.115-0.736c0.511-0.17,0.506-0.57,0.501-1.176c-0.015-1.814-0.035-3.623-0.055-5.451
			c-0.01-1.172-0.05-2.344-0.035-3.602c0.025-0.666-0.16-0.967-0.501-1.383c-0.09-0.136-0.183-0.261-0.273-0.392
			c-0.215-0.431-0.133-0.722,0.263-0.871c0.511-0.194,0.486-0.194,0.481-0.887c-0.022-1.783-0.01-3.576-0.025-5.365
			c-0.02-1.81-0.04-3.627-0.055-5.438c-0.005-0.486-0.01-0.978-0.015-1.457c0.027-0.297-0.065-0.441-0.275-0.492
			c-0.281-0.08-0.491-0.209-0.704-0.381c-0.25-0.285-0.193-0.611,0.14-0.785c2.212-1.002,4.431-1.354,6.55-0.125
			c1.563,0.926,2.369,2.613,2.6,4.949c0.17,1.803,0.186,3.541-0.075,5.379c-0.338,2.43-1.297,4.137-2.87,5.186
			c-1.057,0.695-2.119,1.172-3.364,0.961C81.925,343.174,81.934,344.422,81.943,345.664z M81.666,326.654
			c0.067,3.164,0.125,6.336,0.19,9.506c0.01,1.264,0.052,2.565,0.035,3.889c0.005,0.365,0.125,0.475,0.331,0.34
			c0.606-0.33,1.248-0.58,1.824-0.951c1.237-0.883,1.853-2.381,2.119-4.209c0.261-1.731,0.246-3.461,0.135-5.119
			c-0.105-1.332-0.451-2.469-1.22-3.205c-0.989-0.992-2.116-1.008-3.416-0.617C81.666,326.412,81.666,326.533,81.666,326.654z"/>
		<path d="M98.591,343.92c0.012,1.793,0.025,3.582,0.07,5.375c0.008,0.826-0.022,1.572-0.015,2.4
			c-0.03,0.305,0.095,0.563,0.338,0.694c0.213,0.132,0.426,0.353,0.671,0.687c0.15,0.322,0.062,0.672-0.175,0.672
			c-0.396,0-0.819-0.08-1.225-0.125c-0.21-0.039-0.448-0.176-0.664-0.039c-0.448,0.129-0.819,0.094-1.149-0.211
			c-0.216-0.182-0.311-0.436-0.403-0.742c0-0.129,0.238-0.35,0.363-0.475c0.208-0.131,0.296-0.312,0.296-0.621
			c-0.045-1.689-0.055-3.342-0.065-5.035c-0.02-2.51-0.038-5.014-0.055-7.523c-0.005-0.301-0.035-0.471-0.308-0.457
			c-1.305,0.066-2.598,0.137-3.895,0.201c-0.215,0.016-0.34,0.189-0.335,0.535c0.035,3.947,0.095,7.664,0.128,11.607
			c0.002,0.096,0.002,0.199,0.002,0.291c-0.085,0.74,0.04,1.207,0.621,1.496c0.245,0.137,0.518,0.512,0.403,0.907
			c-0.093,0.216-0.423,0.33-0.664,0.302c-0.308,0-0.583-0.086-0.854-0.291c-0.333-0.17-0.548-0.131-0.819,0
			c-0.461,0.17-0.847,0.129-1.192-0.125c-0.18-0.125-0.295-0.291-0.363-0.586c-0.038-0.132,0.175-0.472,0.303-0.519
			c0.691-0.17,0.621-0.94,0.621-1.617c-0.027-2.823-0.05-5.641-0.07-8.461c-0.013-0.979-0.018-1.873,0.005-2.771
			c-0.005-0.381-0.128-0.586-0.341-0.662c-0.095,0.007-0.215-0.069-0.311-0.18c-0.461-0.44-0.436-0.94,0.085-1.283
			c0.48-0.323,0.543-0.67,0.536-1.315c-0.027-3.229-0.025-6.377-0.055-9.612c0-0.039,0-0.08,0-0.125
			c0.085-0.902,0.085-0.902-0.501-1.173c-0.21-0.1-0.4-0.301-0.551-0.489c-0.125-0.275-0.067-0.582,0.175-0.611
			c0.581,0.055,1.127-0.307,1.708-0.416c0.486-0.055,0.979,0.1,1.315,0.625c0.343,0.473,0.313,0.652-0.143,0.992
			c-0.155,0.156-0.206,0.291-0.206,0.502c0.015,2.559,0.065,5.043,0.121,7.608c0.005,1.246,0.017,2.443,0.058,3.687
			c0.002,0.131,0.127,0.371,0.218,0.371c1.442-0.09,2.88-0.176,4.325-0.246c-0.01-1.486-0.025-2.99-0.038-4.482
			c-0.007-1.434-0.015-2.916,0-4.354c-0.007-0.986,0.02-1.998,0.01-3c0-0.131-0.12-0.285-0.215-0.41
			c-0.155-0.16-0.338-0.275-0.491-0.482c-0.095-0.109-0.125-0.285-0.098-0.426c0.028-0.17,0.123-0.27,0.276-0.285
			c0.488,0,0.919-0.164,1.402-0.34c0.519-0.186,1.04-0.096,1.383,0.705c0.125,0.262,0.092,0.432-0.058,0.531
			c-0.368,0.342-0.368,0.637-0.366,1.172c0.107,1.693,0.06,3.223,0.065,4.93c0.048,1.93,0.093,3.848,0.105,5.766
			c0.005,0.267,0.098,0.441,0.28,0.558c0.213,0.125,0.398,0.239,0.521,0.545c0.335,0.551,0.16,1.127-0.331,1.317
			c-0.146,0.146-0.331,0.15-0.483,0.199C98.571,340.709,98.582,342.312,98.591,343.92z"/>
		<path d="M104.145,324.449c0.02,3.467,0.038,6.938,0.057,10.41c0.005,0.83,0.01,1.651,0.015,2.483c0,0.312,0.035,0.576,0.246,0.687
			c0.03,0.055,0.125,0.141,0.248,0.315c0.398,0.556,0.343,1.006-0.113,1.332c-0.335,0.229-0.368,0.5-0.361,0.896
			c0.048,3.902,0.038,7.619,0.09,11.525c0,0.166,0.123,0.391,0.215,0.527c0.155,0.311,0.368,0.43,0.488,0.75
			c0.128,0.311,0.158,0.621-0.178,0.672c-0.245,0-0.458,0.041-0.671,0c-0.516-0.141-1.03-0.186-1.551-0.311
			c-0.328-0.131-0.666-0.267-1.001-0.57c-0.213-0.211-0.155-0.611,0.12-0.752c0.208-0.135,0.393-0.135,0.724-0.26
			c0-0.963-0.01-1.914-0.015-2.871c-0.01-2.535-0.025-5.064-0.045-7.594c-0.005-0.673-0.007-1.242-0.04-1.896
			c0-0.181-0.125-0.351-0.22-0.484c-0.123-0.211-0.306-0.336-0.456-0.557c-0.28-0.423-0.25-0.742,0.085-0.923
			c0.609-0.42,0.667-1.04,0.626-1.879c-0.1-1.893-0.05-3.846-0.065-5.733c-0.01-1.772-0.02-3.533,0-5.347
			c0-0.346-0.03-0.516-0.305-0.637c-0.015-0.014-0.025-0.028-0.035-0.045c-0.246-0.205-0.551-0.399-0.463-0.891
			c0.09-0.502,0.426-0.346,0.671-0.352c0.398-0.074,0.794-0.109,1.192-0.267c0.586-0.221,1.29,0.08,1.628,0.728
			c0.158,0.301,0.128,0.524-0.12,0.627C104.657,324.189,104.397,324.318,104.145,324.449z"/>
		<path d="M108.976,338.125c0,0.225-0.03,0.404-0.03,0.625c-0.03,0.537-0.055,1.033,0.438,1.203
			c0.083,0.045,0.183,0.301,0.278,0.479c0.245,0.617,0.15,0.986-0.306,1.123c-0.371,0.15-0.431,0.369-0.426,0.861
			c0.01,2.008,0.291,3.978,0.671,5.899c0.21,1.019,0.491,1.953,0.766,2.906c0.12,0.385,0.306,0.756,0.556,1.105
			c0.331,0.537,1.057,0.4,1.302-0.174c0.356-0.902,0.571-1.945,0.591-3.152c0-0.084-0.06-0.23-0.175-0.404
			c-0.155-0.311-0.341-0.451-0.461-0.768c-0.22-0.486,0.06-1.066,0.456-0.941c0.336,0.045,0.606,0.266,0.942,0.396
			c0.338,0.18,0.674,0.313,1.007,0.445c0.183,0.125,0.338,0.266,0.483,0.396c0.371,0.534,0.306,0.905-0.175,1.047
			c-0.21,0.039-0.306,0.219-0.306,0.586c0.005,1.301-0.265,2.47-0.721,3.5c-0.266,0.586-0.601,0.856-1.06,0.856
			c-0.731,0-1.458-0.041-2.154-0.271c-0.942-0.305-1.468-1.235-1.863-2.448c-0.984-3.021-1.49-6.007-1.628-9.257
			c0-0.176-0.181-0.353-0.306-0.481c-0.123-0.135-0.271-0.174-0.366-0.351c-0.238-0.352-0.396-0.696,0.055-1.026
			c0.699-0.371,0.636-1.131,0.661-1.974c0.083-1.913,0.195-3.741,0.313-5.586c0.085-1.207,0.14-2.233,0.293-3.437
			c0.266-1.93,0.681-3.782,1.443-5.387c0.271-0.551,0.701-1.061,1.162-1.262c1.312-0.551,2.665-0.471,3.799,0.896
			c0.466,0.565,0.676,1.367,0.621,2.41c0,0.18-0.03,0.405-0.03,0.637c0.005,0.404-0.088,0.9,0.371,1.021
			c0.15,0.132,0.28,0.312,0.366,0.58c0.095,0.222,0.095,0.537-0.153,0.586c-0.21,0.058-0.428,0.103-0.634,0.104
			c-0.34-0.034-0.556,0.017-0.766,0.513c-0.095,0.188-0.311,0.313-0.431,0.319c-0.305,0.011-0.579-0.063-0.829-0.239
			c-0.491-0.392-0.46-1.377,0.055-1.938c0.218-0.175,0.311-0.455,0.311-0.861c-0.002-0.496,0.058-0.936,0.093-1.441
			c0.08-0.717-0.258-1.289-0.749-1.318c-0.826-0.108-1.467,0.502-1.888,1.869c-0.852,2.533-1.177,5.14-1.323,8.01
			c-0.085,1.433-0.2,2.91-0.315,4.343C108.931,338.125,108.956,338.125,108.976,338.125z"/>
		<path d="M124.011,346.986c0.007-2.039,0.007-4.067,0.04-6.102c0-0.406-0.033-0.766-0.306-0.986
			c-0.12-0.186-0.19-0.326-0.216-0.377c-0.457-0.846-0.37-1.297,0.216-1.838c0.239-0.23,0.272-0.455,0.272-0.857
			c0.032-2.895,0.062-5.514,0.067-8.399c0-1.396,0-2.653,0.028-4.062c0-0.41-0.028-0.545-0.364-0.59
			c-0.336-0.052-0.677-0.228-1.047-0.365c-0.085-0.045-0.15,0-0.187-0.131c-0.113-0.275-0.218-0.551-0.332-0.812
			c0.213-0.139,0.332-0.275,0.553-0.275c0.97,0,1.938,0.006,2.91,0.017c1.069,0.006,2.06,0.159,2.943,1.037
			c1.436,1.422,2.467,3.211,3.291,5.436c0.826,2.185,0.996,4.527,1.02,6.902c-0.006,1.935,0.053,3.812-0.192,5.739
			c-0.261,1.793-0.438,3.593-0.786,5.341c-0.277,1.571-0.792,2.961-1.738,3.991c-0.486,0.537-0.914,1.218-1.373,1.8
			c-0.73,0.901-1.553,1.262-2.486,1.396c-0.1,0-0.16,0-0.186,0.041c-0.701,0.416-1.396,0.23-2.1-0.09
			c-0.207-0.131-0.455-0.086-0.727,0.049c-0.396,0.221-0.73,0.176-1.06-0.135c-0.368-0.314-0.401-0.676-0.063-1.172
			c0.453-0.5,0.942-0.455,1.429-0.406c0.213,0,0.327,0,0.388,0.041C124.008,350.441,124.011,348.715,124.011,346.986z
			 M125.75,349.109c-0.003,1.019-0.003,2.045-0.003,3.066c0.331-0.125,0.636-0.227,0.882-0.41c0.728-0.672,1.215-1.523,1.913-2.385
			c1.072-1.393,1.557-3.051,1.841-4.889c0.401-2.701,0.771-5.355,0.688-8.096c-0.029-1.578,0.006-3.062-0.114-4.55
			c-0.203-2.379-1.058-4.383-2.129-6.159c-0.728-1.283-1.552-2.15-2.75-2.039c-0.337,0.049-0.396,0.135-0.396,0.635
			c0.021,3.981,0.047,7.975,0.077,11.957c0,0.867-0.093,1.715,0.427,2.399c0.09,0.132,0.123,0.396,0.154,0.58
			c0.088,0.547-0.005,0.908-0.311,1.134c-0.243,0.17-0.273,0.45-0.273,0.762C125.751,343.785,125.75,346.445,125.75,349.109z"/>
		<path d="M135.319,342.707c0.006-0.756,0.008-1.572,0.035-2.324c0.035-0.4-0.115-0.676-0.389-0.816
			c-0.486-0.233-0.729-0.781-0.576-1.356c0.09-0.312,0.334-0.524,0.551-0.649c0.275-0.136,0.426-0.441,0.426-0.938
			c-0.074-2.104-0.012-4.152,0.027-6.263c0.035-1.928,0.041-3.854,0.146-5.77c0.029-0.49,0-0.762-0.398-0.928
			c-0.457-0.139-0.914-0.25-1.188-0.936c-0.099-0.142-0.093-0.361-0.062-0.587c0.026-0.086,0.154-0.211,0.37-0.338
			c0.125-0.035,0.25-0.03,0.37,0.015c1.588,0.733,3.214,0.459,4.807,0.604c0.611,0.041,1.229-0.055,1.836,0.115
			c0.582,0.172,1.129,0.396,1.705,0.607c0.252,0.149,0.369,0.727,0.244,1.127c-0.094,0.288-0.094,0.604-0.129,0.911
			c-0.035,0.226,0.061,0.625-0.04,0.666c-0.208,0.115-0.393,0.101-0.575,0.005c-0.578-0.261-0.722-0.882-0.754-1.732
			c-0.93-0.066-1.852-0.121-2.779-0.166c-0.344-0.061-0.707-0.084-1.075-0.1c-0.521-0.035-0.706,0.186-0.706,0.936
			c0.015,3.402,0,6.697,0.021,10.1c-0.014,0.846-0.014,1.697-0.014,2.539c-0.033,0.406,0.059,0.541,0.307,0.502
			c0.522,0.014,1.053,0.029,1.582,0.049c0.147,0,0.237-0.08,0.303-0.209c0.096-0.447,0.279-0.572,0.523-0.432
			c0.368,0.15,0.573,0.461,0.602,0.951c0.029,0.311,0.029,0.531,0.029,0.842c0.025,0.492-0.095,0.666-0.428,0.611
			c-0.887-0.16-1.77-0.141-2.625-0.295c-0.275-0.051-0.303,0.125-0.303,0.436c-0.014,1.918,0.01,3.746,0.002,5.666
			c-0.006,1.928-0.049,3.801-0.055,5.725c0,0.221,0.031,0.346,0.06,0.672c0.942,0,1.886,0.004,2.825,0.004
			c0.338,0,0.611,0.007,0.941-0.034c0.152,0,0.213-0.091,0.242-0.313c0.096-0.347,0.129-0.701,0.221-1.009
			c0.094-0.399,0.309-0.575,0.611-0.489c0.333,0.141,0.604,0.229,0.696,0.766c-0.005,0.176-0.035,0.271-0.07,0.307
			c-0.333,0.48-0.248,1.021-0.157,1.543c0.09,0.486-0.029,0.756-0.394,0.756c-1.554-0.016-3.101-0.061-4.647-0.064
			c-0.822,0-1.584,0.095-2.402-0.04c-0.33,0-0.606-0.23-0.879-0.455c-0.336-0.354-0.301-0.673,0.098-0.888
			c0.333-0.19,0.671-0.229,1.034-0.41C135.294,348.645,135.304,345.674,135.319,342.707z"/>
		<path d="M146.342,351.514c0.307,0.486,0.631,0.842,0.997,1.062c0.418,0.305,0.759,0.135,0.974-0.562
			c0.19-0.521,0.31-1.043,0.379-1.567c0.283-2.203,0.123-4.424-0.133-6.644c0-0.187-0.061-0.319-0.056-0.485
			c-0.12-1.222-0.353-2.244-1.108-2.92c-0.121-0.097-0.275-0.32-0.427-0.677c-0.123-0.221-0.239-0.45-0.022-0.746
			c0.582-0.893,0.408-1.805,0.072-2.829c-0.375-1.293-0.769-2.58-1.121-3.964c-0.363-1.293-0.537-2.614-0.53-3.981
			c0.012-1.502,0.385-2.695,1.155-3.644c0.742-0.944,1.573-1.696,2.639-1.643c1.199-0.005,2.462,1.764,2.545,3.325
			c0.029,0.388,0.117,0.787,0.117,1.172c-0.01,0.468,0.207,0.361,0.419,0.513c0.368,0.211,0.639,0.569,0.786,1.099
			c0.111,0.489-0.006,0.686-0.338,0.659c-0.28,0.017-0.555-0.045-0.793-0.188c-0.279-0.156-0.522-0.137-0.735,0.15
			c-0.375,0.53-1.164,0.073-1.495-0.472c-0.236-0.412-0.17-1.013,0.286-1.328c0.368-0.26,0.343-0.565,0.225-0.961
			c-0.239-0.853-0.631-1.543-1.206-2.073c-0.398-0.337-0.582-0.355-0.918,0.094c-0.65,0.957-0.839,2.028-0.759,3.262
			c0.08,1.709,0.494,3.307,0.944,4.863c0.443,1.469,0.717,2.912,1.189,4.373c0.117,0.396,0.357,0.752,0.568,1.106
			c0.15,0.312,0.298,0.492,0.423,0.717c0.146,0.441,0.142,0.826-0.069,1.207c-0.125,0.177-0.156,0.427-0.131,0.816
			c0.318,1.879,0.488,3.731,0.562,5.646c0.078,1.518-0.146,2.937-0.487,4.322c-0.563,2.359-3.251,4.283-4.94,2.398
			c-0.566-0.66-0.873-1.406-1.195-2.289c-0.635-1.646-0.989-3.416-1.004-5.31c0-0.135-0.123-0.312-0.209-0.45
			c-0.151-0.222-0.359-0.355-0.514-0.666c-0.09-0.146-0.09-0.361-0.058-0.627c0.062-0.136,0.187-0.216,0.396-0.257
			c0.156,0.007,0.334,0.048,0.489,0.142c0.179,0.141,0.339,0.061,0.45-0.199c0.344-0.652,0.768-0.777,1.346-0.266
			c0.391,0.311,0.633,0.977,0.413,1.627c-0.149,0.396-0.424,0.562-0.762,1.037C144.875,348.254,145.411,349.98,146.342,351.514z"/>
		<path d="M156.526,325.807c-0.025,3.311-0.056,6.627-0.086,9.943c-0.004,0.797-0.011,1.588-0.016,2.375
			c-0.005,0.295,0.021,0.551,0.235,0.691c0.028,0.039,0.12,0.129,0.235,0.305c0.394,0.576,0.336,0.998-0.131,1.268
			c-0.336,0.189-0.369,0.441-0.369,0.822c-0.007,3.727-0.065,7.287-0.065,11.014c-0.005,0.166,0.114,0.377,0.205,0.506
			c0.149,0.301,0.354,0.422,0.481,0.723c0.119,0.296,0.145,0.597-0.188,0.632c-0.24,0-0.453,0.034-0.668,0
			c-0.513-0.132-1.032-0.181-1.55-0.306c-0.326-0.127-0.662-0.262-0.994-0.562c-0.209-0.209-0.145-0.601,0.132-0.728
			c0.213-0.125,0.399-0.125,0.729-0.243c0.008-0.923,0.018-1.851,0.021-2.781c0.021-2.438,0.043-4.879,0.061-7.321
			c0.008-0.646,0.012-1.197-0.013-1.841c0-0.164-0.118-0.346-0.205-0.479c-0.121-0.221-0.301-0.365-0.456-0.586
			c-0.27-0.437-0.24-0.736,0.1-0.888c0.611-0.35,0.675-0.936,0.646-1.747c-0.072-1.839,0-3.712,0.021-5.541
			c0.015-1.707,0.029-3.41,0.074-5.148c0-0.352-0.022-0.516-0.299-0.686c-0.01-0.017-0.018-0.031-0.023-0.046
			c-0.243-0.241-0.553-0.485-0.457-0.942c0.099-0.465,0.435-0.254,0.675-0.23c0.394,0.006,0.789,0.051,1.194-0.023
			c0.572-0.102,1.274,0.324,1.607,1c0.145,0.308,0.12,0.521-0.126,0.576C157.042,325.641,156.787,325.732,156.526,325.807z"/>
		<path d="M161.202,344.352c0.221,1.793,0.391,3.5,0.74,5.283c0.207,0.963,0.683,1.754,1.062,2.586
			c0.152,0.365,0.338,0.375,0.581,0.004c0.586-0.811,0.837-1.787,1.09-2.77c0.349-1.156,0.45-2.42,0.375-3.756
			c0.003-0.371-0.022-0.777-0.112-1.193c0.002-0.119-0.061-0.211-0.178-0.211c-0.338-0.154-0.607-0.164-0.941-0.225
			c-0.01,0.541-0.135,0.981-0.613,0.842c-0.482-0.156-0.917-0.455-0.906-1.117c-0.035-0.295-0.056-0.547-0.136-0.842
			c-0.21-0.672,0.085-0.986,0.546-0.82c0.408,0.129,0.814,0.264,1.215,0.391c0.396,0.064,0.701,0.084,0.914-0.024
			c0.609-0.275,1.215-0.354,1.789,0.125c0.268,0.18,0.511,0.479,0.506,0.916c-0.046,1.567-0.029,3.016-0.136,4.584
			c-0.112,1.889-0.606,3.606-1.509,5.1c-0.62,1.093-1.435,1.093-2.315,0.767c-1.205-0.461-1.985-1.418-2.58-2.926
			c-0.864-2.134-1.057-4.402-1.276-6.757c-0.08-1.002-0.104-2.055-0.187-3.065c0-0.086-0.058-0.215-0.178-0.385
			c-0.15-0.222-0.36-0.322-0.448-0.617c-0.184-0.562-0.055-0.887,0.344-0.982c0.213-0.074,0.336-0.279,0.336-0.561
			c0.043-1.543,0.123-3.086,0.269-4.584c0.127-1.531,0.353-3.056,0.581-4.572c0.098-0.541,0.104-1.082,0.14-1.623
			c0.104-1.283,0.506-2.27,1.183-3.012c0.623-0.73,1.351-0.506,2.076-0.195c1.672,0.797,2.104,2.855,2.084,4.68
			c0,0.205,0.055,0.406,0.211,0.602c0.237,0.312,0.445,0.576,0.655,0.927c0.208,0.392,0.12,0.746-0.218,0.746
			s-0.699-0.205-1.034-0.296c-0.211-0.024-0.358-0.086-0.519,0.021c-0.459,0.236-1.034,0.166-1.394-0.325
			c-0.274-0.32-0.298-0.695-0.085-1.07c0.125-0.201,0.248-0.346,0.403-0.451c0.487-0.146,0.556-0.551,0.433-1.098
			c-0.208-0.676-0.293-1.349-0.492-2.039c-0.091-0.381-0.271-0.445-0.492-0.187c-0.547,0.668-0.86,1.483-0.961,2.511
			c-0.237,2.18-0.474,4.368-0.703,6.547c-0.133,1.276-0.113,2.403-0.223,3.684c0,0.285-0.031,0.455,0.305,0.596
			c0.242,0.064,0.627,0.836,0.602,1.162c0,0.164-0.095,0.32-0.248,0.439c-0.227,0.115-0.367,0.057-0.709,0.166
			C161.126,342.357,161.091,343.359,161.202,344.352z"/>
		<path d="M175.983,347.842c0.008-1.072,0.022-2.148,0.033-3.225c0.016-1.334,0.088-2.506,0.101-3.832
			c0.01-1.389,0.022-2.771,0.038-4.148c0.013-1.338,0.055-2.58,0.07-3.918c0.041-1.326,0.09-2.689,0.1-4.012
			c0.005-0.154-0.147-0.381-0.235-0.506c-0.123-0.17-0.303-0.326-0.392-0.5c-0.234-0.377-0.176-0.607,0.224-0.644
			c0.358-0.038,0.696-0.01,1.024-0.055c0.516-0.052,1.002,0.2,1.449,0.776c0.328,0.476,0.264,0.767-0.194,0.865
			c-0.091,0.006-0.181,0.021-0.269,0.021c0.016,1.812,0.029,3.621,0.043,5.389c0,1.789,0.002,3.582,0.004,5.371
			c-0.002,0.26-0.037,0.525-0.004,0.791c0.021,0.154,0.146,0.27,0.234,0.4c0.27,0.32,0.592,0.662,0.833,0.977
			c0.125,0.16,0.117,0.352-0.004,0.525c-0.092,0.246-0.188,0.316-0.272,0.572c-0.127,0.358-0.344,0.602-0.646,0.69
			c-0.118,0.024-0.183,0.129-0.183,0.278c-0.035,3.308-0.065,6.418-0.065,9.604c-0.005,0.271,0.09,0.462,0.178,0.642
			c0.08,0.115,0.16,0.227,0.238,0.352c0.208,0.285,0.112,0.596-0.218,0.631c-0.271,0.029-0.553-0.035-0.879-0.07
			c-0.34-0.045-0.637-0.121-0.974-0.121c-0.393-0.004-0.756-0.08-1.089-0.506c-0.208-0.305-0.146-0.528,0.13-0.721
			c0.248-0.109,0.248-0.27,0.158-0.531c-0.614-2.299-1.226-4.588-1.786-6.947c-0.605-2.664-1.125-5.399-1.734-8.125
			c-0.318-1.479-0.67-2.944-0.987-4.356c-0.027-0.2-0.082-0.36-0.144-0.45c-0.035-0.007-0.064-0.011-0.095,0.028
			c-0.011,0.78-0.021,1.574-0.024,2.358c-0.025,2.216-0.017,4.14-0.035,6.349c0.01,2.209-0.016,4.303-0.035,6.512
			c-0.016,1.482-0.027,2.966-0.045,4.453c-0.006,0.274,0.088,0.431,0.244,0.472c0.084,0.034,0.144,0.08,0.235,0.194
			c0.208,0.211,0.416,0.521,0.296,0.836c-0.093,0.195-0.402,0.308-0.611,0.271c-0.695-0.194-1.393-0.166-2.098-0.041
			c-0.453,0.07-0.812-0.164-1.053-0.69c-0.091-0.278-0.091-0.438,0.064-0.563c0.242-0.162,0.494-0.308,0.735-0.346
			c0.212-0.035,0.3-0.201,0.304-0.478c-0.016-1.479,0-2.961,0.016-4.435c0.016-1.588,0.064-3.186,0.107-4.733
			c0.008-0.484,0.013-0.837-0.317-1.222c-0.326-0.342-0.446-0.832-0.72-1.299c0.344-0.42,0.677-0.621,0.925-1.041
			c0.12-0.186,0.186-0.541,0.19-0.822c0.014-2.022,0.043-3.94,0.029-5.899c0.016-1.554,0.061-3.062,0.075-4.619
			c0-0.028,0-0.055,0-0.08c0.13-0.735,0.075-1.256-0.624-1.536c-0.112-0.056-0.232-0.361-0.323-0.582
			c-0.21-0.375-0.022-0.67,0.31-0.615c0.576,0.051,1.094,0.104,1.668,0.246c0.457,0.074,0.852,0.26,1.18,0.756
			c0.236,0.399,0.173,0.742-0.195,0.986c1.905,6.901,3.2,13.791,4.922,20.397C175.921,347.893,175.955,347.873,175.983,347.842z"/>
		<path d="M181.56,344.963c0.006-0.621,0.012-1.268,0.047-1.895c0.033-0.326-0.119-0.562-0.387-0.701
			c-0.486-0.226-0.725-0.691-0.568-1.156c0.092-0.252,0.344-0.402,0.553-0.492c0.271-0.074,0.426-0.311,0.426-0.705
			c-0.068-1.729,0.006-3.402,0.051-5.109c0.051-1.567,0.062-3.137,0.162-4.684c0.031-0.402,0.006-0.611-0.387-0.803
			c-0.447-0.215-0.898-0.375-1.166-0.986c-0.092-0.135-0.09-0.316-0.057-0.486c0.037-0.08,0.146-0.153,0.367-0.225
			c0.115-0.01,0.234,0.016,0.357,0.084c1.568,0.887,3.158,0.943,4.725,1.348c0.604,0.142,1.201,0.176,1.801,0.426
			c0.57,0.23,1.111,0.513,1.682,0.787c0.232,0.156,0.354,0.632,0.232,0.902c-0.088,0.219-0.1,0.455-0.127,0.686
			c-0.031,0.166,0.059,0.496-0.031,0.517c-0.211,0.052-0.391,0.017-0.576-0.096c-0.562-0.3-0.709-0.82-0.738-1.482
			c-0.908-0.209-1.818-0.409-2.732-0.61c-0.334-0.109-0.695-0.18-1.055-0.267c-0.506-0.108-0.689,0.031-0.695,0.644
			c0.008,2.74-0.021,5.395-0.016,8.129c-0.006,0.688-0.01,1.373-0.02,2.049c-0.031,0.32,0.062,0.441,0.303,0.436
			c0.527,0.058,1.049,0.121,1.566,0.183c0.162,0.02,0.246-0.035,0.309-0.142c0.096-0.346,0.271-0.422,0.52-0.291
			c0.357,0.15,0.568,0.433,0.596,0.822c0.031,0.24,0.025,0.42,0.025,0.656c0.023,0.395-0.09,0.52-0.424,0.445
			c-0.879-0.201-1.756-0.256-2.6-0.461c-0.275-0.064-0.309,0.069-0.311,0.33c-0.012,1.543,0.01,3.03-0.012,4.567
			c-0.01,1.543-0.055,3.051-0.066,4.601c-0.002,0.186,0.029,0.278,0.059,0.535c0.938,0.024,1.881,0.045,2.822,0.061
			c0.33,0.01,0.598,0.02,0.936-0.01c0.154,0,0.213-0.064,0.248-0.24c0.088-0.275,0.125-0.551,0.223-0.797
			c0.088-0.301,0.303-0.437,0.604-0.355c0.336,0.119,0.605,0.199,0.695,0.602c0,0.14-0.039,0.215-0.064,0.25
			c-0.338,0.361-0.248,0.781-0.162,1.183c0.096,0.387-0.029,0.576-0.398,0.576c-1.543-0.011-3.088-0.064-4.643-0.074
			c-0.814-0.013-1.576,0.045-2.398-0.062c-0.332,0-0.602-0.194-0.871-0.387c-0.332-0.289-0.303-0.551,0.096-0.727
			c0.336-0.145,0.672-0.17,1.035-0.305C181.515,349.807,181.536,347.381,181.56,344.963z"/>
		<path d="M190.61,343.67c0.184-0.086,0.275-0.205,0.275-0.365c0-0.918,0.039-1.725,0.047-2.621
			c0.006-1.271,0.012-2.545,0.014-3.807c0.016-1.527,0.021-3.041,0.031-4.559c0-0.029,0-0.062,0-0.101
			c0.127-0.478-0.031-0.717-0.473-0.957c-0.205-0.146-0.389-0.364-0.535-0.637c-0.115-0.261,0-0.535,0.266-0.472
			c0.879,0.115,1.715,0.437,2.58,0.566c0.807,0.111,1.553,0.605,2.27,1.146c0.744,0.582,1.424,1.143,1.998,2.01
			c0.797,1.303,1.279,2.639,1.188,4.002c-0.09,1.088-0.125,2.229-0.244,3.32c-0.148,1.578-0.691,2.912-1.988,3.803
			c-0.211,0.146-0.186,0.246-0.092,0.48c0.434,1.573,0.877,3.131,1.312,4.663c0.24,0.857,0.541,1.679,0.785,2.517
			c0.119,0.461,0.271,0.725,0.727,0.82c0.092,0,0.061,0.065,0.15,0.102c0.336,0.205,0.545,0.701,0.393,0.785
			c-0.238,0.16-0.512,0.18-0.787,0.156c-0.52-0.091-0.906-0.125-1.184-0.035c-0.393,0.115-0.76-0.006-1.152-0.355
			c-0.271-0.287-0.27-0.451,0.068-0.662c0.146-0.096,0.205-0.256,0.146-0.441c-0.328-1.012-0.596-2.049-0.932-3.051
			c-0.445-1.396-0.744-2.703-1.105-4.127c-0.059-0.234-0.172-0.346-0.357-0.361c-0.361-0.004-0.693-0.067-1.059-0.08
			c-0.092-0.01-0.186,0.183-0.186,0.287c0,0.955-0.01,1.929-0.012,2.886c-0.008,1.428-0.012,2.854-0.018,4.272
			c0,0.355-0.008,0.551,0.328,0.691c0.398,0.17,0.666,0.66,0.57,0.92c-0.09,0.221-0.547,0.291-0.934,0.191
			c-0.156-0.105-0.338-0.105-0.494-0.195c-0.391-0.201-0.787-0.275-1.174-0.205c-0.52,0.064-0.912-0.08-1.18-0.422
			c-0.154-0.305-0.119-0.51,0.094-0.605c0.182-0.1,0.395-0.17,0.605-0.195c0.211-0.086,0.273-0.079,0.275-0.36
			c0.006-0.899,0.008-1.803,0.02-2.709c0.004-1.379,0.043-2.746,0.053-4.188c0-0.297,0.002-0.565-0.332-0.842
			c-0.268-0.16-0.387-0.436-0.715-0.861C190.188,343.885,190.401,343.744,190.61,343.67z M192.774,338.205
			c0.01,0,0.021,0.004,0.029,0.004c-0.01,1.84-0.014,3.678-0.023,5.516c0,0.295,0.023,0.352,0.363,0.396
			c0.811,0.135,1.324-0.285,1.811-0.838c0.637-0.726,0.939-1.652,1.092-2.639c0.219-1.39,0.404-2.796,0.277-4.3
			c-0.115-1.662-0.822-3.08-2.348-4.088c-0.359-0.219-0.777-0.265-1.137-0.351c-0.035,0.285-0.039,0.552-0.039,0.843
			C192.796,334.578,192.784,336.391,192.774,338.205z"/>
	</g>
	<path id="Swoosh_40_" d="M41.953,341.275c-0.686-2.238-2.615-3.477-4.123-3.682c-0.684-0.07-1.382-0.035-2.079,0.074
		c-3.66,0.627-6.953,3.713-9.768,6.643c-0.018-0.09-0.03-0.18-0.045-0.275c-0.05-0.325-0.095-0.672-0.235-0.985
		c-0.095-0.228-0.28-0.342-0.486-0.301c-0.195,0.028-0.375,0.187-0.471,0.391c-0.09,0.191-0.1,0.392-0.015,0.576
		c0.115,0.274,0.155,0.592,0.21,0.927c0.025,0.206,0.058,0.411,0.103,0.61l-0.233,0.235c-0.125,0.115-0.396,0.392-0.684,0.683
		c-0.223,0.226-0.454,0.444-0.634,0.635l-0.065-0.319c-0.095-0.472-0.19-0.945-0.296-1.406c-0.065-0.291-0.288-0.451-0.556-0.406
		c-0.175,0.029-0.341,0.15-0.438,0.301c-0.088,0.154-0.118,0.324-0.078,0.49c0.095,0.455,0.19,0.896,0.281,1.342
		c0.065,0.311,0.125,0.627,0.195,0.928c-0.256,0.226-0.691,0.603-1.102,0.957c-0.256,0.221-0.506,0.43-0.702,0.596
		c-0.163-0.561-0.32-1.11-0.446-1.657c-0.07-0.281-0.295-0.44-0.566-0.396c-0.18,0.035-0.351,0.149-0.446,0.315
		c-0.085,0.131-0.108,0.295-0.07,0.451c0.175,0.721,0.383,1.428,0.586,2.112c-3.201,2.646-4.827,3.771-8.819,5.021
		c-0.534,0.156-1.072,0.291-1.605,0.381c-1.946,0.351-3.519,0.119-4.012-0.557c-0.21-0.285-0.228-0.65-0.043-1.138
		c0.343-0.996,1.14-1.627,2.222-2.414c0.286-0.205,0.691-0.354,1.145-0.436c0.767-0.125,1.2,0.029,1.235,0.115
		c0,0-0.01,0.266-0.901,0.785c-0.293,0.172-0.328,0.432-0.276,0.602c0.095,0.295,0.441,0.41,0.767,0.24
		c0.937-0.49,1.458-1.223,1.325-1.848c-0.052-0.23-0.271-0.781-1.27-0.849c-1.46-0.073-2.883,0.646-4.346,2.234
		c-0.899,0.901-1.29,2.153-0.994,3.166c0.213,0.745,0.776,1.268,1.542,1.407c1.012,0.205,2.034,0.205,3.116,0.004
		c0.771-0.118,1.482-0.329,2.176-0.534c0.323-0.101,0.646-0.188,0.959-0.261c3.551-0.973,4.839-2.028,7.389-4.129
		c0.235-0.194,0.48-0.395,0.736-0.604c0.105,0.354,0.215,0.776,0.315,1.183c0.067,0.301,0.32,0.471,0.611,0.416
		c0.172-0.035,0.333-0.136,0.42-0.285c0.075-0.131,0.095-0.295,0.058-0.441c-0.133-0.59-0.298-1.146-0.448-1.688
		c0.186-0.16,0.453-0.396,0.744-0.638c0.358-0.305,0.719-0.603,0.982-0.836c0.075,0.274,0.143,0.531,0.213,0.781
		c0.083,0.284,0.331,0.45,0.616,0.399c0.175-0.029,0.335-0.145,0.416-0.295c0.08-0.135,0.095-0.307,0.05-0.471
		c-0.113-0.387-0.228-0.826-0.338-1.312l0.153-0.146c0.15-0.153,0.521-0.51,0.881-0.871c0.193-0.205,0.396-0.405,0.556-0.565
		c0.05,0.19,0.09,0.391,0.138,0.586c0.065,0.307,0.308,0.481,0.588,0.432c0.173-0.029,0.326-0.145,0.421-0.295
		c0.085-0.141,0.11-0.316,0.073-0.486c-0.09-0.396-0.18-0.781-0.278-1.172c2.449-2.561,6.106-6.338,9.372-6.898
		c1.08-0.188,2.079-0.01,2.943,0.517c1.325,0.822,1.869,3.151,1.328,5.69c-0.388,1.812-1.145,3.802-3.8,4.81
		c-0.175,0.069-0.375,0.121-0.591,0.153c-1.3,0.222-3.031-0.104-3.562-1.021c-0.306-0.521-0.19-1.2,0.355-2.038
		c0.155-0.25,0.155-0.57,0.005-0.837c-0.125-0.204-0.326-0.319-0.526-0.284c-0.093,0.02-0.22,0.073-0.331,0.25
		c-1.097,1.653-0.872,2.784-0.488,3.44c1.009,1.748,4.115,2.129,6.149,1.553c1.883-0.53,3.346-1.772,4.223-3.582
		C42.488,345.082,42.389,342.658,41.953,341.275z"/>
	<path id="Swoosh_39_" d="M203.546,341.275c0.689-2.238,2.619-3.477,4.129-3.682c0.682-0.07,1.375-0.035,2.074,0.074
		c3.664,0.627,6.949,3.713,9.771,6.643c0.016-0.09,0.029-0.18,0.045-0.275c0.051-0.325,0.1-0.672,0.234-0.985
		c0.092-0.228,0.281-0.342,0.49-0.301c0.188,0.028,0.367,0.187,0.467,0.391c0.09,0.191,0.096,0.392,0.021,0.576
		c-0.125,0.274-0.166,0.592-0.217,0.927c-0.023,0.206-0.055,0.411-0.1,0.61l0.23,0.235c0.119,0.115,0.395,0.392,0.686,0.683
		c0.215,0.226,0.451,0.444,0.637,0.635l0.061-0.319c0.096-0.472,0.186-0.945,0.291-1.406c0.07-0.291,0.289-0.451,0.562-0.406
		c0.17,0.029,0.342,0.15,0.436,0.301c0.088,0.154,0.115,0.324,0.078,0.49c-0.096,0.455-0.188,0.896-0.277,1.342
		c-0.066,0.311-0.125,0.627-0.191,0.928c0.258,0.226,0.686,0.603,1.102,0.957c0.256,0.221,0.506,0.43,0.699,0.596
		c0.164-0.561,0.32-1.11,0.449-1.657c0.064-0.281,0.297-0.44,0.562-0.396c0.176,0.035,0.35,0.149,0.443,0.315
		c0.084,0.131,0.107,0.295,0.068,0.451c-0.168,0.721-0.377,1.428-0.588,2.112c3.201,2.646,4.83,3.771,8.822,5.021
		c0.531,0.156,1.072,0.291,1.604,0.381c1.943,0.351,3.518,0.119,4.012-0.557c0.207-0.285,0.221-0.65,0.047-1.138
		c-0.348-0.996-1.139-1.627-2.227-2.414c-0.279-0.205-0.689-0.354-1.137-0.436c-0.77-0.125-1.207,0.029-1.242,0.115
		c0,0,0.01,0.266,0.902,0.785c0.301,0.172,0.336,0.432,0.273,0.602c-0.09,0.295-0.436,0.41-0.77,0.24
		c-0.932-0.49-1.453-1.223-1.322-1.848c0.049-0.23,0.275-0.781,1.271-0.849c1.463-0.073,2.881,0.646,4.344,2.234
		c0.895,0.901,1.291,2.153,0.996,3.166c-0.221,0.745-0.775,1.268-1.543,1.407c-1.012,0.205-2.023,0.205-3.109,0.004
		c-0.775-0.118-1.494-0.329-2.186-0.534c-0.32-0.101-0.641-0.188-0.967-0.261c-3.545-0.973-4.824-2.028-7.373-4.129
		c-0.234-0.194-0.486-0.395-0.744-0.604c-0.102,0.354-0.207,0.776-0.312,1.183c-0.066,0.301-0.312,0.471-0.605,0.416
		c-0.176-0.035-0.33-0.136-0.424-0.285c-0.072-0.131-0.096-0.295-0.061-0.441c0.139-0.59,0.301-1.146,0.453-1.688
		c-0.186-0.16-0.457-0.396-0.752-0.638c-0.355-0.305-0.719-0.603-0.98-0.836c-0.07,0.274-0.141,0.531-0.213,0.781
		c-0.084,0.284-0.334,0.45-0.613,0.399c-0.176-0.029-0.336-0.145-0.42-0.295c-0.076-0.135-0.092-0.307-0.047-0.471
		c0.111-0.387,0.227-0.826,0.342-1.312l-0.156-0.146c-0.154-0.153-0.521-0.51-0.881-0.871c-0.189-0.205-0.4-0.405-0.562-0.565
		c-0.045,0.19-0.09,0.391-0.135,0.586c-0.064,0.307-0.305,0.481-0.586,0.432c-0.176-0.029-0.326-0.145-0.42-0.295
		c-0.088-0.141-0.115-0.316-0.076-0.486c0.09-0.396,0.186-0.781,0.275-1.172c-2.441-2.561-6.094-6.338-9.369-6.898
		c-1.082-0.188-2.068-0.01-2.939,0.517c-1.328,0.822-1.873,3.151-1.33,5.69c0.387,1.812,1.146,3.802,3.803,4.81
		c0.174,0.069,0.377,0.121,0.586,0.153c1.299,0.222,3.033-0.104,3.566-1.021c0.307-0.521,0.182-1.2-0.357-2.038
		c-0.152-0.25-0.154-0.57-0.004-0.837c0.127-0.204,0.326-0.319,0.521-0.284c0.096,0.02,0.229,0.073,0.344,0.25
		c1.09,1.653,0.861,2.784,0.48,3.44c-1.016,1.748-4.117,2.129-6.154,1.553c-1.883-0.53-3.34-1.772-4.225-3.582
		C203.011,345.082,203.116,342.658,203.546,341.275z"/>
</g>
</svg>
