<?xml version="1.0" encoding="utf-8"?>
<!-- Generator: Adobe Illustrator 14.0.0, SVG Export Plug-In . SVG Version: 6.00 Build 43363)  -->
<!DOCTYPE svg PUBLIC "-//W3C//DTD SVG 1.1//EN" "http://www.w3.org/Graphics/SVG/1.1/DTD/svg11.dtd">
<svg version="1.1" id="Layer_1" xmlns="http://www.w3.org/2000/svg" xmlns:xlink="http://www.w3.org/1999/xlink" x="0px" y="0px"
	 width="247.5px" height="40.5px" viewBox="0 319.5 247.5 40.5" enable-background="new 0 319.5 247.5 40.5" xml:space="preserve">
<g>
	<path id="Swoosh_40_" d="M42.953,341.285c-0.686-2.238-2.615-3.477-4.123-3.682c-0.684-0.07-1.382-0.035-2.079,0.074
		c-3.66,0.627-6.953,3.713-9.768,6.643c-0.018-0.09-0.03-0.18-0.045-0.275c-0.05-0.325-0.095-0.672-0.235-0.985
		c-0.095-0.228-0.28-0.342-0.486-0.301c-0.195,0.028-0.375,0.187-0.471,0.391c-0.09,0.191-0.1,0.392-0.015,0.576
		c0.115,0.274,0.155,0.592,0.21,0.927c0.025,0.206,0.058,0.411,0.103,0.61l-0.233,0.235c-0.125,0.115-0.396,0.392-0.684,0.683
		c-0.223,0.226-0.454,0.444-0.634,0.635l-0.065-0.319c-0.095-0.472-0.19-0.945-0.296-1.406c-0.065-0.291-0.288-0.451-0.556-0.406
		c-0.175,0.029-0.341,0.15-0.438,0.301c-0.088,0.154-0.118,0.324-0.078,0.49c0.095,0.455,0.19,0.896,0.281,1.342
		c0.065,0.311,0.125,0.627,0.195,0.928c-0.256,0.226-0.691,0.603-1.102,0.957c-0.256,0.221-0.506,0.43-0.702,0.596
		c-0.163-0.561-0.32-1.11-0.446-1.657c-0.07-0.281-0.295-0.44-0.566-0.396c-0.18,0.035-0.351,0.149-0.446,0.315
		c-0.085,0.131-0.108,0.295-0.07,0.451c0.175,0.721,0.383,1.428,0.586,2.112c-3.201,2.646-4.827,3.771-8.819,5.021
		c-0.534,0.156-1.072,0.291-1.605,0.381c-1.946,0.351-3.519,0.119-4.012-0.557c-0.21-0.285-0.228-0.65-0.043-1.138
		c0.343-0.996,1.14-1.627,2.222-2.414c0.286-0.205,0.691-0.354,1.145-0.436c0.767-0.125,1.2,0.029,1.235,0.115
		c0,0-0.01,0.266-0.901,0.785c-0.293,0.172-0.328,0.432-0.276,0.602c0.095,0.295,0.441,0.41,0.767,0.24
		c0.937-0.49,1.458-1.223,1.325-1.848c-0.052-0.23-0.271-0.781-1.27-0.849c-1.46-0.073-2.883,0.646-4.346,2.234
		c-0.899,0.901-1.29,2.153-0.994,3.166c0.213,0.745,0.776,1.268,1.542,1.407c1.012,0.205,2.034,0.205,3.116,0.004
		c0.771-0.118,1.482-0.329,2.176-0.534c0.323-0.101,0.646-0.188,0.959-0.261c3.551-0.973,4.839-2.028,7.389-4.129
		c0.235-0.194,0.48-0.395,0.736-0.604c0.105,0.354,0.215,0.776,0.315,1.183c0.067,0.301,0.32,0.471,0.611,0.416
		c0.172-0.035,0.333-0.136,0.42-0.285c0.075-0.131,0.095-0.295,0.058-0.441c-0.133-0.59-0.298-1.146-0.448-1.688
		c0.186-0.16,0.453-0.396,0.744-0.638c0.358-0.305,0.719-0.603,0.982-0.836c0.075,0.274,0.143,0.531,0.213,0.781
		c0.083,0.284,0.331,0.45,0.616,0.399c0.175-0.029,0.335-0.145,0.416-0.295c0.08-0.135,0.095-0.307,0.05-0.471
		c-0.113-0.387-0.228-0.826-0.338-1.312l0.153-0.146c0.15-0.153,0.521-0.51,0.881-0.871c0.193-0.205,0.396-0.405,0.556-0.565
		c0.05,0.19,0.09,0.391,0.138,0.586c0.065,0.307,0.308,0.481,0.588,0.432c0.173-0.029,0.326-0.145,0.421-0.295
		c0.085-0.141,0.11-0.316,0.073-0.486c-0.09-0.396-0.18-0.781-0.278-1.172c2.449-2.561,6.106-6.338,9.372-6.898
		c1.08-0.188,2.079-0.01,2.943,0.517c1.325,0.822,1.869,3.151,1.328,5.69c-0.388,1.812-1.145,3.802-3.8,4.81
		c-0.175,0.069-0.375,0.121-0.591,0.153c-1.3,0.222-3.031-0.104-3.562-1.021c-0.306-0.521-0.19-1.2,0.355-2.038
		c0.155-0.25,0.155-0.57,0.005-0.837c-0.125-0.204-0.326-0.319-0.526-0.284c-0.093,0.02-0.22,0.073-0.331,0.25
		c-1.097,1.653-0.872,2.784-0.488,3.44c1.009,1.748,4.115,2.129,6.149,1.553c1.883-0.53,3.346-1.772,4.223-3.582
		C43.488,345.092,43.389,342.668,42.953,341.285z"/>
	<path id="Swoosh_39_" d="M204.545,341.285c0.689-2.238,2.619-3.477,4.13-3.682c0.681-0.07,1.375-0.035,2.073,0.074
		c3.665,0.627,6.949,3.713,9.771,6.643c0.016-0.09,0.029-0.18,0.045-0.275c0.051-0.325,0.101-0.672,0.235-0.985
		c0.091-0.228,0.28-0.342,0.49-0.301c0.187,0.028,0.366,0.187,0.466,0.391c0.091,0.191,0.096,0.392,0.021,0.576
		c-0.125,0.274-0.166,0.592-0.217,0.927c-0.023,0.206-0.055,0.411-0.1,0.61l0.23,0.235c0.119,0.115,0.396,0.392,0.686,0.683
		c0.216,0.226,0.451,0.444,0.637,0.635l0.061-0.319c0.096-0.472,0.186-0.945,0.291-1.406c0.07-0.291,0.289-0.451,0.562-0.406
		c0.17,0.029,0.342,0.15,0.436,0.301c0.089,0.154,0.115,0.324,0.078,0.49c-0.096,0.455-0.188,0.896-0.277,1.342
		c-0.065,0.311-0.125,0.627-0.19,0.928c0.257,0.226,0.685,0.603,1.101,0.957c0.256,0.221,0.506,0.43,0.699,0.596
		c0.164-0.561,0.321-1.11,0.449-1.657c0.065-0.281,0.297-0.44,0.563-0.396c0.176,0.035,0.349,0.149,0.442,0.315
		c0.084,0.131,0.108,0.295,0.068,0.451c-0.168,0.721-0.376,1.428-0.587,2.112c3.2,2.646,4.829,3.771,8.821,5.021
		c0.531,0.156,1.072,0.291,1.604,0.381c1.943,0.351,3.518,0.119,4.012-0.557c0.207-0.285,0.221-0.65,0.047-1.138
		c-0.347-0.996-1.139-1.627-2.226-2.414c-0.28-0.205-0.69-0.354-1.137-0.436c-0.771-0.125-1.207,0.029-1.242,0.115
		c0,0,0.01,0.266,0.901,0.785c0.301,0.172,0.336,0.432,0.274,0.602c-0.09,0.295-0.436,0.41-0.771,0.24
		c-0.932-0.49-1.452-1.223-1.322-1.848c0.05-0.23,0.275-0.781,1.271-0.849c1.463-0.073,2.881,0.646,4.344,2.234
		c0.896,0.901,1.292,2.153,0.996,3.166c-0.221,0.745-0.775,1.268-1.543,1.407c-1.012,0.205-2.022,0.205-3.109,0.004
		c-0.775-0.118-1.493-0.329-2.186-0.534c-0.319-0.101-0.641-0.188-0.967-0.261c-3.545-0.973-4.824-2.028-7.373-4.129
		c-0.234-0.194-0.485-0.395-0.744-0.604c-0.101,0.354-0.207,0.776-0.312,1.183c-0.066,0.301-0.312,0.471-0.605,0.416
		c-0.176-0.035-0.33-0.136-0.424-0.285c-0.072-0.131-0.095-0.295-0.06-0.441c0.138-0.59,0.3-1.146,0.453-1.688
		c-0.187-0.16-0.458-0.396-0.752-0.638c-0.355-0.305-0.72-0.603-0.981-0.836c-0.07,0.274-0.141,0.531-0.213,0.781
		c-0.083,0.284-0.333,0.45-0.613,0.399c-0.176-0.029-0.336-0.145-0.42-0.295c-0.076-0.135-0.092-0.307-0.046-0.471
		c0.11-0.387,0.226-0.826,0.341-1.312l-0.156-0.146c-0.154-0.153-0.521-0.51-0.881-0.871c-0.189-0.205-0.4-0.405-0.562-0.565
		c-0.045,0.19-0.09,0.391-0.136,0.586c-0.064,0.307-0.305,0.481-0.586,0.432c-0.176-0.029-0.325-0.145-0.42-0.295
		c-0.088-0.141-0.115-0.316-0.075-0.486c0.09-0.396,0.186-0.781,0.274-1.172c-2.441-2.561-6.094-6.338-9.369-6.898
		c-1.082-0.188-2.068-0.01-2.938,0.517c-1.328,0.822-1.874,3.151-1.33,5.69c0.386,1.812,1.146,3.802,3.802,4.81
		c0.174,0.069,0.377,0.121,0.586,0.153c1.299,0.222,3.033-0.104,3.566-1.021c0.307-0.521,0.182-1.2-0.357-2.038
		c-0.152-0.25-0.154-0.57-0.004-0.837c0.127-0.204,0.327-0.319,0.522-0.284c0.095,0.02,0.228,0.073,0.343,0.25
		c1.09,1.653,0.861,2.784,0.48,3.44c-1.015,1.748-4.117,2.129-6.153,1.553c-1.884-0.53-3.341-1.772-4.226-3.582
		C204.011,345.092,204.116,342.668,204.545,341.285z"/>
</g>
<g>
	<path d="M48.179,333.646c0.221,0.751,0.441,1.508,0.663,2.271c0.398,1.344,0.698,2.66,0.999,4.049
		c0.301,1.39,0.47,2.807,0.838,4.213c0.369,1.438,0.672,2.927,1.042,4.486c0.099-0.158,0.132-0.254,0.165-0.35
		c0.36-1.232,0.554-2.462,0.947-3.719c0.349-1.148,0.697-2.309,1.044-3.477c0.228-0.871,0.455-1.748,0.683-2.629
		c0-0.011,0-0.021,0-0.031c0.032-0.228,0.229-0.512,0.129-0.655c-0.1-0.146-0.332-0.144-0.563-0.235
		c-0.166-0.102-0.299-0.271-0.564-0.453c0.297-0.14,0.429-0.256,0.66-0.324c0.495-0.172,0.99-0.217,1.485-0.389
		c0.693-0.203,1.354-0.242,1.886,0.236c0.266,0.256,0.201,0.462-0.162,0.611c-0.265,0.135-0.462,0.162-0.694,0.227
		c1.046,3.75,1.996,7.48,2.982,11.325c0.022-0.001,0.044-0.002,0.066-0.003c0.13-0.481,0.26-0.965,0.389-1.449
		c0.778-2.979,1.324-5.852,2.066-8.918c0.257-1.081,0.516-2.102,0.74-3.188c0.257-1.263,0.48-2.528,0.703-3.764
		c0.098-0.324,0.228-0.654,0.127-0.878s-0.465-0.162-0.73-0.252c-0.1-0.017-0.166-0.04-0.166-0.074
		c-0.134-0.214-0.234-0.334-0.335-0.553c0.23-0.144,0.428-0.351,0.66-0.356c0.53,0.006,0.959-0.205,1.454-0.535
		c0.626-0.387,1.125-0.267,1.689-0.188c0.133,0.048,0.266,0.2,0.434,0.417c0.1,0.089,0.002,0.315-0.096,0.472
		c-0.099,0.121-0.198,0.172-0.363,0.233c-0.629,0.208-0.626,0.59-0.722,1.126c-0.378,2.699-0.625,5.195-1.304,7.749
		c-0.486,1.737-0.773,3.407-1.159,5.177c-0.387,1.668-0.774,3.32-1.129,4.957c-0.268,1.297-0.537,2.584-0.805,3.864
		c0.366,0.128,0.667,0.261,0.966,0.396c0.2,0.133,0.334,0.234,0.367,0.267c0.134,0.171,0.202,0.373,0.303,0.544
		c-0.231,0.104-0.43,0.307-0.662,0.307c-0.299,0.002-0.632-0.068-0.966-0.236c-0.567-0.232-1.065-0.229-1.697-0.194
		c-0.432,0.034-0.897-0.03-1.33-0.127c-0.1,0.001-0.2-0.063-0.301-0.161c-0.267-0.294-0.235-0.488,0.13-0.656
		c0.232-0.101,0.398-0.103,0.63-0.203c-0.953-3.744-1.902-7.401-2.847-10.971c-0.033,0.004-0.033-0.029-0.066-0.025
		c-0.099,0.27-0.13,0.529-0.229,0.766c-0.617,2.373-1.138,4.609-1.691,6.912c-0.294,1.117-0.555,2.23-0.916,3.33
		c-0.032,0.188,0.034,0.313,0.201,0.406c0.3,0.217,0.6,0.371,0.834,0.592c0.233,0.222,0.201,0.412-0.165,0.508
		c-0.63,0.221-1.097-0.031-1.629-0.186c-0.366-0.125-0.766-0.152-1.164-0.244c-0.433-0.09-0.898-0.086-1.331-0.176
		c-0.166-0.091-0.3-0.24-0.4-0.451c0-0.09,0.232-0.215,0.398-0.308c0.2-0.096,0.365-0.128,0.498-0.13
		c0.366,0.023,0.498-0.131,0.397-0.497c-0.369-1.371-0.639-2.731-0.94-4.081c-0.167-0.729-0.335-1.454-0.502-2.176
		c-0.368-1.389-0.569-2.75-0.868-4.122c-0.366-1.629-0.633-3.198-0.997-4.792c-0.231-0.877-0.43-1.725-0.693-2.581
		c-0.099-0.126-0.263-0.207-0.395-0.267c-0.295-0.141-0.656-0.147-0.886-0.299c-0.197-0.156-0.131-0.315,0.164-0.473
		c0.229-0.083,0.361-0.143,0.426-0.129c0.394-0.002,0.722-0.193,1.083-0.424c0.558-0.366,1.411-0.445,1.839-0.146
		c0.099,0.098,0.165,0.204,0.297,0.389C48.737,333.227,48.475,333.435,48.179,333.646z"/>
	<path d="M70.021,344.586c-0.004-0.604-0.009-1.248,0.019-1.858c0.031-0.323-0.137-0.524-0.437-0.61
		c-0.532-0.139-0.801-0.541-0.639-1.015c0.098-0.257,0.362-0.457,0.594-0.583c0.298-0.133,0.462-0.396,0.459-0.789
		c-0.112-1.668-0.058-3.314-0.038-4.997c0.021-1.54,0.01-3.073,0.098-4.624c0.031-0.396-0.005-0.607-0.437-0.648
		c-0.498-0.031-0.996-0.025-1.298-0.508c-0.1-0.09-0.102-0.267-0.07-0.449c0.033-0.076,0.165-0.203,0.396-0.348
		c0.132-0.057,0.264-0.078,0.397-0.065c1.728,0.255,3.484-0.296,5.211-0.513c0.665-0.096,1.328-0.301,1.993-0.283
		c0.632,0.022,1.231,0.092,1.865,0.158c0.266,0.076,0.403,0.547,0.272,0.899c-0.098,0.274-0.096,0.536-0.126,0.8
		c-0.032,0.192,0.071,0.518-0.029,0.564c-0.231,0.141-0.432,0.165-0.631,0.113c-0.633-0.108-0.803-0.606-0.841-1.307
		c-1.008,0.133-2.016,0.268-3.023,0.408c-0.365,0.016-0.764,0.07-1.162,0.128c-0.564,0.081-0.762,0.291-0.757,0.903
		c0.054,2.74,0.075,5.41,0.128,8.15c0.005,0.687,0.011,1.372,0.016,2.059c-0.03,0.328,0.07,0.429,0.335,0.371
		c0.576-0.045,1.152-0.09,1.728-0.133c0.166-0.014,0.265-0.094,0.331-0.209c0.097-0.373,0.295-0.5,0.562-0.41
		c0.4,0.08,0.634,0.32,0.671,0.724c0.035,0.254,0.037,0.438,0.039,0.698c0.036,0.404-0.095,0.559-0.461,0.547
		c-0.964-0.047-1.928,0.055-2.859,0.012c-0.299-0.014-0.332,0.133-0.33,0.385c0.012,1.555,0.057,3.031,0.068,4.584
		c0.012,1.555-0.01,3.071,0.002,4.625c0.001,0.18,0.036,0.287,0.071,0.539c1.03-0.014,2.061-0.025,3.091-0.039
		c0.366-0.005,0.665-0.008,1.03-0.049c0.167-0.002,0.232-0.076,0.264-0.263c0.097-0.297,0.129-0.595,0.227-0.854
		c0.098-0.336,0.329-0.488,0.661-0.42c0.367,0.104,0.667,0.172,0.77,0.619c0.001,0.146-0.031,0.225-0.065,0.262
		c-0.362,0.416-0.259,0.86-0.156,1.309c0.103,0.406-0.029,0.632-0.428,0.634c-1.696,0.009-3.391-0.017-5.086-0.006
		c-0.897,0.006-1.728,0.082-2.626-0.021c-0.366,0.002-0.666-0.172-0.966-0.348c-0.368-0.277-0.336-0.525,0.094-0.709
		c0.365-0.146,0.73-0.188,1.128-0.337C70.057,349.32,70.039,346.953,70.021,344.586z"/>
	<path d="M88.562,346.582c0.112,1.869-0.076,3.593-0.83,5.271c-0.164,0.389-0.395,0.701-0.692,0.898
		c-1.058,0.818-2.221,0.932-3.418,0.783c-0.133,0-0.2,0-0.232,0.039c-0.431,0.191-0.864,0.114-1.364-0.148
		c-0.401-0.229-0.799-0.188-1.196,0.154c-0.462,0.342-0.962,0.304-1.463-0.108c-0.368-0.263-0.371-0.671-0.007-0.978
		c0.396-0.377,0.893-0.569,1.525-0.576c0.366-0.004,0.431-0.156,0.428-0.572c-0.015-1.971,0.004-3.979-0.011-5.946
		c-0.004-0.618-0.009-1.237-0.014-1.854c-0.001-0.113-0.168-0.219-0.269-0.328c-0.235-0.254-0.502-0.354-0.736-0.604
		c-0.101-0.109-0.103-0.41-0.004-0.529c0.198-0.274,0.395-0.476,0.594-0.601c0.365-0.134,0.397-0.325,0.394-0.743
		c-0.016-2.183-0.032-4.367-0.048-6.55c-0.015-1.97-0.029-3.938-0.01-5.911c-0.002-0.304-0.103-0.33-0.336-0.416
		c-0.368-0.107-0.768-0.135-1.068-0.359c-0.234-0.084-0.37-0.443-0.338-0.635c0.097-0.352,0.397-0.392,0.63-0.308
		c0.834,0.231,1.667,0.132,2.463-0.269c0.266-0.147,0.6,0.041,0.9,0.045c0.634,0.041,1.267,0.045,1.901,0.129
		c1.869,0.296,2.746,1.654,3.326,3.596c0.511,1.676,0.49,3.441,0.468,5.28c-0.027,0.901,0.011,1.721-0.149,2.628
		c-0.288,1.855-0.978,3.332-2.604,4.027C87.838,343.132,88.448,344.674,88.562,346.582z M83.019,334.795
		c0.007,0.992,0.014,1.986,0.021,2.978c0.008,1.095,0.016,2.188,0.024,3.283c0.002,0.269,0.003,0.459,0.303,0.403
		c0.963-0.241,1.859-0.558,2.62-1.373c0.694-0.771,1.054-1.687,1.113-2.815c0.122-1.677,0.144-3.388,0.065-5.051
		c-0.043-1.433-0.353-2.769-1.126-3.89c-0.303-0.396-0.671-0.627-1.072-0.701c-0.568-0.131-1.167,0.052-1.797,0.466
		c-0.099,0.048-0.198,0.289-0.197,0.442c-0.018,2.14-0.003,4.123,0.013,6.262C82.997,334.797,83.007,334.797,83.019,334.795z
		 M83.111,347.66c0.011,0,0.022,0,0.034,0c0.009,1.184-0.017,2.252-0.009,3.435c-0.024,1.224,0.01,1.413,1.106,1.136
		c0.697-0.119,1.394-0.355,1.687-1.248c0.424-1.201,0.683-2.33,0.773-3.572c0.09-1.437-0.086-2.787-0.792-3.957
		c-0.102-0.267-0.303-0.373-0.47-0.521c-0.636-0.435-1.3-0.17-1.964-0.024c-0.266,0.051-0.398,0.25-0.396,0.592
		C83.091,344.886,83.103,346.273,83.111,347.66z"/>
	<path d="M99.25,347.26c-0.009-1.811-0.018-3.622,0.006-5.436c-0.002-0.363-0.037-0.686-0.338-0.875
		c-0.134-0.158-0.201-0.275-0.234-0.313c-0.504-0.748-0.406-1.15,0.225-1.657c0.266-0.212,0.298-0.415,0.296-0.775
		c0.021-2.58,0.042-4.916,0.029-7.494c-0.006-1.248-0.012-2.375,0.016-3.627c-0.002-0.362-0.036-0.48-0.403-0.496
		c-0.368-0.018-0.736-0.151-1.137-0.243c-0.101-0.034-0.167,0.012-0.201-0.106c-0.124-0.232-0.248-0.463-0.371-0.695
		c0.233-0.137,0.366-0.268,0.6-0.284c1.058-0.078,2.116-0.15,3.174-0.218c1.169-0.076,2.24-0.018,3.213,0.705
		c1.576,1.179,2.718,2.726,3.626,4.698c0.909,1.935,1.115,4.064,1.155,6.236c0.005,1.764,0.078,3.483-0.183,5.254
		c-0.262,1.644-0.457,3.284-0.817,4.885c-0.295,1.437-0.856,2.71-1.885,3.656c-0.531,0.493-0.994,1.106-1.491,1.638
		c-0.795,0.816-1.691,1.145-2.721,1.268c-0.1,0-0.167,0-0.199,0.039c-0.763,0.367-1.529,0.205-2.295-0.073
		c-0.233-0.122-0.499-0.081-0.797,0.04c-0.431,0.201-0.797,0.162-1.165-0.117c-0.4-0.279-0.436-0.602-0.072-1.041
		c0.496-0.443,1.028-0.406,1.561-0.371c0.233-0.001,0.365-0.002,0.433,0.037C99.266,350.348,99.257,348.804,99.25,347.26z
		 M101.156,349.132c0.004,0.917,0.008,1.833,0.013,2.749c0.366-0.122,0.697-0.204,0.963-0.368c0.795-0.613,1.324-1.39,2.087-2.168
		c1.159-1.271,1.686-2.79,1.98-4.468c0.424-2.459,0.816-4.879,0.707-7.373c-0.039-1.428-0.01-2.779-0.148-4.125
		c-0.241-2.158-1.182-3.922-2.358-5.453c-0.807-1.102-1.713-1.824-3.016-1.624c-0.368,0.062-0.434,0.147-0.432,0.592
		c0.05,3.569,0.1,7.142,0.15,10.712c0.004,0.768-0.093,1.539,0.477,2.129c0.101,0.118,0.135,0.36,0.169,0.52
		c0.103,0.484,0.003,0.811-0.328,1.022c-0.266,0.169-0.298,0.413-0.297,0.696C101.134,344.36,101.146,346.746,101.156,349.132z"/>
	<path d="M111.591,343.119c-0.002-0.697-0.004-1.439,0.028-2.141c0.033-0.371-0.135-0.615-0.435-0.732
		c-0.535-0.197-0.802-0.686-0.637-1.222c0.099-0.291,0.366-0.501,0.599-0.628c0.3-0.13,0.466-0.421,0.464-0.873
		c-0.104-1.932-0.042-3.826-0.014-5.76c0.03-1.771,0.025-3.54,0.121-5.312c0.033-0.453-0.002-0.699-0.437-0.808
		c-0.501-0.108-1.003-0.172-1.307-0.778c-0.101-0.119-0.101-0.324-0.068-0.529c0.033-0.084,0.167-0.213,0.401-0.344
		c0.134-0.045,0.268-0.051,0.401-0.016c1.741,0.555,3.514,0.178,5.255,0.186c0.669-0.014,1.338-0.148,2.008-0.035
		c0.636,0.115,1.239,0.274,1.875,0.435c0.268,0.122,0.402,0.66,0.269,1.033c-0.101,0.29-0.101,0.58-0.133,0.869
		c-0.033,0.208,0.067,0.579-0.033,0.62c-0.234,0.127-0.435,0.13-0.636,0.048c-0.636-0.201-0.803-0.777-0.837-1.563
		c-1.015,0.012-2.03,0.028-3.045,0.049c-0.368-0.033-0.77-0.023-1.171-0.015c-0.568,0.015-0.769,0.226-0.768,0.925
		c0.04,3.133,0.046,6.184,0.086,9.315c0.002,0.782,0.003,1.565,0.005,2.35c-0.033,0.372,0.067,0.495,0.334,0.449
		c0.578-0.008,1.156-0.015,1.735-0.021c0.167-0.002,0.267-0.084,0.333-0.211c0.1-0.414,0.299-0.539,0.566-0.418
		c0.401,0.121,0.634,0.407,0.668,0.862c0.034,0.288,0.034,0.496,0.034,0.785c0.034,0.455-0.099,0.621-0.466,0.583
		c-0.968-0.116-1.935-0.066-2.869-0.18c-0.3-0.036-0.333,0.127-0.332,0.416c0.003,1.774,0.04,3.463,0.043,5.236
		s-0.026,3.504-0.022,5.276c0,0.207,0.033,0.331,0.067,0.618c1.031-0.004,2.062-0.006,3.093-0.006
		c0.366-0.002,0.666-0.002,1.031-0.043c0.167,0,0.233-0.082,0.266-0.289c0.099-0.33,0.132-0.662,0.232-0.952
		c0.1-0.372,0.332-0.537,0.665-0.455c0.366,0.123,0.666,0.205,0.766,0.703c0,0.163-0.033,0.247-0.066,0.288
		c-0.366,0.455-0.266,0.951-0.166,1.449c0.1,0.453-0.032,0.701-0.432,0.701c-1.696,0.002-3.392-0.037-5.087-0.035
		c-0.898,0-1.729,0.084-2.628-0.039c-0.366,0-0.665-0.205-0.965-0.41c-0.367-0.325-0.334-0.614,0.097-0.82
		c0.366-0.165,0.732-0.207,1.13-0.373C111.605,348.578,111.599,345.848,111.591,343.119z"/>
	<path d="M129.807,352.289c0.301,0.287,0.666,0.453,0.896,0.785c0.365,0.452,0.197,0.74-0.234,0.864
		c-0.232,0.041-0.433,0.083-0.665-0.041c-0.663-0.372-1.362-0.042-2.026-0.166c-0.365-0.042-0.666-0.084-1.03-0.248
		c-0.134-0.124-0.267-0.332-0.365-0.622c-0.032-0.123,0.199-0.289,0.333-0.412c0.1-0.125,0.2-0.082,0.299-0.125
		c0.233,0,0.301-0.123,0.2-0.412c-0.528-2.481-1.094-4.717-1.591-7.199c-0.665-3.479-1.229-6.75-1.896-10.229
		c-0.367-1.779-0.533-3.519-0.9-5.299c-0.234-1.035-0.368-2.07-0.602-3.062c0-0.166-0.168-0.248-0.301-0.373
		c-0.436-0.164-0.904-0.244-1.173-0.781c-0.167-0.454-0.1-0.662,0.167-0.663c0.67,0.039,1.239-0.418,1.875-0.376
		c0.501,0,1.038,0.083,1.338,0.747c0.136,0.292,0.101,0.498-0.065,0.622c-0.168,0.123-0.234,0.371-0.168,0.66
		c0.367,1.451,0.668,2.859,0.935,4.31c0.366,1.781,0.532,3.604,0.897,5.424c0.633,3.149,0.996,6.337,1.825,9.44
		c0.033,0.124,0.066,0.249,0.101,0.373c0.033,0,0.066,0,0.101,0c0.233-1.03,0.302-2.023,0.536-3.055
		c0.516-2.808,1.031-5.611,1.548-8.412c0.271-1.44,0.505-2.924,0.876-4.359c0.235-1.055,0.473-2.107,0.708-3.161
		c0.103-0.328,0.001-0.454-0.267-0.625c-0.301-0.213-0.567-0.426-0.77-0.678c-0.099-0.125-0.132-0.291-0.099-0.457
		c0.1-0.121,0.233-0.2,0.401-0.196c0.233,0.005,0.502,0.094,0.735,0.143c0.269,0.008,0.534,0.015,0.771-0.104
		c0.637-0.312,1.539-0.036,1.938,0.596c0.166,0.209,0.132,0.414-0.067,0.612c-0.146,0.104-0.291,0.21-0.437,0.315
		c-0.134,0.119-0.302,0.279-0.336,0.442c-0.565,3.058-1.129,6.121-1.69,9.189c-0.506,2.672-0.846,5.392-1.35,8.069
		c-0.234,1.112-0.37,2.187-0.538,3.301c-0.169,1.32-0.271,2.642-0.438,4.004c-0.034,0.289-0.066,0.535-0.168,0.867
		C129.342,352.121,129.575,352.164,129.807,352.289z"/>
	<path d="M136.623,343.16c0.003-0.695,0.005-1.435,0.039-2.131c0.034-0.369-0.132-0.617-0.431-0.746
		c-0.533-0.215-0.799-0.713-0.631-1.242c0.102-0.287,0.368-0.485,0.604-0.604c0.3-0.117,0.468-0.4,0.469-0.852
		c-0.094-1.928-0.021-3.812,0.02-5.737c0.037-1.763,0.043-3.524,0.149-5.283c0.035-0.448,0.003-0.696-0.433-0.836
		c-0.502-0.144-1.002-0.243-1.303-0.871c-0.101-0.126-0.1-0.332-0.064-0.536c0.035-0.082,0.168-0.199,0.402-0.313
		c0.134-0.035,0.268-0.03,0.4,0.016c1.738,0.685,3.512,0.438,5.25,0.576c0.669,0.037,1.338-0.046,2.008,0.116
		c0.633,0.16,1.233,0.359,1.868,0.562c0.267,0.139,0.397,0.672,0.263,1.027c-0.103,0.275-0.104,0.559-0.139,0.838
		c-0.033,0.201,0.064,0.57-0.035,0.604c-0.234,0.108-0.437,0.097-0.636,0.004c-0.633-0.238-0.798-0.814-0.828-1.586
		c-1.014-0.062-2.026-0.116-3.042-0.168c-0.365-0.059-0.77-0.078-1.17-0.098c-0.566-0.027-0.77,0.17-0.771,0.863
		c0.022,3.107,0.013,6.132,0.033,9.238c-0.002,0.777-0.006,1.554-0.008,2.33c-0.033,0.367,0.065,0.492,0.333,0.457
		c0.578,0.016,1.156,0.03,1.733,0.047c0.167,0.004,0.268-0.074,0.334-0.194c0.102-0.403,0.302-0.521,0.568-0.39
		c0.398,0.135,0.631,0.425,0.664,0.873c0.031,0.285,0.03,0.488,0.029,0.772c0.031,0.448-0.104,0.606-0.47,0.558
		c-0.966-0.148-1.935-0.133-2.865-0.277c-0.301-0.047-0.336,0.115-0.337,0.4c-0.006,1.758,0.021,3.434,0.018,5.19
		c-0.008,1.759-0.048,3.474-0.054,5.231c-0.001,0.205,0.033,0.326,0.063,0.611c1.031,0.006,2.062,0.01,3.095,0.016
		c0.366,0.002,0.665,0.002,1.03-0.034c0.168,0.001,0.232-0.08,0.268-0.283c0.104-0.323,0.137-0.647,0.236-0.931
		c0.103-0.364,0.336-0.522,0.669-0.438c0.364,0.124,0.663,0.207,0.762,0.694c-0.001,0.158-0.034,0.24-0.067,0.279
		c-0.367,0.442-0.271,0.93-0.174,1.416c0.1,0.442-0.035,0.685-0.435,0.684c-1.697-0.004-3.392-0.048-5.089-0.051
		c-0.897-0.002-1.729,0.078-2.627-0.047c-0.365,0-0.664-0.205-0.963-0.412c-0.363-0.327-0.33-0.617,0.103-0.82
		c0.366-0.162,0.731-0.202,1.133-0.365C136.606,348.599,136.614,345.879,136.623,343.16z"/>
	<path d="M149.5,351.912c1.84,0.012,3.682,0.023,5.521,0.039c0.135-0.509,0.305-0.897,0.473-1.25c0.104-0.194,0.234-0.312,0.4-0.309
		c0.366,0.044,0.698,0.166,0.965,0.286c0.297,0.12,0.429,0.396,0.358,0.823c-0.069,0.465,0.026,0.972,0.257,1.479
		c0.196,0.352,0.129,0.545-0.203,0.622c-0.301,0.116-0.533,0.116-0.699-0.002c-0.629-0.312-1.229-0.198-1.859-0.199
		c-1.896-0.043-3.757-0.009-5.652-0.053c-0.797-0.041-1.562-0.365-2.394-0.046c-0.233,0.119-0.565-0.163-0.829-0.324
		c-0.266-0.203-0.298-0.688,0.07-0.966c0.435-0.28,0.865-0.358,1.367-0.636c0.007-1.244,0.013-2.488,0.02-3.732
		c0.012-2.113,0.021-4.229,0.033-6.343c0.014-2.582,0.027-5.164,0.04-7.745c0.012-2.248,0.091-4.532,0.103-6.779
		c0.002-0.08-0.064-0.205-0.197-0.375c-0.232-0.217-0.433-0.352-0.6-0.564c-0.232-0.297-0.131-0.612,0.172-0.631
		c0.801-0.063,1.604-0.164,2.404-0.14c0.503,0.04,0.936,0.315,1.266,0.82c0.101,0.248,0.064,0.442-0.104,0.589
		c-0.102,0.032-0.201,0.104-0.303,0.098c-0.5,0-0.535,0.317-0.539,0.916c0.005,3.18,0.01,6.36,0.015,9.541
		c0.021,2.395,0.006,4.789-0.008,7.184c-0.013,2.393-0.06,4.787-0.073,7.181C149.502,351.566,149.501,351.74,149.5,351.912z"/>
	<path d="M157.253,341.42c0.002-0.312-0.129-0.592-0.36-0.797c-0.299-0.289-0.527-0.61-0.76-0.937
		c-0.033-0.119-0.031-0.237,0.002-0.272c0.236-0.418,0.438-0.877,0.939-1.002c0.167-0.03,0.267-0.143,0.268-0.336
		c0.143-1.276,0.186-2.596,0.326-3.869c0.247-1.963,0.359-3.899,1.006-5.697c0.545-1.536,1.52-2.668,3.551-2.387
		c1.965,0.237,3.221,1.502,3.803,3.783c0.354,1.543,0.574,3.139,0.597,4.788c0.022,1.462-0.021,2.845,0.067,4.235
		c-0.002,0.188,0.162,0.461,0.295,0.62c0.66,0.683,0.658,0.977,0.222,1.509c-0.168,0.25-0.369,0.35-0.504,0.604
		c-0.101,0.106-0.136,0.254-0.138,0.44c-0.119,2.614-0.403,5.222-0.855,7.804c-0.173,0.898-0.312,1.836-0.95,2.549
		c-1.239,1.461-2.67,1.435-4.227,0.619c-1.425-0.736-2.08-2.139-2.568-3.697c-0.649-2.069-0.737-4.219-0.723-6.398
		C157.247,342.457,157.25,341.938,157.253,341.42z M159.385,346.039c0.088,1.817,0.408,3.524,1.229,5.035
		c0.229,0.426,0.527,0.696,0.891,1.006c0.132,0.153,0.266,0.193,0.434,0.082c0.633-0.338,1.201-0.789,1.373-1.584
		c0.276-1.362,0.619-2.756,0.762-4.113c0.252-2.414,0.436-4.672,0.553-6.969c0.109-1.504-0.012-3.061-0.033-4.576
		c0.012-1.473-0.076-2.954-0.333-4.459c-0.127-0.883-0.386-1.784-0.88-2.563c-0.23-0.368-0.562-0.562-0.996-0.496
		c-0.634,0.118-0.938,0.583-1.309,1.158c-0.674,1.12-0.816,2.341-0.991,3.597c-0.246,1.791-0.425,3.514-0.57,5.318
		c-0.108,1.343-0.186,2.652-0.229,4.234C159.274,342.985,159.296,344.533,159.385,346.039z"/>
	<path d="M171.958,346.111c-0.012,1.563-0.057,3.127-0.068,4.691c-0.004,0.582-0.009,1.164,0.021,1.744
		c0.032,0.109,0.132,0.221,0.229,0.33c0.033,0.037,0.166,0.037,0.199,0.076c0.23,0.256,0.627,0.475,0.458,0.871
		c-0.103,0.18-0.534,0.252-0.8,0.252c-0.6,0-1.196-0.037-1.794-0.111c-0.399,0-0.798-0.073-1.062-0.48
		c-0.263-0.406-0.262-0.555,0.139-0.662c0.566-0.146,0.57-0.513,0.574-1.062c0.012-1.645,0.024-3.287,0.037-4.932
		c0.008-1.063-0.019-2.134,0.024-3.271c0.038-0.587-0.16-0.894-0.522-1.322c-0.099-0.129-0.197-0.259-0.295-0.389
		c-0.229-0.419-0.129-0.673,0.305-0.755c0.565-0.108,0.533-0.109,0.537-0.735c0.014-1.618,0.059-3.233,0.07-4.853
		c0.014-1.643,0.025-3.284,0.038-4.928c0.003-0.44,0.007-0.882,0.011-1.324c0.034-0.252-0.064-0.414-0.296-0.519
		c-0.299-0.149-0.53-0.329-0.762-0.546c-0.265-0.331-0.194-0.62,0.172-0.679c2.431-0.259,4.853,0.139,7.131,1.774
		c1.683,1.225,2.533,2.82,2.751,4.801c0.155,1.521,0.146,2.942-0.164,4.41c-0.412,1.943-1.484,3.219-3.217,3.912
		c-1.167,0.449-2.332,0.737-3.691,0.396C171.975,343.906,171.966,345.009,171.958,346.111z M171.987,329.222
		c0.012,2.819,0.022,5.636,0.035,8.452c-0.01,1.128,0.016,2.294-0.026,3.455c-0.002,0.328,0.131,0.445,0.362,0.354
		c0.668-0.205,1.367-0.335,1.998-0.572c1.367-0.574,2.072-1.75,2.383-3.238c0.311-1.418,0.32-2.86,0.231-4.287
		c-0.092-1.143-0.448-2.184-1.272-3.018c-1.053-1.119-2.279-1.453-3.709-1.473C171.989,329.002,171.987,329.113,171.987,329.222z"/>
	<path d="M180.539,344.912c0.004-0.584,0.008-1.205,0.045-1.789c0.036-0.308-0.129-0.527-0.427-0.655
		c-0.527-0.216-0.791-0.654-0.622-1.091c0.102-0.234,0.368-0.385,0.601-0.467c0.299-0.078,0.466-0.303,0.468-0.682
		c-0.086-1.63-0.009-3.21,0.034-4.824c0.046-1.479,0.056-2.959,0.165-4.426c0.035-0.373,0.004-0.584-0.426-0.76
		c-0.495-0.188-0.991-0.336-1.286-0.91c-0.098-0.12-0.096-0.295-0.062-0.463c0.033-0.064,0.166-0.146,0.399-0.211
		c0.134-0.012,0.265,0.012,0.396,0.068c1.719,0.816,3.474,0.854,5.191,1.213c0.659,0.125,1.32,0.152,1.98,0.379
		c0.626,0.221,1.22,0.468,1.845,0.721c0.265,0.148,0.394,0.596,0.261,0.859c-0.102,0.207-0.103,0.435-0.137,0.654
		c-0.033,0.155,0.064,0.465-0.035,0.479c-0.23,0.056-0.43,0.021-0.627-0.08c-0.627-0.273-0.789-0.762-0.818-1.391
		c-1-0.187-2.002-0.369-3.006-0.547c-0.363-0.099-0.76-0.168-1.156-0.238c-0.562-0.098-0.762,0.039-0.767,0.615
		c0.017,2.59,0,5.105,0.015,7.692c-0.004,0.646-0.008,1.292-0.012,1.937c-0.035,0.304,0.062,0.416,0.328,0.405
		c0.575,0.054,1.148,0.108,1.725,0.164c0.164,0.017,0.265-0.041,0.332-0.135c0.102-0.324,0.301-0.403,0.564-0.276
		c0.396,0.141,0.627,0.396,0.658,0.764c0.031,0.233,0.029,0.399,0.029,0.631c0.031,0.367-0.104,0.486-0.467,0.422
		c-0.961-0.186-1.923-0.237-2.851-0.417c-0.299-0.06-0.332,0.073-0.334,0.312c-0.011,1.463,0.015,2.857,0.004,4.318
		c-0.01,1.462-0.053,2.887-0.062,4.35c-0.002,0.17,0.031,0.271,0.062,0.51c1.03,0.017,2.061,0.033,3.091,0.05
		c0.365,0.006,0.664,0.011,1.03-0.015c0.165,0.002,0.232-0.062,0.268-0.227c0.101-0.261,0.137-0.523,0.235-0.75
		c0.103-0.293,0.335-0.416,0.666-0.342c0.365,0.107,0.664,0.181,0.761,0.572c0,0.127-0.033,0.193-0.066,0.226
		c-0.367,0.349-0.271,0.742-0.172,1.133c0.098,0.356-0.037,0.55-0.436,0.548c-1.695-0.014-3.391-0.06-5.086-0.072
		c-0.896-0.006-1.729,0.059-2.625-0.053c-0.365-0.004-0.663-0.179-0.961-0.354c-0.363-0.28-0.33-0.526,0.104-0.693
		c0.366-0.133,0.732-0.161,1.133-0.294C180.507,349.485,180.523,347.199,180.539,344.912z"/>
	<path d="M190.465,343.631c0.199-0.078,0.299-0.194,0.299-0.355c0.006-0.857,0.041-1.617,0.045-2.476
		c0.006-1.208,0.012-2.417,0.018-3.625c0.007-1.441,0.014-2.884,0.02-4.324c0.002-0.032,0.002-0.063,0.002-0.095
		c0.133-0.451-0.031-0.674-0.523-0.898c-0.23-0.142-0.428-0.341-0.592-0.6c-0.131-0.25,0.002-0.514,0.299-0.451
		c0.957,0.1,1.879,0.389,2.832,0.499c0.89,0.099,1.711,0.56,2.498,1.063c0.82,0.545,1.576,1.07,2.199,1.887
		c0.887,1.232,1.412,2.5,1.312,3.804c-0.1,1.041-0.135,2.122-0.268,3.164c-0.166,1.508-0.762,2.788-2.186,3.647
		c-0.23,0.129-0.199,0.224-0.1,0.443c0.48,1.501,0.965,2.98,1.447,4.439c0.267,0.815,0.596,1.596,0.86,2.396
		c0.133,0.444,0.299,0.682,0.797,0.776c0.101,0.001,0.067,0.058,0.165,0.09c0.366,0.208,0.6,0.673,0.434,0.759
		c-0.267,0.145-0.565,0.174-0.865,0.143c-0.564-0.09-0.997-0.121-1.297-0.032c-0.432,0.116-0.83-0.001-1.262-0.334
		c-0.298-0.273-0.298-0.427,0.068-0.634c0.166-0.088,0.232-0.235,0.166-0.416c-0.363-0.967-0.66-1.942-1.023-2.897
		c-0.492-1.328-0.82-2.569-1.215-3.921c-0.063-0.221-0.197-0.324-0.396-0.341c-0.397-0.003-0.763-0.065-1.159-0.067
		c-0.1-0.008-0.2,0.172-0.2,0.266c-0.004,0.914-0.007,1.83-0.011,2.746c-0.005,1.352-0.012,2.703-0.016,4.056
		c-0.002,0.343-0.002,0.528,0.362,0.657c0.433,0.162,0.729,0.627,0.63,0.875c-0.102,0.215-0.601,0.278-1.033,0.184
		c-0.164-0.094-0.362-0.094-0.529-0.188c-0.432-0.189-0.862-0.256-1.295-0.193c-0.565,0.061-0.997-0.068-1.295-0.391
		c-0.166-0.291-0.131-0.483,0.102-0.578c0.201-0.092,0.434-0.155,0.667-0.184c0.231-0.092,0.3-0.091,0.3-0.346
		c0.004-0.857,0.01-1.717,0.014-2.574c0.006-1.307,0.045-2.607,0.051-3.975c0.002-0.285,0.003-0.538-0.36-0.791
		c-0.297-0.154-0.429-0.42-0.792-0.807C190,343.843,190.232,343.705,190.465,343.631z M192.835,338.422
		c0.011,0.001,0.021,0.003,0.033,0.005c-0.007,1.748-0.015,3.495-0.021,5.241c-0.002,0.281,0.032,0.349,0.396,0.383
		c0.893,0.115,1.457-0.294,1.987-0.814c0.696-0.687,1.028-1.58,1.195-2.521c0.234-1.325,0.436-2.67,0.305-4.104
		c-0.129-1.584-0.914-2.918-2.59-3.854c-0.396-0.206-0.855-0.239-1.252-0.32c-0.033,0.274-0.035,0.524-0.035,0.806
		C192.848,334.968,192.842,336.695,192.835,338.422z"/>
</g>
</svg>
