<?xml version="1.0" encoding="utf-8"?>
<!-- Generator: Adobe Illustrator 14.0.0, SVG Export Plug-In . SVG Version: 6.00 Build 43363)  -->
<!DOCTYPE svg PUBLIC "-//W3C//DTD SVG 1.1//EN" "http://www.w3.org/Graphics/SVG/1.1/DTD/svg11.dtd" [
	<!ENTITY ns_extend "http://ns.adobe.com/Extensibility/1.0/">
	<!ENTITY ns_ai "http://ns.adobe.com/AdobeIllustrator/10.0/">
	<!ENTITY ns_graphs "http://ns.adobe.com/Graphs/1.0/">
	<!ENTITY ns_vars "http://ns.adobe.com/Variables/1.0/">
	<!ENTITY ns_imrep "http://ns.adobe.com/ImageReplacement/1.0/">
	<!ENTITY ns_sfw "http://ns.adobe.com/SaveForWeb/1.0/">
	<!ENTITY ns_custom "http://ns.adobe.com/GenericCustomNamespace/1.0/">
	<!ENTITY ns_adobe_xpath "http://ns.adobe.com/XPath/1.0/">
]>
<svg version="1.1" id="Layer_1" xmlns:x="&ns_extend;" xmlns:i="&ns_ai;" xmlns:graph="&ns_graphs;"
	 xmlns="http://www.w3.org/2000/svg" xmlns:xlink="http://www.w3.org/1999/xlink" x="0px" y="0px" width="360px" height="360px"
	 viewBox="0 0 360 360" enable-background="new 0 0 360 360" xml:space="preserve">
<switch>
	<g i:extraneous="self">
		<g>
			<path id="Swoosh_40_" d="M100.325,178.977c-0.686-2.238-2.615-3.477-4.123-3.682c-0.684-0.07-1.382-0.035-2.079,0.074
				c-3.66,0.627-6.953,3.713-9.768,6.643c-0.018-0.09-0.03-0.18-0.045-0.275c-0.05-0.326-0.095-0.672-0.235-0.986
				c-0.095-0.227-0.28-0.342-0.486-0.301c-0.195,0.029-0.375,0.186-0.471,0.391c-0.09,0.191-0.1,0.391-0.015,0.576
				c0.115,0.275,0.155,0.592,0.21,0.926c0.025,0.207,0.058,0.412,0.103,0.611l-0.233,0.236c-0.125,0.115-0.396,0.391-0.684,0.682
				c-0.223,0.225-0.454,0.445-0.634,0.635l-0.065-0.32c-0.095-0.471-0.19-0.945-0.296-1.406c-0.065-0.291-0.288-0.451-0.556-0.406
				c-0.175,0.029-0.341,0.15-0.438,0.301c-0.088,0.154-0.118,0.324-0.078,0.49c0.095,0.455,0.19,0.896,0.281,1.342
				c0.065,0.311,0.125,0.627,0.195,0.928c-0.256,0.225-0.691,0.602-1.102,0.957c-0.256,0.221-0.506,0.43-0.702,0.596
				c-0.163-0.561-0.32-1.111-0.446-1.658c-0.07-0.281-0.295-0.441-0.566-0.396c-0.18,0.035-0.351,0.15-0.446,0.316
				c-0.085,0.131-0.108,0.295-0.07,0.451c0.175,0.721,0.383,1.428,0.586,2.113c-3.201,2.645-4.827,3.771-8.819,5.02
				c-0.534,0.156-1.072,0.291-1.605,0.381c-1.946,0.35-3.519,0.119-4.012-0.557c-0.21-0.285-0.228-0.65-0.043-1.137
				c0.343-0.996,1.14-1.627,2.222-2.414c0.286-0.205,0.691-0.355,1.145-0.436c0.767-0.125,1.2,0.029,1.235,0.115
				c0,0-0.01,0.266-0.901,0.785c-0.293,0.172-0.328,0.432-0.276,0.602c0.095,0.295,0.441,0.41,0.767,0.24
				c0.937-0.49,1.458-1.223,1.325-1.848c-0.052-0.23-0.271-0.781-1.27-0.848c-1.46-0.074-2.883,0.646-4.346,2.234
				c-0.899,0.902-1.29,2.154-0.994,3.166c0.213,0.746,0.776,1.268,1.542,1.408c1.012,0.205,2.034,0.205,3.116,0.004
				c0.771-0.119,1.482-0.33,2.176-0.535c0.323-0.1,0.646-0.189,0.959-0.26c3.551-0.973,4.839-2.029,7.389-4.129
				c0.235-0.195,0.48-0.395,0.736-0.605c0.105,0.355,0.215,0.777,0.315,1.182c0.067,0.301,0.32,0.471,0.611,0.416
				c0.172-0.035,0.333-0.135,0.42-0.285c0.075-0.131,0.095-0.295,0.058-0.441c-0.133-0.59-0.298-1.146-0.448-1.688
				c0.186-0.16,0.453-0.396,0.744-0.637c0.358-0.305,0.719-0.602,0.982-0.836c0.075,0.275,0.143,0.531,0.213,0.781
				c0.083,0.285,0.331,0.451,0.616,0.4c0.175-0.029,0.335-0.145,0.416-0.295c0.08-0.135,0.095-0.307,0.05-0.471
				c-0.113-0.387-0.228-0.826-0.338-1.312l0.153-0.146c0.15-0.154,0.521-0.51,0.881-0.871c0.193-0.205,0.396-0.406,0.556-0.566
				c0.05,0.191,0.09,0.391,0.138,0.586c0.065,0.307,0.308,0.482,0.588,0.432c0.173-0.029,0.326-0.145,0.421-0.295
				c0.085-0.141,0.11-0.316,0.073-0.486c-0.09-0.396-0.18-0.781-0.278-1.172c2.449-2.561,6.106-6.338,9.372-6.898
				c1.08-0.189,2.079-0.01,2.943,0.516c1.325,0.822,1.869,3.152,1.328,5.691c-0.388,1.812-1.145,3.801-3.8,4.809
				c-0.175,0.07-0.375,0.121-0.591,0.154c-1.3,0.221-3.031-0.104-3.562-1.021c-0.306-0.52-0.19-1.201,0.355-2.039
				c0.155-0.25,0.155-0.57,0.005-0.836c-0.125-0.205-0.326-0.32-0.526-0.285c-0.093,0.02-0.22,0.074-0.331,0.25
				c-1.097,1.654-0.872,2.785-0.488,3.441c1.009,1.748,4.115,2.129,6.149,1.553c1.883-0.531,3.346-1.773,4.223-3.582
				C100.861,182.783,100.761,180.359,100.325,178.977z"/>
			<path id="Swoosh_39_" d="M261.918,178.977c0.69-2.238,2.619-3.477,4.13-3.682c0.681-0.07,1.375-0.035,2.073,0.074
				c3.665,0.627,6.95,3.713,9.771,6.643c0.016-0.09,0.03-0.18,0.046-0.275c0.05-0.326,0.1-0.672,0.235-0.986
				c0.09-0.227,0.28-0.342,0.49-0.301c0.186,0.029,0.366,0.186,0.466,0.391c0.091,0.191,0.096,0.391,0.021,0.576
				c-0.125,0.275-0.165,0.592-0.216,0.926c-0.024,0.207-0.055,0.412-0.1,0.611l0.23,0.236c0.12,0.115,0.396,0.391,0.686,0.682
				c0.216,0.225,0.451,0.445,0.637,0.635l0.06-0.32c0.096-0.471,0.186-0.945,0.291-1.406c0.07-0.291,0.29-0.451,0.563-0.406
				c0.17,0.029,0.341,0.15,0.436,0.301c0.088,0.154,0.115,0.324,0.078,0.49c-0.096,0.455-0.188,0.896-0.278,1.342
				c-0.065,0.311-0.125,0.627-0.19,0.928c0.256,0.225,0.684,0.602,1.1,0.957c0.256,0.221,0.506,0.43,0.699,0.596
				c0.165-0.561,0.322-1.111,0.45-1.658c0.065-0.281,0.296-0.441,0.563-0.396c0.176,0.035,0.349,0.15,0.443,0.316
				c0.083,0.131,0.108,0.295,0.068,0.451c-0.168,0.721-0.376,1.428-0.587,2.113c3.201,2.645,4.829,3.771,8.821,5.02
				c0.531,0.156,1.072,0.291,1.604,0.381c1.943,0.35,3.517,0.119,4.012-0.557c0.206-0.285,0.221-0.65,0.046-1.137
				c-0.346-0.996-1.138-1.627-2.225-2.414c-0.28-0.205-0.691-0.355-1.137-0.436c-0.771-0.125-1.207,0.029-1.242,0.115
				c0,0,0.01,0.266,0.901,0.785c0.301,0.172,0.336,0.432,0.275,0.602c-0.09,0.295-0.436,0.41-0.771,0.24
				c-0.932-0.49-1.452-1.223-1.322-1.848c0.05-0.23,0.275-0.781,1.272-0.848c1.463-0.074,2.88,0.646,4.343,2.234
				c0.896,0.902,1.292,2.154,0.997,3.166c-0.221,0.746-0.776,1.268-1.543,1.408c-1.012,0.205-2.023,0.205-3.11,0.004
				c-0.776-0.119-1.493-0.33-2.185-0.535c-0.32-0.1-0.641-0.189-0.967-0.26c-3.546-0.973-4.824-2.029-7.373-4.129
				c-0.235-0.195-0.486-0.395-0.744-0.605c-0.101,0.355-0.208,0.777-0.313,1.182c-0.067,0.301-0.312,0.471-0.605,0.416
				c-0.176-0.035-0.331-0.135-0.424-0.285c-0.072-0.131-0.095-0.295-0.06-0.441c0.138-0.59,0.3-1.146,0.453-1.688
				c-0.186-0.16-0.458-0.396-0.752-0.637c-0.355-0.305-0.719-0.602-0.981-0.836c-0.07,0.275-0.141,0.531-0.213,0.781
				c-0.083,0.285-0.333,0.451-0.613,0.4c-0.176-0.029-0.336-0.145-0.421-0.295c-0.075-0.135-0.091-0.307-0.045-0.471
				c0.11-0.387,0.225-0.826,0.34-1.312l-0.155-0.146c-0.155-0.154-0.521-0.51-0.881-0.871c-0.19-0.205-0.401-0.406-0.562-0.566
				c-0.045,0.191-0.09,0.391-0.135,0.586c-0.065,0.307-0.306,0.482-0.586,0.432c-0.176-0.029-0.326-0.145-0.421-0.295
				c-0.088-0.141-0.115-0.316-0.075-0.486c0.09-0.396,0.186-0.781,0.275-1.172c-2.442-2.561-6.094-6.338-9.37-6.898
				c-1.082-0.189-2.068-0.01-2.938,0.516c-1.328,0.822-1.874,3.152-1.33,5.691c0.386,1.812,1.145,3.801,3.802,4.809
				c0.173,0.07,0.376,0.121,0.586,0.154c1.298,0.221,3.033-0.104,3.566-1.021c0.306-0.52,0.181-1.201-0.357-2.039
				c-0.153-0.25-0.155-0.57-0.005-0.836c0.127-0.205,0.328-0.32,0.523-0.285c0.095,0.02,0.228,0.074,0.343,0.25
				c1.09,1.654,0.861,2.785,0.48,3.441c-1.014,1.748-4.117,2.129-6.153,1.553c-1.884-0.531-3.341-1.773-4.226-3.582
				C261.384,182.783,261.489,180.359,261.918,178.977z"/>
		</g>
		<g class="webDeveloper-letters">
			<path d="M105.552,171.338c0.221,0.751,0.441,1.508,0.663,2.271c0.398,1.344,0.698,2.661,0.999,4.049
				c0.301,1.39,0.47,2.807,0.838,4.213c0.369,1.438,0.672,2.927,1.042,4.486c0.099-0.158,0.132-0.254,0.165-0.349
				c0.36-1.232,0.554-2.462,0.947-3.719c0.349-1.148,0.697-2.308,1.044-3.477c0.228-0.871,0.455-1.747,0.683-2.628
				c0-0.011,0-0.021,0-0.032c0.032-0.227,0.229-0.511,0.129-0.655c-0.1-0.145-0.332-0.143-0.563-0.235
				c-0.166-0.102-0.299-0.272-0.564-0.453c0.297-0.14,0.429-0.256,0.66-0.324c0.495-0.172,0.99-0.217,1.485-0.39
				c0.693-0.203,1.354-0.242,1.886,0.237c0.266,0.256,0.201,0.462-0.162,0.611c-0.265,0.135-0.462,0.163-0.694,0.227
				c1.046,3.75,1.996,7.48,2.982,11.325c0.022-0.001,0.044-0.002,0.066-0.003c0.13-0.481,0.26-0.965,0.389-1.449
				c0.778-2.978,1.324-5.852,2.066-8.918c0.257-1.081,0.516-2.101,0.74-3.188c0.257-1.262,0.48-2.528,0.703-3.763
				c0.098-0.324,0.228-0.655,0.127-0.878c-0.101-0.224-0.465-0.162-0.73-0.252c-0.1-0.017-0.166-0.04-0.166-0.074
				c-0.134-0.214-0.234-0.334-0.335-0.553c0.23-0.144,0.428-0.35,0.66-0.357c0.53,0.007,0.959-0.204,1.454-0.534
				c0.626-0.387,1.125-0.267,1.689-0.188c0.133,0.048,0.266,0.2,0.434,0.417c0.1,0.089,0.002,0.316-0.096,0.471
				c-0.099,0.121-0.198,0.172-0.363,0.234c-0.629,0.208-0.626,0.59-0.722,1.126c-0.378,2.699-0.625,5.195-1.304,7.749
				c-0.486,1.738-0.773,3.407-1.159,5.177c-0.387,1.667-0.774,3.32-1.129,4.957c-0.268,1.296-0.537,2.584-0.805,3.864
				c0.366,0.128,0.667,0.261,0.966,0.395c0.2,0.133,0.334,0.235,0.367,0.267c0.134,0.171,0.202,0.373,0.303,0.544
				c-0.231,0.103-0.43,0.307-0.662,0.307c-0.299,0.001-0.632-0.069-0.966-0.236c-0.567-0.233-1.065-0.23-1.697-0.195
				c-0.432,0.034-0.897-0.03-1.33-0.127c-0.1,0.001-0.2-0.063-0.301-0.161c-0.267-0.294-0.235-0.489,0.13-0.656
				c0.232-0.101,0.398-0.103,0.63-0.204c-0.953-3.743-1.902-7.401-2.847-10.97c-0.033,0.004-0.033-0.029-0.066-0.025
				c-0.099,0.269-0.13,0.529-0.229,0.765c-0.617,2.373-1.138,4.61-1.691,6.912c-0.294,1.118-0.555,2.23-0.916,3.331
				c-0.032,0.188,0.034,0.313,0.201,0.405c0.3,0.218,0.6,0.372,0.834,0.593c0.233,0.221,0.201,0.411-0.165,0.507
				c-0.63,0.221-1.097-0.031-1.629-0.186c-0.366-0.124-0.766-0.152-1.164-0.243c-0.433-0.09-0.898-0.087-1.331-0.176
				c-0.166-0.091-0.3-0.24-0.4-0.452c0-0.09,0.232-0.215,0.398-0.307c0.2-0.096,0.365-0.128,0.498-0.13
				c0.366,0.024,0.498-0.131,0.397-0.497c-0.369-1.371-0.639-2.732-0.94-4.081c-0.167-0.729-0.335-1.454-0.502-2.176
				c-0.368-1.389-0.569-2.75-0.868-4.122c-0.366-1.629-0.633-3.198-0.997-4.792c-0.231-0.877-0.43-1.725-0.693-2.581
				c-0.099-0.126-0.263-0.207-0.395-0.267c-0.295-0.14-0.656-0.147-0.886-0.298c-0.197-0.157-0.131-0.316,0.164-0.473
				c0.229-0.083,0.361-0.142,0.426-0.129c0.394-0.002,0.722-0.194,1.083-0.424c0.558-0.366,1.411-0.445,1.839-0.147
				c0.099,0.099,0.165,0.205,0.297,0.389C106.11,170.918,105.847,171.126,105.552,171.338z"/>
			<path d="M127.394,182.277c-0.004-0.604-0.009-1.248,0.019-1.858c0.031-0.323-0.137-0.525-0.437-0.61
				c-0.532-0.139-0.801-0.542-0.639-1.015c0.098-0.257,0.362-0.457,0.594-0.583c0.298-0.133,0.462-0.396,0.459-0.789
				c-0.112-1.668-0.058-3.315-0.038-4.997c0.021-1.54,0.01-3.074,0.098-4.624c0.031-0.397-0.005-0.607-0.437-0.648
				c-0.498-0.032-0.996-0.026-1.298-0.509c-0.1-0.089-0.102-0.266-0.07-0.448c0.033-0.077,0.165-0.204,0.396-0.349
				c0.132-0.056,0.264-0.078,0.397-0.065c1.728,0.255,3.484-0.296,5.211-0.512c0.665-0.096,1.328-0.301,1.993-0.283
				c0.632,0.022,1.231,0.091,1.865,0.157c0.266,0.076,0.403,0.547,0.272,0.9c-0.098,0.274-0.096,0.536-0.126,0.8
				c-0.032,0.192,0.071,0.517-0.029,0.564c-0.231,0.141-0.432,0.165-0.631,0.114c-0.633-0.109-0.803-0.607-0.841-1.307
				c-1.008,0.132-2.016,0.268-3.023,0.408c-0.365,0.015-0.764,0.071-1.162,0.128c-0.564,0.081-0.762,0.291-0.757,0.903
				c0.054,2.74,0.075,5.41,0.128,8.151c0.005,0.686,0.011,1.372,0.016,2.058c-0.03,0.328,0.07,0.429,0.335,0.371
				c0.576-0.045,1.152-0.089,1.728-0.133c0.166-0.013,0.265-0.093,0.331-0.208c0.097-0.374,0.295-0.5,0.562-0.41
				c0.4,0.08,0.634,0.319,0.671,0.723c0.035,0.254,0.037,0.439,0.039,0.698c0.036,0.404-0.095,0.559-0.461,0.547
				c-0.964-0.046-1.928,0.055-2.859,0.012c-0.299-0.014-0.332,0.132-0.33,0.385c0.012,1.554,0.057,3.031,0.068,4.584
				c0.012,1.554-0.01,3.071,0.002,4.624c0.001,0.181,0.036,0.288,0.071,0.54c1.03-0.014,2.061-0.026,3.091-0.039
				c0.366-0.005,0.665-0.008,1.03-0.049c0.167-0.002,0.232-0.076,0.264-0.263c0.097-0.297,0.129-0.594,0.227-0.855
				c0.098-0.335,0.329-0.487,0.661-0.42c0.367,0.104,0.667,0.173,0.77,0.62c0.001,0.146-0.031,0.225-0.065,0.261
				c-0.362,0.417-0.259,0.861-0.156,1.309c0.103,0.407-0.029,0.632-0.428,0.634c-1.696,0.009-3.391-0.017-5.086-0.006
				c-0.897,0.006-1.728,0.082-2.626-0.02c-0.366,0.002-0.666-0.173-0.966-0.348c-0.368-0.278-0.336-0.526,0.094-0.709
				c0.365-0.146,0.73-0.188,1.128-0.337C127.429,187.012,127.411,184.645,127.394,182.277z"/>
			<path d="M145.934,184.274c0.112,1.868-0.076,3.592-0.83,5.271c-0.164,0.389-0.395,0.701-0.692,0.898
				c-1.058,0.819-2.221,0.932-3.418,0.783c-0.133,0.001-0.2,0.001-0.232,0.039c-0.431,0.192-0.864,0.115-1.364-0.148
				c-0.401-0.228-0.799-0.187-1.196,0.155c-0.462,0.342-0.962,0.303-1.463-0.109c-0.368-0.262-0.371-0.671-0.007-0.977
				c0.396-0.377,0.893-0.57,1.525-0.577c0.366-0.004,0.431-0.156,0.428-0.572c-0.015-1.97,0.004-3.978-0.011-5.946
				c-0.004-0.618-0.009-1.237-0.014-1.855c-0.001-0.113-0.168-0.219-0.269-0.328c-0.235-0.254-0.502-0.353-0.736-0.604
				c-0.101-0.108-0.103-0.41-0.004-0.529c0.198-0.274,0.395-0.475,0.594-0.6c0.365-0.134,0.397-0.325,0.394-0.743
				c-0.016-2.183-0.032-4.367-0.048-6.55c-0.015-1.97-0.029-3.939-0.01-5.912c-0.002-0.303-0.103-0.33-0.336-0.416
				c-0.368-0.107-0.768-0.134-1.068-0.359c-0.234-0.084-0.37-0.443-0.338-0.635c0.097-0.351,0.397-0.391,0.63-0.307
				c0.834,0.232,1.667,0.132,2.463-0.269c0.266-0.147,0.6,0.042,0.9,0.045c0.634,0.041,1.267,0.045,1.901,0.129
				c1.869,0.296,2.746,1.654,3.326,3.596c0.511,1.675,0.49,3.441,0.468,5.28c-0.027,0.902,0.011,1.721-0.149,2.628
				c-0.288,1.855-0.978,3.332-2.604,4.027C145.211,180.823,145.821,182.365,145.934,184.274z M140.391,172.487
				c0.007,0.992,0.014,1.985,0.021,2.977c0.008,1.094,0.016,2.188,0.024,3.283c0.002,0.268,0.003,0.459,0.303,0.403
				c0.963-0.241,1.859-0.557,2.62-1.372c0.694-0.771,1.054-1.687,1.113-2.816c0.122-1.677,0.144-3.388,0.065-5.051
				c-0.043-1.433-0.353-2.769-1.126-3.89c-0.303-0.395-0.671-0.627-1.072-0.7c-0.568-0.131-1.167,0.051-1.797,0.465
				c-0.099,0.048-0.198,0.289-0.197,0.442c-0.018,2.14-0.003,4.124,0.013,6.262C140.369,172.489,140.38,172.488,140.391,172.487z
				 M140.484,185.352c0.011-0.001,0.022-0.001,0.034-0.001c0.009,1.184-0.017,2.253-0.009,3.435
				c-0.024,1.224,0.01,1.413,1.106,1.136c0.697-0.119,1.394-0.355,1.687-1.248c0.424-1.202,0.683-2.33,0.773-3.573
				c0.09-1.436-0.086-2.787-0.792-3.957c-0.102-0.266-0.303-0.373-0.47-0.52c-0.636-0.434-1.3-0.17-1.964-0.024
				c-0.266,0.051-0.398,0.249-0.396,0.592C140.464,182.577,140.475,183.965,140.484,185.352z"/>
			<path d="M156.623,184.951c-0.009-1.811-0.018-3.622,0.006-5.436c-0.002-0.362-0.037-0.685-0.338-0.875
				c-0.134-0.157-0.201-0.275-0.234-0.313c-0.504-0.748-0.406-1.15,0.225-1.657c0.266-0.212,0.298-0.415,0.296-0.776
				c0.021-2.579,0.042-4.916,0.029-7.493c-0.006-1.249-0.012-2.376,0.016-3.627c-0.002-0.363-0.036-0.481-0.403-0.497
				c-0.368-0.017-0.736-0.151-1.137-0.243c-0.101-0.034-0.167,0.012-0.201-0.107c-0.124-0.231-0.248-0.462-0.371-0.694
				c0.233-0.138,0.366-0.268,0.6-0.285c1.058-0.078,2.116-0.15,3.174-0.218c1.169-0.075,2.24-0.017,3.213,0.705
				c1.576,1.179,2.718,2.726,3.626,4.699c0.909,1.934,1.115,4.064,1.155,6.236c0.005,1.764,0.078,3.484-0.183,5.254
				c-0.262,1.643-0.457,3.284-0.817,4.885c-0.295,1.437-0.856,2.71-1.885,3.656c-0.531,0.493-0.994,1.106-1.491,1.637
				c-0.795,0.817-1.691,1.145-2.721,1.268c-0.1,0-0.167,0-0.199,0.04c-0.763,0.367-1.529,0.204-2.295-0.074
				c-0.233-0.122-0.499-0.081-0.797,0.04c-0.431,0.201-0.797,0.162-1.165-0.117c-0.4-0.28-0.436-0.601-0.072-1.041
				c0.496-0.444,1.028-0.407,1.561-0.371c0.233-0.001,0.365-0.002,0.433,0.037C156.638,188.039,156.63,186.495,156.623,184.951z
				 M158.529,186.823c0.004,0.917,0.008,1.833,0.013,2.749c0.366-0.122,0.697-0.204,0.963-0.368
				c0.795-0.613,1.324-1.389,2.087-2.168c1.159-1.271,1.686-2.79,1.98-4.468c0.424-2.458,0.816-4.879,0.707-7.372
				c-0.039-1.429-0.01-2.78-0.148-4.125c-0.241-2.159-1.182-3.923-2.358-5.454c-0.807-1.102-1.713-1.824-3.016-1.624
				c-0.368,0.062-0.434,0.147-0.432,0.592c0.05,3.57,0.1,7.141,0.15,10.712c0.004,0.768-0.093,1.539,0.477,2.129
				c0.101,0.118,0.135,0.36,0.169,0.52c0.103,0.484,0.003,0.81-0.328,1.022c-0.266,0.169-0.298,0.413-0.297,0.696
				C158.507,182.052,158.518,184.438,158.529,186.823z"/>
			<path d="M168.964,180.81c-0.002-0.697-0.004-1.439,0.028-2.14c0.033-0.371-0.135-0.615-0.435-0.733
				c-0.535-0.197-0.802-0.685-0.637-1.221c0.099-0.291,0.366-0.501,0.599-0.628c0.3-0.13,0.466-0.421,0.464-0.873
				c-0.104-1.932-0.042-3.826-0.014-5.76c0.03-1.771,0.025-3.54,0.121-5.312c0.033-0.453-0.002-0.699-0.437-0.808
				c-0.501-0.108-1.003-0.172-1.307-0.778c-0.101-0.119-0.101-0.324-0.068-0.53c0.033-0.084,0.167-0.212,0.401-0.344
				c0.134-0.045,0.268-0.05,0.401-0.015c1.741,0.555,3.514,0.178,5.255,0.185c0.669-0.013,1.338-0.148,2.008-0.034
				c0.636,0.115,1.239,0.274,1.875,0.434c0.268,0.122,0.402,0.66,0.269,1.033c-0.101,0.29-0.101,0.58-0.133,0.869
				c-0.033,0.208,0.067,0.58-0.033,0.621c-0.234,0.127-0.435,0.129-0.636,0.047c-0.636-0.201-0.803-0.777-0.837-1.563
				c-1.015,0.012-2.03,0.028-3.045,0.049c-0.368-0.033-0.77-0.024-1.171-0.015c-0.568,0.014-0.769,0.226-0.768,0.925
				c0.04,3.133,0.046,6.183,0.086,9.315c0.002,0.783,0.003,1.566,0.005,2.35c-0.033,0.372,0.067,0.495,0.334,0.449
				c0.578-0.008,1.156-0.015,1.735-0.021c0.167-0.001,0.267-0.084,0.333-0.21c0.1-0.414,0.299-0.54,0.566-0.418
				c0.401,0.121,0.634,0.407,0.668,0.862c0.034,0.288,0.034,0.496,0.034,0.785c0.034,0.455-0.099,0.621-0.466,0.583
				c-0.968-0.116-1.935-0.067-2.869-0.18c-0.3-0.036-0.333,0.128-0.332,0.417c0.003,1.774,0.04,3.462,0.043,5.235
				c0.003,1.774-0.026,3.505-0.022,5.277c0,0.207,0.033,0.331,0.067,0.618c1.031-0.003,2.062-0.005,3.093-0.006
				c0.366-0.001,0.666-0.001,1.031-0.042c0.167,0,0.233-0.083,0.266-0.29c0.099-0.33,0.132-0.662,0.232-0.952
				c0.1-0.372,0.332-0.537,0.665-0.455c0.366,0.123,0.666,0.205,0.766,0.703c0,0.163-0.033,0.248-0.066,0.288
				c-0.366,0.456-0.266,0.952-0.166,1.45c0.1,0.453-0.032,0.701-0.432,0.701c-1.696,0.001-3.392-0.038-5.087-0.036
				c-0.898,0.001-1.729,0.085-2.628-0.039c-0.366,0.001-0.665-0.204-0.965-0.409c-0.367-0.326-0.334-0.615,0.097-0.821
				c0.366-0.165,0.732-0.207,1.13-0.373C168.978,186.269,168.971,183.539,168.964,180.81z"/>
			<path d="M187.18,189.98c0.3,0.287,0.665,0.453,0.896,0.785c0.365,0.453,0.198,0.741-0.234,0.865
				c-0.232,0.041-0.433,0.083-0.665-0.041c-0.664-0.372-1.363-0.042-2.026-0.166c-0.366-0.042-0.666-0.084-1.031-0.248
				c-0.133-0.124-0.266-0.332-0.365-0.622c-0.033-0.124,0.199-0.29,0.333-0.413c0.1-0.124,0.2-0.082,0.299-0.124
				c0.233,0,0.3-0.123,0.2-0.412c-0.529-2.482-1.094-4.717-1.591-7.199c-0.665-3.479-1.229-6.75-1.896-10.229
				c-0.367-1.78-0.534-3.519-0.901-5.299c-0.234-1.035-0.368-2.07-0.602-3.062c0-0.167-0.168-0.249-0.301-0.374
				c-0.436-0.163-0.904-0.244-1.173-0.781c-0.167-0.454-0.1-0.662,0.167-0.663c0.67,0.039,1.239-0.418,1.875-0.376
				c0.501,0,1.038,0.083,1.338,0.747c0.135,0.292,0.101,0.498-0.066,0.622c-0.168,0.123-0.234,0.372-0.168,0.66
				c0.368,1.451,0.669,2.86,0.935,4.31c0.366,1.781,0.532,3.604,0.897,5.424c0.634,3.149,0.997,6.336,1.826,9.44
				c0.033,0.124,0.066,0.249,0.1,0.373c0.034,0,0.067,0,0.101,0c0.234-1.03,0.302-2.023,0.536-3.055
				c0.516-2.807,1.031-5.611,1.548-8.411c0.27-1.441,0.505-2.924,0.876-4.36c0.235-1.055,0.472-2.108,0.708-3.161
				c0.102-0.328,0.001-0.454-0.266-0.625c-0.301-0.213-0.568-0.426-0.77-0.678c-0.099-0.125-0.132-0.291-0.099-0.457
				c0.1-0.121,0.234-0.2,0.402-0.196c0.233,0.005,0.501,0.094,0.735,0.143c0.268,0.007,0.534,0.014,0.77-0.104
				c0.637-0.312,1.54-0.036,1.939,0.595c0.166,0.21,0.132,0.415-0.068,0.613c-0.145,0.105-0.29,0.21-0.436,0.315
				c-0.134,0.12-0.302,0.28-0.336,0.443c-0.565,3.057-1.129,6.121-1.691,9.189c-0.505,2.672-0.845,5.392-1.349,8.07
				c-0.235,1.112-0.37,2.186-0.538,3.3c-0.169,1.32-0.271,2.642-0.439,4.004c-0.034,0.289-0.066,0.536-0.168,0.868
				C186.715,189.812,186.947,189.856,187.18,189.98z"/>
			<path d="M193.995,180.851c0.003-0.695,0.005-1.434,0.039-2.131c0.034-0.368-0.131-0.617-0.431-0.746
				c-0.533-0.214-0.799-0.712-0.63-1.241c0.101-0.287,0.368-0.486,0.603-0.604c0.3-0.118,0.468-0.401,0.469-0.851
				c-0.094-1.929-0.021-3.813,0.019-5.738c0.038-1.762,0.044-3.524,0.15-5.283c0.035-0.449,0.003-0.696-0.433-0.836
				c-0.501-0.144-1.002-0.243-1.302-0.871c-0.101-0.126-0.1-0.332-0.065-0.536c0.035-0.082,0.168-0.199,0.402-0.314
				c0.134-0.035,0.268-0.03,0.401,0.016c1.738,0.684,3.512,0.438,5.25,0.576c0.669,0.037,1.337-0.046,2.007,0.116
				c0.633,0.16,1.234,0.36,1.869,0.563c0.267,0.138,0.397,0.672,0.263,1.027c-0.103,0.276-0.104,0.559-0.139,0.838
				c-0.034,0.201,0.064,0.57-0.036,0.604c-0.234,0.108-0.436,0.096-0.635,0.003c-0.633-0.238-0.798-0.814-0.828-1.586
				c-1.014-0.061-2.027-0.116-3.042-0.167c-0.366-0.059-0.769-0.079-1.17-0.098c-0.567-0.027-0.769,0.169-0.771,0.863
				c0.022,3.108,0.012,6.132,0.033,9.239c-0.003,0.776-0.006,1.553-0.008,2.329c-0.034,0.368,0.065,0.493,0.333,0.458
				c0.578,0.015,1.156,0.03,1.733,0.046c0.167,0.004,0.268-0.074,0.334-0.194c0.102-0.404,0.302-0.52,0.569-0.39
				c0.398,0.135,0.631,0.425,0.663,0.874c0.032,0.285,0.031,0.488,0.03,0.772c0.031,0.448-0.104,0.606-0.47,0.557
				c-0.966-0.148-1.934-0.133-2.865-0.277c-0.301-0.047-0.336,0.115-0.337,0.401c-0.006,1.758,0.022,3.433,0.017,5.19
				c-0.007,1.759-0.047,3.474-0.053,5.231c-0.001,0.205,0.033,0.327,0.064,0.612c1.031,0.005,2.062,0.01,3.094,0.015
				c0.366,0.002,0.665,0.003,1.031-0.034c0.167,0.001,0.232-0.08,0.267-0.283c0.103-0.323,0.137-0.647,0.237-0.931
				c0.102-0.364,0.335-0.522,0.668-0.438c0.365,0.124,0.664,0.207,0.762,0.694c-0.001,0.159-0.034,0.241-0.068,0.28
				c-0.367,0.442-0.271,0.929-0.173,1.415c0.099,0.443-0.036,0.685-0.435,0.684c-1.697-0.004-3.392-0.048-5.089-0.051
				c-0.897-0.002-1.729,0.079-2.626-0.047c-0.366,0-0.665-0.205-0.963-0.412c-0.364-0.327-0.331-0.617,0.102-0.82
				c0.366-0.162,0.732-0.202,1.133-0.365C193.979,186.29,193.987,183.57,193.995,180.851z"/>
			<path d="M206.873,189.603c1.84,0.012,3.681,0.024,5.521,0.039c0.136-0.508,0.305-0.897,0.473-1.249
				c0.103-0.195,0.235-0.312,0.401-0.309c0.366,0.044,0.698,0.166,0.964,0.286c0.298,0.12,0.429,0.396,0.359,0.823
				c-0.069,0.465,0.026,0.972,0.256,1.479c0.197,0.352,0.129,0.545-0.203,0.622c-0.3,0.116-0.533,0.116-0.698-0.002
				c-0.63-0.312-1.229-0.198-1.86-0.199c-1.896-0.043-3.757-0.009-5.652-0.053c-0.798-0.041-1.562-0.365-2.394-0.046
				c-0.233,0.119-0.565-0.163-0.829-0.324c-0.266-0.203-0.298-0.688,0.07-0.966c0.435-0.28,0.866-0.359,1.367-0.636
				c0.007-1.244,0.013-2.488,0.02-3.732c0.011-2.114,0.022-4.229,0.033-6.343c0.014-2.582,0.027-5.164,0.04-7.745
				c0.012-2.248,0.091-4.532,0.103-6.779c0.001-0.081-0.065-0.206-0.198-0.375c-0.232-0.217-0.432-0.352-0.599-0.564
				c-0.232-0.298-0.131-0.613,0.171-0.631c0.802-0.064,1.604-0.164,2.405-0.14c0.503,0.04,0.935,0.315,1.266,0.82
				c0.1,0.248,0.064,0.443-0.104,0.589c-0.102,0.032-0.201,0.104-0.302,0.097c-0.5,0-0.536,0.318-0.54,0.916
				c0.005,3.181,0.01,6.361,0.015,9.541c0.02,2.395,0.006,4.79-0.008,7.184c-0.013,2.393-0.06,4.788-0.073,7.181
				C206.875,189.258,206.874,189.431,206.873,189.603z"/>
			<path d="M214.626,179.111c0.002-0.312-0.129-0.591-0.361-0.796c-0.298-0.289-0.527-0.611-0.759-0.937
				c-0.033-0.119-0.031-0.237,0.002-0.273c0.236-0.418,0.438-0.876,0.939-1.002c0.167-0.03,0.267-0.142,0.268-0.335
				c0.142-1.277,0.186-2.596,0.326-3.869c0.247-1.964,0.36-3.9,1.006-5.698c0.545-1.536,1.52-2.668,3.551-2.386
				c1.964,0.237,3.221,1.502,3.803,3.783c0.354,1.543,0.574,3.139,0.596,4.788c0.022,1.462-0.021,2.844,0.067,4.235
				c-0.001,0.188,0.163,0.461,0.295,0.62c0.661,0.683,0.658,0.977,0.222,1.509c-0.168,0.25-0.369,0.349-0.504,0.603
				c-0.1,0.107-0.135,0.254-0.137,0.441c-0.119,2.614-0.404,5.222-0.856,7.804c-0.173,0.898-0.312,1.836-0.95,2.548
				c-1.24,1.461-2.67,1.435-4.227,0.619c-1.425-0.735-2.08-2.138-2.568-3.697c-0.65-2.069-0.737-4.219-0.723-6.398
				C214.619,180.148,214.622,179.629,214.626,179.111z M216.758,183.731c0.088,1.817,0.408,3.524,1.229,5.034
				c0.229,0.427,0.526,0.697,0.89,1.007c0.132,0.153,0.266,0.193,0.433,0.081c0.634-0.338,1.202-0.789,1.374-1.583
				c0.276-1.363,0.619-2.757,0.762-4.114c0.251-2.414,0.435-4.671,0.552-6.968c0.11-1.504-0.011-3.061-0.033-4.576
				c0.011-1.473-0.077-2.955-0.333-4.459c-0.127-0.884-0.386-1.785-0.88-2.564c-0.23-0.369-0.562-0.561-0.996-0.496
				c-0.634,0.118-0.938,0.583-1.308,1.158c-0.675,1.12-0.817,2.341-0.992,3.597c-0.246,1.79-0.425,3.513-0.57,5.318
				c-0.109,1.343-0.186,2.653-0.229,4.235C216.646,180.677,216.669,182.224,216.758,183.731z"/>
			<path d="M229.33,183.803c-0.012,1.563-0.056,3.126-0.068,4.691c-0.004,0.582-0.009,1.164,0.02,1.745
				c0.032,0.109,0.132,0.22,0.229,0.33c0.034,0.036,0.167,0.037,0.2,0.075c0.23,0.256,0.627,0.475,0.458,0.871
				c-0.102,0.181-0.534,0.252-0.8,0.252c-0.599,0-1.196-0.036-1.794-0.111c-0.399,0-0.797-0.073-1.061-0.48
				c-0.263-0.407-0.262-0.555,0.139-0.662c0.566-0.146,0.569-0.513,0.573-1.063c0.013-1.644,0.025-3.287,0.038-4.931
				c0.008-1.064-0.019-2.134,0.024-3.271c0.038-0.587-0.16-0.893-0.522-1.322c-0.099-0.129-0.197-0.259-0.296-0.389
				c-0.229-0.419-0.128-0.673,0.305-0.755c0.566-0.108,0.533-0.109,0.538-0.735c0.013-1.619,0.058-3.234,0.07-4.852
				c0.013-1.643,0.025-3.285,0.038-4.928c0.003-0.441,0.007-0.882,0.01-1.324c0.035-0.253-0.064-0.414-0.295-0.519
				c-0.299-0.15-0.53-0.329-0.762-0.546c-0.264-0.331-0.194-0.62,0.172-0.679c2.43-0.258,4.853,0.139,7.131,1.775
				c1.683,1.224,2.533,2.82,2.751,4.8c0.155,1.521,0.146,2.943-0.165,4.411c-0.411,1.943-1.483,3.218-3.216,3.912
				c-1.167,0.449-2.332,0.737-3.692,0.396C229.347,181.597,229.339,182.7,229.33,183.803z M229.359,166.913
				c0.012,2.819,0.023,5.636,0.035,8.452c-0.009,1.128,0.016,2.294-0.026,3.456c-0.002,0.327,0.131,0.445,0.362,0.353
				c0.668-0.205,1.367-0.335,1.999-0.572c1.367-0.574,2.072-1.75,2.383-3.239c0.31-1.417,0.32-2.86,0.231-4.287
				c-0.092-1.143-0.448-2.184-1.272-3.018c-1.054-1.118-2.28-1.452-3.709-1.472C229.361,166.694,229.36,166.804,229.359,166.913z"
				/>
			<path d="M237.912,182.604c0.004-0.585,0.008-1.206,0.045-1.79c0.036-0.307-0.13-0.527-0.427-0.655
				c-0.528-0.215-0.792-0.654-0.623-1.09c0.102-0.235,0.368-0.385,0.601-0.467c0.299-0.078,0.467-0.303,0.469-0.682
				c-0.087-1.63-0.009-3.21,0.034-4.825c0.045-1.478,0.056-2.959,0.165-4.425c0.035-0.373,0.004-0.584-0.427-0.76
				c-0.495-0.187-0.991-0.336-1.286-0.91c-0.098-0.12-0.096-0.295-0.062-0.463c0.033-0.065,0.166-0.146,0.399-0.211
				c0.133-0.011,0.264,0.012,0.396,0.068c1.719,0.817,3.474,0.854,5.191,1.214c0.659,0.124,1.32,0.152,1.98,0.379
				c0.626,0.22,1.22,0.467,1.845,0.72c0.264,0.149,0.394,0.595,0.26,0.86c-0.101,0.207-0.102,0.434-0.136,0.653
				c-0.033,0.156,0.064,0.466-0.035,0.479c-0.231,0.056-0.43,0.021-0.627-0.08c-0.627-0.274-0.789-0.762-0.818-1.39
				c-1.001-0.187-2.003-0.37-3.006-0.548c-0.363-0.098-0.76-0.167-1.157-0.237c-0.561-0.098-0.762,0.038-0.766,0.615
				c0.017,2.59,0,5.105,0.015,7.692c-0.004,0.646-0.009,1.292-0.013,1.937c-0.034,0.303,0.063,0.415,0.329,0.405
				c0.575,0.054,1.149,0.108,1.724,0.164c0.165,0.016,0.265-0.041,0.333-0.135c0.101-0.324,0.3-0.403,0.564-0.276
				c0.396,0.141,0.627,0.396,0.658,0.763c0.032,0.234,0.03,0.4,0.029,0.631c0.031,0.367-0.103,0.487-0.467,0.422
				c-0.96-0.185-1.922-0.237-2.85-0.417c-0.299-0.059-0.332,0.073-0.334,0.312c-0.01,1.462,0.014,2.857,0.004,4.318
				c-0.01,1.462-0.053,2.887-0.062,4.349c-0.001,0.17,0.031,0.272,0.063,0.511c1.03,0.016,2.061,0.032,3.091,0.049
				c0.365,0.006,0.664,0.011,1.03-0.015c0.165,0.002,0.232-0.062,0.267-0.226c0.101-0.261,0.137-0.523,0.236-0.75
				c0.102-0.293,0.335-0.416,0.666-0.342c0.365,0.108,0.664,0.181,0.761,0.573c0,0.127-0.034,0.193-0.067,0.225
				c-0.367,0.349-0.27,0.742-0.172,1.133c0.098,0.356-0.037,0.55-0.435,0.547c-1.695-0.013-3.391-0.059-5.086-0.071
				c-0.897-0.007-1.728,0.058-2.625-0.054c-0.365-0.003-0.663-0.178-0.961-0.354c-0.363-0.28-0.33-0.526,0.104-0.693
				c0.366-0.133,0.732-0.162,1.132-0.294C237.88,187.177,237.896,184.891,237.912,182.604z"/>
			<path d="M247.838,181.322c0.199-0.078,0.299-0.194,0.299-0.355c0.005-0.858,0.041-1.618,0.045-2.476
				c0.006-1.208,0.011-2.417,0.017-3.625c0.007-1.441,0.014-2.883,0.02-4.324c0.001-0.032,0.001-0.063,0.001-0.095
				c0.134-0.451-0.03-0.673-0.523-0.898c-0.23-0.142-0.428-0.341-0.592-0.6c-0.131-0.25,0.003-0.513,0.3-0.451
				c0.956,0.1,1.878,0.389,2.832,0.499c0.889,0.098,1.71,0.559,2.498,1.064c0.82,0.544,1.576,1.07,2.199,1.887
				c0.886,1.231,1.412,2.5,1.312,3.803c-0.099,1.041-0.134,2.122-0.267,3.164c-0.166,1.508-0.762,2.788-2.186,3.648
				c-0.231,0.129-0.199,0.223-0.1,0.443c0.481,1.501,0.965,2.981,1.448,4.44c0.266,0.815,0.596,1.595,0.86,2.396
				c0.133,0.444,0.299,0.682,0.797,0.776c0.1,0.001,0.067,0.058,0.165,0.09c0.366,0.208,0.599,0.673,0.433,0.759
				c-0.266,0.144-0.565,0.173-0.865,0.142c-0.564-0.089-0.997-0.121-1.296-0.032c-0.433,0.116-0.831-0.001-1.262-0.334
				c-0.298-0.273-0.298-0.427,0.068-0.633c0.166-0.088,0.232-0.236,0.166-0.417c-0.363-0.966-0.66-1.942-1.023-2.897
				c-0.493-1.328-0.821-2.57-1.215-3.921c-0.064-0.221-0.198-0.324-0.396-0.341c-0.397-0.003-0.762-0.065-1.159-0.067
				c-0.1-0.008-0.2,0.171-0.2,0.265c-0.004,0.915-0.007,1.831-0.011,2.746c-0.005,1.352-0.011,2.704-0.016,4.056
				c-0.001,0.343-0.002,0.529,0.363,0.658c0.433,0.162,0.729,0.627,0.629,0.874c-0.101,0.215-0.6,0.279-1.032,0.184
				c-0.165-0.094-0.363-0.094-0.53-0.188c-0.431-0.189-0.862-0.256-1.295-0.193c-0.565,0.061-0.997-0.068-1.294-0.391
				c-0.166-0.291-0.131-0.483,0.101-0.577c0.201-0.093,0.434-0.156,0.667-0.184c0.232-0.092,0.299-0.091,0.3-0.346
				c0.004-0.858,0.009-1.716,0.013-2.574c0.006-1.307,0.045-2.607,0.051-3.975c0.002-0.285,0.003-0.538-0.36-0.791
				c-0.297-0.154-0.429-0.42-0.792-0.806C247.373,181.534,247.605,181.396,247.838,181.322z M250.208,176.113
				c0.011,0.001,0.021,0.003,0.033,0.005c-0.007,1.748-0.014,3.495-0.021,5.242c-0.001,0.281,0.033,0.348,0.396,0.382
				c0.893,0.116,1.457-0.294,1.988-0.814c0.696-0.687,1.028-1.581,1.195-2.522c0.234-1.325,0.435-2.669,0.305-4.104
				c-0.129-1.583-0.914-2.917-2.591-3.854c-0.396-0.206-0.855-0.239-1.251-0.32c-0.034,0.274-0.035,0.524-0.036,0.805
				C250.221,172.659,250.215,174.386,250.208,176.113z"/>
		</g>
		<!-- <g id="webDeveloper-title-banner">
			<g id="Banner_20_">
				<path d="M267.783,220.725c-0.328,0.076-1.641,0.195-3.213,0.195c-1.546,0-4.16-0.119-5.621-0.896
					c2.55-1.58,4.403-2.742,5.556-5.582l0.781-1.947l-2.154,1.422c-1.778,1.168-6.025,2.424-11.18,2.424
					c-2.012,0-2.863-0.094-4.313-0.439c-0.077-0.93-0.333-2.16-0.714-3.803c-0.306-1.307-0.599-2.555-0.599-3.262
					c0-0.871,0.354-1.844,0.687-2.785c0.523-1.438,1.02-2.779,0.208-3.756c-2.197-2.666-8.559-4.018-18.902-4.018
					c-11.877,0-25.31,1.803-29.184,2.77c-4.704,1.172-11.439,1.85-18.492,1.85c-7.045,0-13.79-0.678-18.489-1.85
					c-3.882-0.967-17.317-2.77-29.189-2.77c-10.341,0-16.703,1.352-18.905,4.018c-0.796,0.977-0.311,2.318,0.213,3.756
					c0.338,0.938,0.689,1.914,0.689,2.785c0,0.707-0.288,1.955-0.601,3.268c-0.396,1.686-0.654,2.934-0.722,3.871
					c-1.4,0.301-2.372,0.365-4.31,0.365c-5.152,0-9.405-1.256-11.173-2.424l-2.154-1.422l0.776,1.947
					c1.149,2.84,3.098,4.068,5.562,5.582c-1.46,0.777-4.083,0.896-5.633,0.896c-1.575,0-2.88-0.119-3.206-0.195l-1.588-0.326
					l0.576,1.033c0.827,1.467,5.733,3.201,7.544,3.631c6.537,1.604,11.671,2.279,17.172,2.279c2.439,0,5.064-0.135,8.004-0.406
					c2.254-0.209,3.447-0.57,4.711-0.926c0.563-0.16,1.152-0.33,1.881-0.506c0.153-0.041,0.278-0.102,0.421-0.15
					c3.171-0.857,2.945-3.111,2.817-4.219c-0.02-0.199-0.042-0.375-0.032-0.465c0.15-1.338,0.143-1.312,0.093-2.115
					c5.813,1.158,11.689,2.58,15.771,3.572c1.988,0.492,3.562,0.877,4.443,1.053c6.968,1.453,15.959,2.248,25.332,2.248
					c9.362,0,18.356-0.795,25.319-2.248c0.879-0.176,2.452-0.561,4.446-1.053c4.085-0.992,9.973-2.42,15.794-3.578
					c-0.056,0.754-0.078,0.824,0.064,2.121c0.016,0.096-0.01,0.279-0.032,0.475c-0.128,1.107-0.36,3.393,2.893,4.234
					c0.123,0.035,0.226,0.094,0.355,0.125c0.727,0.176,1.308,0.336,1.871,0.506c1.263,0.355,2.462,0.717,4.706,0.926
					c2.948,0.271,5.568,0.406,8.013,0.406c5.5,0,10.635-0.676,17.179-2.279c1.807-0.43,6.71-2.154,7.539-3.631l0.581-1.033
					L267.783,220.725z M129.268,225.018c-1.262,0.361-2.259,0.656-4.288,0.846c-2.868,0.271-5.407,0.396-7.774,0.396
					c-5.365,0-10.171-0.637-16.601-2.203c-1.505-0.367-3.913-1.277-5.373-2.09c0.463,0.02,0.967,0.041,1.475,0.041
					c2.52,0,5.856-0.297,7.454-1.668l0.443-0.391l-1.069-0.662c-1.896-1.174-3.296-2.041-4.318-3.518
					c2.437,0.926,6.001,1.648,10.111,1.648c1.485,0,2.935-0.115,4.358-0.309c0.103,0.463,0.318,0.789,0.699,0.979
					c0.275,0.137,1.167,0.422,1.633,0.502c0,0,0.699,0.211,1.157,0.322c0.591,0.139,2.517,0.6,4.761,1.131
					c3.542,0.848,8.889,2.115,9.227,2.215l0.105,0.035c1.305,0.436,1.613,0.541,1.129,1.396c-0.12,0.217-0.496,0.467-1.122,0.752
					c-0.03,0.016-0.035,0.029-0.062,0.045C130.448,224.682,129.844,224.848,129.268,225.018z M209.842,221.111
					c-1.967,0.484-3.52,0.855-4.366,1.031c-6.802,1.418-15.623,2.189-24.828,2.189c-9.209,0-18.028-0.771-24.841-2.189
					c-0.844-0.176-2.399-0.547-4.373-1.031c-8.045-1.955-23.028-5.598-31.123-5.598c-2.419,0-4.087,0.32-5.077,0.973
					c0.007-1.078,0.453-2.961,0.746-4.213c0.318-1.363,0.616-2.66,0.616-3.438c0-1.002-0.373-2.033-0.734-3.035
					c-0.441-1.227-0.861-2.385-0.366-2.99c1.864-2.27,7.907-3.457,17.467-3.457c11.677,0,24.826,1.764,28.603,2.711
					c4.884,1.217,11.837,1.924,19.075,1.924s14.196-0.707,19.08-1.924c3.77-0.947,16.914-2.711,28.596-2.711
					c9.562,0,15.601,1.188,17.467,3.457c0.506,0.605,0.08,1.764-0.363,3c-0.357,0.992-0.733,2.023-0.733,3.025
					c0,0.777,0.295,2.07,0.618,3.432c0.293,1.262,0.739,3.172,0.752,4.229c-0.972-0.662-2.652-0.982-5.092-0.982
					C232.877,215.514,217.894,219.156,209.842,221.111z M260.688,224.057c-6.435,1.566-11.248,2.203-16.61,2.203
					c-2.369,0-4.909-0.125-7.771-0.396c-2.031-0.189-3.026-0.484-4.286-0.846c-0.583-0.17-1.189-0.34-1.956-0.531
					c-0.027-0.016-0.029-0.029-0.06-0.045c-0.624-0.285-1.005-0.535-1.125-0.752c-0.476-0.855-0.168-0.961,1.13-1.393l0.08-0.029
					c0.368-0.109,5.793-1.393,9.372-2.25c2.199-0.516,4.067-0.971,4.646-1.105c0.533-0.131,0.972-0.242,1.335-0.348
					c0.501-0.07,1.265-0.381,1.457-0.477c0.381-0.189,0.594-0.516,0.696-0.979c1.421,0.193,2.871,0.309,4.356,0.309
					c4.114,0,7.682-0.723,10.108-1.648c-1.02,1.477-2.42,2.344-4.318,3.523l-1.064,0.656l0.451,0.391
					c1.593,1.371,4.921,1.668,7.441,1.668c0.516,0,1.019-0.021,1.482-0.041C264.59,222.779,262.186,223.689,260.688,224.057z"/>
			</g>
			<g class="portfolio-word">
				<path d="M132.371,203.227c-2.046-0.857-4.358-0.822-7.135-0.02c-0.416,0.125-0.496,0.375-0.193,0.49
					c0.243,0.1,0.543,0.154,0.872,0.186c0.258,0.014,0.368,0.096,0.333,0.256c-0.002,0.305-0.002,0.455-0.007,0.74
					c-0.013,1.043-0.023,1.434-0.033,2.113c-0.01,0.562-0.055,1.033-0.065,1.498c-0.005,0.172,0.04,0.166-0.571,0.266
					c-0.466,0.07-0.581,0.15-0.331,0.24c0.133,0.031,0.198,0.041,0.326,0.07c0.391,0.086,0.586,0.176,0.561,0.346
					c-0.06,0.332-0.015,0.707-0.025,1.102c-0.007,0.742-0.012,1.178-0.025,2.314c-0.005,0.332-0.005,0.557-0.581,0.691
					c-0.408,0.086-0.411,0.186-0.145,0.451c0.278,0.25,0.696,0.275,1.087,0.285c0.566,0.016,1.182,0.08,1.766,0.115
					c0.258,0.021,0.694-0.014,0.771-0.125c0.175-0.24-0.208-0.451-0.436-0.641c-0.03-0.025-0.16-0.029-0.188-0.051
					c-0.101-0.08-0.21-0.17-0.226-0.225c-0.08-0.301-0.02-0.721-0.015-1.027c0.02-0.855,0.073-1.533,0.088-2.104
					c0.015-0.496,0.02-0.707,0.035-1.117c1.345,0.086,2.447,0.045,3.539-0.051c1.603-0.145,2.59-0.525,2.966-1.277
					c0.278-0.564,0.283-1.176,0.133-1.934C134.673,204.84,133.894,203.863,132.371,203.227z M132.76,207.404
					c-0.291,0.561-0.937,0.941-2.224,1.092c-0.591,0.074-1.277,0.1-1.926,0.186c-0.223,0.02-0.363-0.016-0.358-0.096
					c0.035-0.35,0.03-0.707,0.041-1.076c0-1.082,0-1.648-0.005-3.752c0.005-0.08,0.005-0.121,0.005-0.201
					c1.442-0.23,2.575-0.125,3.531,0.436c0.739,0.432,1.077,1.012,1.152,1.568C133.065,206.246,133.038,206.877,132.76,207.404z"/>
				<path d="M147.812,209.738c-0.125-0.076-0.281-0.225-0.283-0.295c-0.027-0.602-0.038-1.273-0.05-2
					c-0.018-0.801-0.203-1.682-0.543-2.58c-0.513-1.342-1.798-2.229-3.837-2.312c-2.111-0.076-3.111,0.771-3.637,1.678
					c-0.629,1.047-0.747,1.969-0.952,2.775c-0.13,0.51-0.226,1.066-0.286,1.482c-0.007,0.064-0.1,0.105-0.235,0.109
					c-0.446,0.016-0.631,0.221-0.844,0.311c-0.022,0.01-0.027,0.07,0,0.096c0.158,0.135,0.423,0.256,0.689,0.375
					c0.2,0.086,0.326,0.195,0.326,0.301c-0.005,0.227,0,0.346-0.005,0.582c-0.002,0.811,0.08,1.693,0.687,2.834
					c0.451,0.852,1.057,1.789,2.449,2.516c1.523,0.775,3.001,1.037,4.266,0.359c0.634-0.34,0.804-0.891,0.967-1.367
					c0.483-1.367,0.807-2.629,0.881-3.746c0.003-0.086,0.053-0.145,0.128-0.191c0.123-0.068,0.326-0.135,0.486-0.215
					C148.401,210.244,148.406,210.119,147.812,209.738z M145.493,209.518c-0.155,0.947-0.331,1.895-0.596,3.016
					c-0.16,0.627-0.514,1.297-0.807,2.029c-0.165,0.42-0.787,0.58-1.397,0.705c-0.166,0.031-0.306-0.023-0.436-0.125
					c-0.325-0.26-0.656-0.465-0.886-0.746c-0.804-1.006-1.095-1.914-1.192-2.695c-0.073-0.66-0.125-1.287-0.105-1.758
					c0.032-0.58,0.118-1.082,0.225-1.588c0.143-0.695,0.316-1.396,0.569-2.254c0.178-0.596,0.318-1.268,1.019-1.918
					c0.376-0.367,0.716-0.682,1.37-0.771c0.443-0.066,0.796,0.055,1.027,0.275c0.508,0.496,0.756,1.041,0.894,1.521
					c0.223,0.832,0.311,1.609,0.311,2.275C145.483,208.186,145.593,208.893,145.493,209.518z"/>
				<path d="M161.533,219.092c-0.083-0.041-0.07-0.07-0.158-0.1c-0.449-0.096-0.624-0.377-0.742-0.754
					c-0.213-0.67-0.511-1.316-0.729-1.934c-0.486-1.332-0.716-1.912-1.202-3.086c-0.08-0.145-0.105-0.205,0.118-0.26
					c1.396-0.355,1.936-1.137,2.122-2.074c0.135-0.641,0.21-1.357,0.308-2.068c0.123-0.891-0.213-1.879-0.929-2.824
					c-0.476-0.633-1.172-1.078-1.994-1.514c-0.779-0.416-1.678-0.801-2.68-0.867c-1.077-0.074-2.194-0.27-3.231-0.346
					c-0.323-0.035-0.488,0.191-0.34,0.371c0.165,0.195,0.411,0.381,0.659,0.471c0.523,0.186,0.739,0.346,0.583,0.691
					c0,0.025,0,0.041,0,0.07c-0.035,1.312-0.05,1.879-0.088,2.965c-0.025,0.896-0.037,1.309-0.067,2.139
					c-0.013,0.492-0.06,0.912-0.073,1.398c-0.002,0.09-0.118,0.15-0.32,0.176c-0.238,0.01-0.854,0.1-0.859,0.125
					c0,0,0.521,0.42,0.807,0.551c0.361,0.166,0.363,0.33,0.361,0.496c-0.025,0.807-0.085,1.594-0.11,2.475
					c-0.02,0.686-0.025,1.053-0.045,1.838c-0.005,0.195-0.095,0.205-0.298,0.211c-0.203,0.004-0.453-0.006-0.644,0.025
					c-0.215,0.045-0.263,0.225-0.105,0.439c0.23,0.307,0.706,0.512,1.242,0.557c0.406,0.035,0.861,0.156,1.242,0.4
					c0.155,0.098,0.361,0.178,0.511,0.258c0.338,0.186,0.907,0.195,1.002,0.02c0.108-0.186-0.163-0.637-0.581-0.832
					c-0.346-0.176-0.346-0.326-0.331-0.592c0.055-1.277,0.085-1.828,0.14-2.881c0.035-0.711,0.053-1.047,0.09-1.697
					c0.005-0.055,0.115-0.146,0.22-0.135c0.396,0.059,0.792,0.129,1.182,0.189c0.196,0.029,0.336,0.115,0.386,0.256
					c0.346,0.867,0.611,1.693,1.042,2.699c0.306,0.717,0.563,1.488,0.867,2.33c0.055,0.16-0.02,0.275-0.18,0.326
					c-0.363,0.104-0.376,0.256-0.09,0.525c0.371,0.357,0.792,0.531,1.212,0.486c0.295-0.035,0.731,0.07,1.272,0.217
					c0.276,0.08,0.586,0.084,0.839-0.012C162.104,219.768,161.868,219.271,161.533,219.092z M157.726,211.857
					c-0.554,0.246-1.157,0.416-2.064,0.246c-0.378-0.061-0.411-0.102-0.403-0.256c0.073-1.232,0.108-1.805,0.183-3.092
					c-0.015,0-0.025-0.004-0.038-0.004c0.073-1.293,0.11-1.965,0.18-3.562c0.008-0.211,0.002-0.602,0.062-0.637
					c0.095-0.068,0.962,0.092,1.378,0.262c1.768,0.73,2.402,1.838,2.459,2.955c0.05,1.018-0.186,1.869-0.471,2.676
					C158.81,211.006,158.457,211.516,157.726,211.857z"/>
				<path d="M175.44,207.104c0.045-0.361-0.225-0.662-0.713-0.752c-0.609-0.1-1.17-0.125-1.776-0.17
					c-2.177-0.16-4.271-0.371-6.457-0.701c-0.804-0.121-1.663-0.215-2.352-0.502c-0.19-0.08-0.386-0.125-0.481-0.129
					c-0.241-0.031-0.416,0.141-0.358,0.359c0.058,0.211,0.053,0.422,0.098,0.611c0.025,0.102,0.025,0.201,0.095,0.316
					c0.181,0.266,0.549,0.451,0.904,0.58c0.634,0.236,0.959,0.041,1.029-0.395c0.01-0.061,0.19-0.131,0.321-0.111
					c0.486,0.08,0.866,0.191,1.35,0.266c0.458,0.066,0.696,0.102,1.16,0.15c-0.035,0.326-0.07,0.541-0.07,0.797
					c0,0.941,0,1.373-0.005,2.174c0,1.223,0,1.758-0.005,2.836c0,0.199,0.07,0.43-0.06,0.561c-0.195,0.186-0.526,0.355-0.816,0.496
					c-0.318,0.16-0.363,0.281-0.03,0.541c0.226,0.154,0.458,0.326,0.682,0.506c0.145,0.109,0.225,0.225,0.225,0.361
					c0,0.439-0.035,0.891-0.035,1.361c0,1.072,0,1.639-0.005,2.928c0,0.174,0.095,0.676,0,0.762
					c-0.125,0.104-0.416,0.074-0.646,0.125c-0.055,0.014-0.08,0.02-0.135,0.035c-0.223,0.074-0.368,0.205-0.158,0.359
					c0.258,0.195,0.619,0.436,0.904,0.467c0.667,0.094,1.357-0.021,1.944,0.18c0.135,0.055,0.286,0.08,0.351,0.086
					c0.271-0.061,0.416-0.09,0.676-0.16c-0.095-0.191-0.12-0.367-0.246-0.518c-0.08-0.084-0.215-0.164-0.366-0.205
					c-0.215-0.08-0.326-0.23-0.326-0.404c0.02-1.686,0.07-3.152,0.005-4.436c-0.025-0.451,0.245-0.771,0.711-1.076
					c0.166-0.111,0.101-0.23,0-0.342c-0.075-0.105-0.291-0.195-0.42-0.295c-0.095-0.074-0.25-0.211-0.255-0.295
					c-0.021-0.346-0.035-0.742-0.035-1.104c0-1.127,0-1.688,0.005-2.984c0-0.912,0-1.398,0-2.494c-0.035,0.029-0.035,0.029,0,0.035
					c1.062,0.115,2.102,0.205,3.153,0.295c0.098,0.004,0.235,0.109,0.331,0.186c0.416,0.381,1.02,0.611,1.678,0.58
					c0.411-0.02,0.511-0.199,0.291-0.5C175.506,207.363,175.426,207.223,175.44,207.104z"/>
				<path d="M188.415,207.254c0.024-0.275-0.068-0.576-0.401-0.662c-0.245-0.049-0.533-0.105-0.789-0.09
					c-1.628,0.096-3.261,0.191-4.887,0.262c-0.355,0.014-0.751-0.012-1.097,0.08c-0.481,0.129-0.889,0.164-1.353,0.08
					c-0.155-0.035-0.331-0.021-0.456,0c-0.19,0.029-0.361,0.094-0.383,0.205c-0.022,0.094,0.065,0.26,0.155,0.311
					c0.268,0.186,0.619,0.234,0.939,0.346c0.152,0.059,0.315,0.1,0.295,0.285c-0.048,0.34-0.005,0.721-0.005,1.041
					c0,1.088,0,1.553,0,2.496c0,1.137-0.03,2.178-0.03,3.27c0,0.947,0.03,1.904,0.03,2.98c0,0.562-0.03,1.1-0.03,1.734
					c0,0.275,0.02,0.953-0.453,1.047c-0.418,0.096-0.451,0.406-0.098,0.617c0.34,0.199,0.749,0.42,1.157,0.275
					c0.506-0.18,1-0.07,1.483,0.086c0.405,0.119,1.012,0.094,1.069-0.021c0.064-0.164-0.509-0.625-0.975-0.756
					c-0.19-0.045-0.291-0.186-0.291-0.355c0-1.729,0-2.877,0-4.273c0-0.678,0-1.012,0-1.674c0.907,0.02,1.751,0.025,2.612,0.025
					c0.352,0,0.587,0.07,0.872,0.115c0.724,0.109,0.935-0.131,0.869-0.506c-0.01-0.045-0.025-0.131-0.035-0.182
					c-0.037-0.25-0.458-0.41-1.029-0.436c-0.378-0.025-0.671,0.125-0.837,0.311c-0.045,0.061-0.162,0.096-0.322,0.105
					c-0.536,0.01-1.1,0.016-1.706,0.025c-0.288,0-0.424-0.096-0.424-0.271c0-1.697-0.01-3.436-0.024-5.635
					c-0.005-0.34,0.226-0.34,0.549-0.471c0.024-0.01,0.127-0.029,0.258-0.035c1.149-0.029,2.349-0.084,3.536-0.16
					c0.17-0.016,0.251-0.02,0.418-0.025c0,0.17,0.016,0.275,0.03,0.316c0.15,0.336,0.354,0.676,0.899,0.762
					c0.205,0.039,0.436-0.025,0.644-0.066c-0.04-0.186-0.061-0.285-0.101-0.465C188.415,207.684,188.392,207.465,188.415,207.254z"
					/>
				<path d="M200.896,211.848c-0.126-0.051-0.281-0.176-0.294-0.266c-0.055-0.646-0.087-1.393-0.13-2.174
					c-0.05-0.873-0.271-1.779-0.594-2.66c-0.466-1.303-2.552-1.904-4.561-1.674c-2.062,0.25-2.697,1.203-3.091,2.244
					c-0.448,1.217-0.479,2.311-0.602,3.357c-0.077,0.676-0.117,1.402-0.135,1.992c0,0.08-0.078,0.156-0.226,0.195
					c-0.443,0.115-0.621,0.426-0.826,0.607c-0.025,0.02-0.03,0.1,0.005,0.129c0.141,0.137,0.453,0.266,0.739,0.361
					c0.215,0.08,0.345,0.195,0.355,0.34c0.02,0.316,0.03,0.467,0.05,0.777c0.07,1.082,0.235,2.189,0.962,3.301
					c0.536,0.838,1.263,1.645,2.647,1.939c1.498,0.32,2.725,0.102,3.759-1.016c0.514-0.557,0.639-1.174,0.805-1.734
					c0.48-1.613,0.761-3.092,0.784-4.379c0.002-0.09,0.045-0.176,0.122-0.25c0.123-0.115,0.315-0.246,0.471-0.387
					C201.521,212.213,201.506,212.082,200.896,211.848z M198.476,212.217c-0.085,1.133-0.175,2.301-0.328,3.637
					c-0.085,0.752-0.343,1.604-0.543,2.465c-0.108,0.514-0.637,0.883-1.165,1.205c-0.141,0.084-0.273,0.074-0.398,0.01
					c-0.312-0.156-0.644-0.271-0.884-0.506c-0.85-0.809-1.24-1.746-1.423-2.672c-0.15-0.781-0.275-1.562-0.32-2.184
					c-0.053-0.768-0.035-1.434-0.011-2.109c0.04-0.922,0.11-1.818,0.241-2.85c0.08-0.723,0.125-1.479,0.701-2.289
					c0.293-0.426,0.571-0.816,1.212-1.002c0.434-0.131,0.814-0.08,1.087,0.115c0.586,0.41,0.93,0.936,1.12,1.412
					c0.325,0.852,0.488,1.684,0.53,2.443C198.351,210.67,198.533,211.471,198.476,212.217z"/>
				<path d="M215.614,215.51c0.058-0.277-0.069-0.406-0.357-0.426c-0.256-0.016-0.599-0.035-0.949,0.01
					c-0.163,0.023-0.299,0.129-0.396,0.26c-0.173,0.236-0.338,0.301-0.468,0.641c-2.26,0.432-3.229,0.977-5.26,1.334
					c-0.005-0.127-0.005-0.346-0.008-0.482c-0.032-1.428-0.032-2.324-0.058-3.461c-0.035-1.146-0.062-2.219-0.128-3.311
					c-0.077-1.758-0.109-2.631-0.188-4.914c-0.002-0.365,0.032-0.592,0.531-0.666c0.1-0.016,0.223-0.07,0.303-0.111
					c0.16-0.08,0.203-0.279,0.096-0.395c-0.261-0.275-0.802-0.387-1.306-0.311c-0.806,0.115-1.635,0.359-2.429,0.555
					c-0.299,0.066-0.396,0.287-0.155,0.432c0.173,0.109,0.4,0.141,0.605,0.246c0.138,0.068,0.218,0.145,0.218,0.189
					c0.046,1.387,0.022,2.6,0.065,3.707c0.07,1.523,0.098,2.174,0.163,3.602c0.05,1.162,0.075,1.738,0.13,3.076
					c0.027,0.771,0.045,1.543,0.075,2.434c-0.463,0.256-0.895,0.365-1.279,0.611c-0.349,0.217-0.296,0.543-0.046,0.617
					c0.251,0.07,0.584,0.17,0.802,0.07c0.741-0.361,1.505-0.256,2.227-0.371c1.729-0.256,3.387-0.953,5.335-1.312
					c0.653-0.131,1.308-0.355,1.878-0.23c0.156,0.039,0.398-0.016,0.677-0.131c0.296-0.125,0.354-0.26,0.186-0.445
					C215.652,216.471,215.555,215.795,215.614,215.51z"/>
				<path d="M220.714,202.811c-0.413,0.096-0.852,0.131-1.257,0.166c-0.251,0.014-0.616-0.07-0.712,0.209
					c-0.093,0.285,0.23,0.391,0.486,0.502c0.013,0.004,0.02,0.01,0.03,0.02c0.298,0.064,0.328,0.176,0.328,0.355
					c-0.018,0.951-0.03,1.779-0.028,2.516c0,0.807-0.047,1.547,0.035,2.223c0.038,0.287-0.037,0.531-0.663,0.723
					c-0.336,0.105-0.368,0.225-0.091,0.346c0.15,0.059,0.349,0.09,0.474,0.15c0.085,0.039,0.213,0.084,0.223,0.15
					c0.013,0.215,0.033,0.43,0.033,0.676c0.002,1.102,0.002,1.662,0.002,3.08c0.005,0.541,0.005,0.861,0.005,1.479
					c-0.34,0.129-0.523,0.355-0.736,0.455c-0.268,0.125-0.338,0.352-0.125,0.436c0.318,0.115,0.691,0.135,1.022,0.141
					c0.5,0.006,1.054-0.301,1.575-0.326c0.22-0.004,0.458-0.07,0.698-0.119c0.341-0.076,0.326-0.262,0.198-0.416
					c-0.13-0.15-0.358-0.221-0.509-0.33c-0.077-0.057-0.218-0.15-0.223-0.242c-0.008-2.037-0.008-3.445-0.015-4.773
					c0-0.145,0.029-0.24,0.388-0.359c0.477-0.166,0.544-0.316,0.131-0.467c-0.131-0.039-0.23-0.07-0.259-0.07
					c-0.19-0.049-0.255-0.109-0.255-0.221c0.002-0.334,0.002-0.506,0.002-0.861c0.008-1.477,0.013-2.213,0.018-4.457
					c0.328-0.096,0.483-0.141,0.807-0.227c0.263-0.064,0.291-0.189,0.131-0.346C222.076,202.865,221.32,202.68,220.714,202.811z"/>
				<path d="M236.493,208.371c-0.146-0.055-0.328-0.146-0.338-0.186c-0.061-0.352-0.105-0.797-0.148-1.312
					c-0.06-0.576-0.338-1.297-0.796-2.104c-0.704-1.238-2.334-2.26-4.355-2.381c-2.094-0.119-2.818,0.748-3.203,1.645
					c-0.454,1.041-0.469,1.943-0.571,2.734c-0.07,0.516-0.101,1.053-0.11,1.453c0,0.061-0.072,0.115-0.223,0.145
					c-0.429,0.096-0.599,0.32-0.794,0.461c-0.022,0.01-0.022,0.066,0.005,0.09c0.146,0.105,0.443,0.172,0.716,0.23
					c0.224,0.057,0.358,0.125,0.368,0.236c0.025,0.211,0.033,0.32,0.061,0.545c0.08,0.793,0.253,1.639,0.989,2.551
					c0.559,0.686,1.287,1.396,2.643,1.678c1.482,0.305,2.729,0.125,3.821-0.822c0.554-0.471,0.685-1.006,0.822-1.447
					c0.381-1.262,0.671-2.154,0.696-2.834c0-0.045,0.045-0.092,0.138-0.121c0.138-0.045,0.36-0.096,0.541-0.141
					C237.204,208.656,237.21,208.605,236.493,208.371z M233.69,210.5c-0.083,0.516-0.343,1.162-0.541,1.883
					c-0.117,0.426-0.648,0.746-1.175,1.031c-0.145,0.08-0.277,0.066-0.403,0c-0.308-0.145-0.636-0.254-0.869-0.455
					c-0.849-0.721-1.244-1.473-1.439-2.168c-0.158-0.576-0.293-1.129-0.339-1.539c-0.064-0.516-0.055-0.957-0.032-1.418
					c0.032-0.621,0.093-1.256,0.223-2.043c0.091-0.566,0.141-1.197,0.731-1.824c0.313-0.346,0.599-0.65,1.245-0.73
					c0.431-0.051,0.804,0.08,1.069,0.305c0.566,0.482,0.882,0.998,1.069,1.438c0.313,0.742,0.474,1.373,0.531,1.875
					c0.065,0.516,0.25,1.012,0.205,1.432C233.906,208.922,233.836,209.588,233.69,210.5z"/>
			</g>
		</g> -->
	</g>
</switch>
</svg>
